<?xml version="1.0" encoding="utf-8"?>
<!-- Generator: Adobe Illustrator 24.2.3, SVG Export Plug-In . SVG Version: 6.00 Build 0)  -->
<svg version="1.1" id="flag-icons-ad" xmlns="http://www.w3.org/2000/svg" xmlns:xlink="http://www.w3.org/1999/xlink" x="0px"
	 y="0px" viewBox="0 0 512 512" style="enable-background:new 0 0 512 512;" xml:space="preserve">
<style type="text/css">
	.st0{fill:#FFCC1E;}
	.st1{fill:#780000;}
	.st2{fill:#A8121C;}
	.st3{fill:#850E17;}
	.st4{fill:#070707;stroke:#000000;stroke-width:1.5;}
	.st5{fill:#FFFFFF;stroke:#2A2A2A;stroke-width:0.75;}
	.st6{fill-rule:evenodd;clip-rule:evenodd;fill:#332D2C;}
	.st7{fill-rule:evenodd;clip-rule:evenodd;fill:#343434;}
	.st8{fill:#A8121C;stroke:#780000;stroke-width:1.5;stroke-miterlimit:6;}
	.st9{fill:#550000;}
</style>
<path id="path5578" class="st0" d="M0,0h512v512H0V0z"/>
<g>
	<g id="b_1_" transform="translate(0,-6.5005741)">
		<path id="path5589_1_" class="st1" d="M137.7,421.1c-3,0-5.6-1.3-8.4-4.3c-4.7-5-3-12.2-3-12.2c0,0-1.8-2.4,0-4.8
			c1.8-2.4,6.9-4.2,6.9-4.2c0,0,0.9-4.8,2.4-6.3c1.5-1.5,5.1-9.5,5.1-9.5l-2.7,0.3c-1.4,0.2-2,1.6-2.5,3c-0.5,1.2-1,2.4-2,2.4
			c-1.1,0-2-0.8-2.8-1.5c-0.7-0.6-1.3-1.2-2-1.2c-0.2,0-0.4,0.1-0.5,0.2c-0.2,0.2-0.2,0.6-0.2,1.2c0,0.7,0.1,1.7-0.5,2.5
			c-0.6,1-1.8,1.2-2.7,1.2c-1.1,0-2.4-0.3-3.3-0.9c-0.5-0.3-1.2-0.5-2-0.5c-0.8,0-1.4,0.2-1.5,0.2l0,0c0.1,0,0.6,0.1,0.6,1.5
			c0,1.6-1.8,4.5-5.2,4.5c-0.2,0-0.3,0-0.5,0c-3.9-0.3-4.5-4.7-4.5-4.8c0,0-2.4,0.3-2.4,3c0,2.6,3,9.5,3,9.5
			c-0.1,0-9.9-6.3-10.2-13.7c-0.3-7.4,8.6-11.3,8.7-11.3c0,0-0.6-3.3,2.4-3.9c0.3-0.1,0.5-0.1,0.8-0.1c2.6,0,4.9,2.4,4.9,2.5
			c0,0,0.4,0.2,2.3,0.2c1.8,0,4.2-0.2,7.3-0.5c8.3-0.9,9.9-2.4,9.9-2.4h0c-0.1,0-4.5-0.6-5.1-2.4c-0.6-1.8-2.1-2.4-2.1-2.4
			c0,0-1.2,2.4-3.6,3.6c-0.3,0.2-0.7,0.3-1,0.3c-1.6,0-2.3-2.3-2.3-2.4c0,0-0.8-2.5-2.4-2.5c-0.2,0-0.4,0-0.5,0.1
			c-0.3,0.1-0.4,0.2-0.6,0.5c-0.9,1.8,0.9,7.2,0.9,7.2c0,0-0.1,0.1-0.4,0.1c-0.5,0-1.2-0.3-2.3-1.6c-2-2.3-4.4-6.2-2.1-12.5
			c2-5.5,7.7-6,9.4-6c0.3,0,0.5,0,0.5,0c0,0,1.2-1.2,3.9-2.7c0.3-0.2,0.6-0.3,1-0.3c2.1,0,3.4,4.3,3.9,5.9c0.6,2.1,1.2,2.7,3.9,2.7
			c2.3,0,2.9,0.6,3.8,1.7c0.2,0.2,0.4,0.4,0.7,0.7c0.5,0.5,1.2,0.7,2.1,0.7c1.2,0,2.3-0.4,2.4-0.5l1.5-0.6c0.2-0.1,0.3-0.1,0.6-0.2
			c1.6-0.4,5-1.4,18.3-15.9c14.8-16.2,26.3-47.1,26.4-47.4c0.5,0,7.7,10.3,11.1,17.6c1.8,3.9,2.3,6.4,1.5,7.4
			c-2.4,2.9-5.3,5.1-8.4,7.3c-0.7,0.5-1.4,1.1-2.1,1.6c-3.7,2.8-10.7,9.4-13.8,14c-1.6,2.4-3.3,4-4.7,5.4c-1.3,1.2-2.4,2.3-3.1,3.6
			c-1.4,2.6-3.6,5.4-4.8,5.4c-1.2,0-3.2,3.5-3.3,3.6l0,0c0,0,0.2,0,0.4,0c0.5,0,1.3-0.1,2.5-0.6c0.5-0.2,1.2-0.3,1.9-0.3
			c1.7,0,3.5,0.6,3.5,0.6c0,0,0.3-3.3,1.2-4.8c0.8-1.3,2.3-2.6,3.9-2.6c0.4,0,0.8,0.1,1.2,0.2c2.1,0.9,3,3,3,3
			c0.1,0.1,6.9,6.6,7.5,14.6c0.2,2.2-0.4,3.9-1.5,5.2c-1.9,2-5,2.3-6.2,2.3c-0.1,0-0.3,0-0.4,0c0-0.1,2.1-3.6,1.8-6.6
			c-0.3-2.9-2.7-4.4-2.7-4.5c0,0-0.3,1.2-0.3,2.7c0,1.5-2.2,3.9-4.8,3.9c-1.5,0-2.1-1.1-2.8-2.1c-0.5-0.9-1.1-1.7-2-1.8
			c-0.1,0-0.2,0-0.3,0c-0.2,0-0.4,0.1-0.5,0.2c-0.2,0.2-0.1,0.7-0.1,1.1c0.1,0.5,0.1,0.9-0.1,1.2c-0.1,0.1-0.3,0.2-0.6,0.2
			c-1.8,0-4.8,0-6.3-1.5c-0.5-0.5-1-0.8-1.5-0.8c-0.9,0-1.7,0.7-2.3,1.9c-0.9,1.8-1.8,2.4-3.9,2.4c-1.8,0-1.8,0-2.8,1l-0.5,0.5
			c-0.9,0.9-0.8,2.1-0.8,3.4c0,0.9,0.1,1.9-0.1,2.8c-0.2,0.6-0.2,1.2-0.3,1.8c-0.2,1.7-0.3,3-2.8,3c-0.9,0-1.4,0.1-1.5,0.3
			c-0.2,0.3,0,0.7,0.3,1.5c0.4,0.9,1,2.4,1.2,4.4c0.2,1.4-0.1,2.6-0.9,3.5c-1.5,1.7-4.5,1.9-5.7,1.9c-0.4,0-0.7,0.1-0.8,0.2
			c-0.1,0.3,0.3,0.8,0.8,1.4l0.3,0.4c0.7,1,1.9,4,1.6,5.9c-0.1,0.6-0.3,1-0.7,1.3c-0.4,0.3-1,0.4-1.7,0.4c-1.8,0-4-1-4.1-1l0.6,3.3
			c0.6,3.2,7.7,3.9,7.8,3.9c0,0-0.6,2.7-3.9,3.3C140,420.9,138.9,421.1,137.7,421.1L137.7,421.1z"/>
		<path id="path5591_1_" class="st2" d="M138.4,419.1c-2.2,0-5.3-0.5-7.6-3.1c-4.2-4.6-2.8-10.7-2.8-10.8l0,0c0.3,0,1.2,0.5,1.7,1.2
			c0.3,0.4,0.5,0.8,0.4,1.1c-0.1,0.4,0,0.9,0.2,1.2c0.1,0.2,0.3,0.2,0.5,0.2c0.3,0,0.7-0.2,1.2-1c0.5-0.7,0.9-1,1.2-1
			c0.4,0,0.5,0.4,0.5,0.4c0,0-0.2,2.8,0.8,6.1c1,3.3,6.9,5.2,7,5.3C141.6,418.7,140.3,419.1,138.4,419.1z M140,409.8
			c-0.2,0-0.5-0.1-0.8-0.2c-0.9-0.4-1.8-1.3-2.8-2.3c-1.2-1.2-2.5-2.5-4-3.2c-1.9-0.9-3.5-0.9-4.3-1c-0.3,0-0.5,0-0.6-0.1
			c0,0,0.4-3.4,2.3-4.2l1.9-0.8c0.1,0.1,7,5.3,8.3,7.8c0.8,1.5,1,3,0.6,3.6C140.6,409.7,140.4,409.8,140,409.8L140,409.8z
			 M134,397.2c0,0,1.1-1.9,1.7-4c0.3-1,1.4-2.7,2.8-4.7c1.6-2.4,3.3-5.1,4-7.1c0.5-1.5,1.2-3,1.8-4.4c0.9-2,1.7-3.8,1.8-4.9
			c0.1-0.6,0-1.4,0-2.2c-0.1-1.9-0.3-4.2,0.9-5.4c0.3-0.3,1.2-1,2.3-1.9c4.5-3.6,15.2-12,22.5-22.3c9-12.6,20.3-36.8,20.6-37.7l0,0
			c0.3,0.2,4.1,3.4,5.1,5.7c0.7,1.5-3.5,7.1-7.5,12.4c-2.1,2.7-4,5.3-5.2,7.2c-2.1,3.4-8,10.3-13.1,16.5c-3.2,3.9-6.3,7.5-8.1,9.8
			c-2.3,3.1-3,5.5-3.5,7.2c-0.4,1.4-0.6,2.2-1.5,2.2c-0.2,0-0.3,0-0.5-0.1c-0.1,0-0.3-0.1-0.4-0.1c-1.3,0-1.9,1.4-2.4,2.7
			c-0.4,1-0.9,2-1.6,2c-1.1,0-2.9,1.2-3.8,2.4c-0.5,0.6-0.7,1.1-0.6,1.4c0,0.2,0.1,0.4,0.2,0.6c0.4,1.4,1,3.9-0.6,4.4
			c-1.9,0.6-3.2,2.3-3,4l0,0.2c0.2,1.6,0.4,2.8-1.1,3.2c-1,0.3-2.5,1.4-2.8,2.4c-0.2,0.4-0.1,0.8,0.1,1.2c-0.5,3.1-1.7,4.2-2.7,5.2
			c-0.8,0.8-1.4,1.4-1.6,2.8l-2.3,2.8L134,397.2z M105.5,396.1c-0.1,0-5.1-4.5-5.1-9.7c0-5.2,7.1-9,7.2-9.1c3.2,2.5,1.9,8.2,1.9,8.2
			c0,0-1.9,0-4.2,1.9C103,389.4,105.5,396.1,105.5,396.1L105.5,396.1z"/>
		<path id="path5593_1_" class="st2" d="M114.1,390.5c-1.5,0-3.3-1.3-3.5-2.1l-0.2-1.1c0,0,1.3-1.9,0.8-5.5
			c-0.4-3.5-1.9-6.3-1.9-6.3c0,0,0.2-2.3,2.1-2.3c0.1,0,0.2,0,0.2,0c2,0.2,4,3.6,4.5,7.6c0.4,3.9,0.4,8.7-1.1,9.5
			C114.8,390.4,114.5,390.5,114.1,390.5L114.1,390.5z M124,386.1c-0.2,0-0.4-0.1-0.7-0.3c-0.5-0.4-1.3-0.6-2.5-0.6
			c-1.1,0-2.1,0.2-2.1,0.2c0,0-0.2-1.5-0.7-4c-0.4-2.4-1.2-5-1.3-5.2l0,0l0,0c0,0,0.1,0,0.4,0c2.3,0,15.3-0.9,18.7-2.6
			c3.8-1.9,8-7.7,8.1-7.8l-0.4,1.1c-0.3,0.7,0,1.7,0.2,2.9c0.2,0.8,0.3,1.5,0.4,2.3c0.2,2.1-1.7,4.2-1.7,4.2h0c0,0-0.7-0.1-1.6-0.1
			c-1.7,0-4,0.2-4.8,1.1c-0.9,1.1-1.7,3.2-2.3,4.7c-0.2,0.6-0.4,1-0.5,1.2c0,0.1-0.1,0.1-0.3,0.1c-1,0-4.4-3.3-5.1-3.9
			c-0.3-0.3-0.5-0.4-0.8-0.4c-1,0-1.3,2.2-1.3,3.6C125.9,384.2,125.1,386.1,124,386.1L124,386.1z M185.5,376.7L185.5,376.7
			c0-0.1-0.3-6.4-5.3-9.1c0,0-1.3-3.6-0.2-5.3l1.1-1.7c0.1,0.1,7.2,7.6,6.8,11.8C187.4,376.7,185.5,376.7,185.5,376.7L185.5,376.7z
			 M116.3,371.2c0,0-4.5-1.9-2.3-9.7c1.7-6.1,6.1-6.8,7.9-6.8c0.6,0,0.9,0.1,0.9,0.1c-3.3,3.3-1.8,10.2-1.8,10.3c0,0-1.1-1-3.2-1
			c-0.1,0-0.3,0-0.4,0c-0.3,0-0.6,0.2-0.8,0.4C115.4,366.1,116.3,371.2,116.3,371.2L116.3,371.2L116.3,371.2z"/>
		<path id="path5595_1_" class="st2" d="M137.3,369.7c0,0-4.1,0-5.7-2.2c-1-1.4-2-2.1-2.7-2.5c-0.4-0.2-0.6-0.4-0.5-0.5
			c0,0,1.4-2.6,2.1-4.3l0.7-1.8c0,0,1.5,2.4,3.9,2.4c2.1,0,2.8,0.7,3.9,1.6c0.2,0.1,0.3,0.3,0.5,0.5c1.3,1.2,4.5,1.2,4.5,1.2
			c0,0-0.6,0.5-1.8,2C141.1,367.5,137.3,369.7,137.3,369.7L137.3,369.7L137.3,369.7L137.3,369.7z M124.2,367.7c-1,0-2.1-0.9-2.2-1.1
			c0-0.1-0.3-5,0.3-7.5c0.6-2.5,2.4-5,4.2-6.1c0.2-0.1,0.3-0.1,0.5-0.1c1.7,0,3.7,4,3.7,4c0,0.1-4.1,8.5-5.2,10.1
			C125.1,367.5,124.7,367.7,124.2,367.7L124.2,367.7z"/>
		<path id="path5597_1_" class="st3" d="M143.5,399.6c-1.7,0-3.1-1-3.8-2c-0.8-1.3,0-2.7,0-2.7c0.1,0.1,0.2,0.1,0.3,0.1
			c0.4,0,0.9-0.6,1.6-1.5l0.2-0.3c0.4-0.5,0.6-1.3,0.9-2.3c0.5-1.7,1.1-3.8,2.7-4.9c1.3-0.9,1.4-2.3,1.6-3.7
			c0.1-1.4,0.3-2.7,1.4-3.4c1.5-0.9,1.9-3.1,2.3-5c0.2-1.1,0.5-2.1,0.8-2.8c0.5-1,1.7-1.1,2.6-1.3c0.9-0.1,1.8-0.2,2-1.1
			c0.4-1.7,1.7-3.8,3.2-4.4c1.3-0.6,2.3-2.9,3.2-5.2l0.4-0.9c1.1-2.6,6.8-9.3,11.7-14.3c5-5.2,12-14.5,14-17.9
			c2.1-3.5,10.3-13.4,10.4-13.5c0,0.1,2.3,11.2-3.6,15.6c-6.1,4.6-19.8,17.6-21.8,20.9c-2.1,3.4-8.2,10.1-11.5,12.9
			c-0.8,0.7-1.2,1.4-1,2c0.3,0.9,1.9,1.3,3.2,1.3c0.7,0,1.3-0.1,1.8-0.3c0.5-0.2,1-0.3,1.6-0.3c0.6,0,1.2,0.1,1.9,0.3
			c0.8,0.2,1.7,0.4,2.9,0.4c2.4,0,2.6-1.9,2.8-4c0-0.5,0.1-1,0.2-1.5c0.2-1.2,1.2-1.8,2-1.8c0.5,0,0.9,0.2,1.1,0.5
			c0.2,0.2,0.2,0.6,0.1,0.9c-0.6,1.6-0.8,5.7-1,9.6l0,0.5c-0.1,1.7-0.7,2.5-1.8,2.5c-0.9,0-2.1-0.6-3-1l-0.3-0.2
			c-0.3-0.2-0.7-0.3-1-0.5c-1.2-0.6-2.5-1.4-3.7-1.4c-0.4,0-0.7,0.1-1,0.2c-0.7,0.3-1.1,0.9-1.4,1.5c-0.5,0.8-0.9,1.5-1.9,1.5
			c-0.2,0-0.3,0-0.5,0c-0.7-0.1-1.3-0.2-1.7-0.2c-1.3,0-2.2,0.5-3.1,1.7c-0.8,1.1-2,1.5-3.4,2c-0.7,0.3-1.6,0.5-2.5,1
			c-2.5,1.1-3.8,3.7-4,8c-0.2,3.9-2.6,4.5-4.3,4.9c-0.4,0.1-0.6,0.2-0.6,0.4c-0.1,0.3,0.1,0.7,0.4,1.2c0.3,0.5,0.6,1.2,0.7,1.9
			c0.1,0.5,0.2,1.1,0.4,1.8c0.4,1.6,0.8,3.6,0.3,4.5c-0.1,0.2-0.4,0.4-0.6,0.4C144.1,399.6,143.8,399.6,143.5,399.6z"/>
	</g>
	<g id="b_2_" transform="translate(0,-6.5005741)">
		<path id="path5589_2_" class="st1" d="M374.3,421.1c-1.2,0-2.3-0.2-3.3-0.4c-3.3-0.6-3.9-3.3-3.9-3.3c0.1,0,7.2-0.6,7.8-3.9
			l0.6-3.3c0,0-2.2,1-4.1,1c-0.7,0-1.2-0.1-1.7-0.4c-0.4-0.3-0.6-0.7-0.7-1.3c-0.3-1.9,0.9-4.9,1.6-5.9l0.3-0.4
			c0.5-0.6,0.9-1.1,0.8-1.4c-0.1-0.2-0.3-0.2-0.8-0.2c-1.2,0-4.1-0.2-5.7-1.9c-0.8-0.9-1.1-2-0.9-3.5c0.2-2,0.8-3.5,1.2-4.4
			c0.3-0.8,0.5-1.2,0.3-1.5c-0.2-0.2-0.6-0.3-1.5-0.3c-2.5,0-2.6-1.3-2.8-3c-0.1-0.6-0.1-1.2-0.3-1.8c-0.2-1-0.2-1.9-0.1-2.8
			c0.1-1.4,0.1-2.5-0.8-3.4l-0.5-0.5c-1-1-1-1-2.8-1c-2.1,0-3-0.6-3.9-2.4c-0.6-1.2-1.5-1.9-2.3-1.9c-0.5,0-1,0.3-1.5,0.8
			c-1.5,1.5-4.5,1.5-6.3,1.5c-0.3,0-0.5-0.1-0.6-0.2c-0.2-0.3-0.1-0.7-0.1-1.2c0.1-0.4,0.1-0.9-0.1-1.1c-0.1-0.1-0.3-0.2-0.5-0.2
			c-0.1,0-0.2,0-0.3,0c-1,0.1-1.5,0.9-2,1.8c-0.6,1-1.3,2.1-2.8,2.1c-2.7,0-4.8-2.3-4.8-3.9c0-1.5-0.3-2.7-0.3-2.7
			c0,0-2.4,1.5-2.7,4.5c-0.3,2.9,1.8,6.5,1.8,6.6c-0.1,0-0.3,0-0.4,0c-1.2,0-4.3-0.2-6.2-2.3c-1.2-1.3-1.7-3-1.5-5.2
			c0.6-8,7.4-14.5,7.5-14.6c0,0,0.9-2.1,3-3c0.4-0.2,0.8-0.2,1.2-0.2c1.6,0,3.2,1.3,3.9,2.6c0.9,1.5,1.2,4.7,1.2,4.8
			c0,0,1.8-0.6,3.5-0.6c0.7,0,1.4,0.1,1.9,0.3c1.2,0.5,2.1,0.6,2.5,0.6c0.3,0,0.4,0,0.4,0l0,0c-0.1-0.1-2.1-3.6-3.3-3.6
			c-1.2,0-3.4-2.8-4.8-5.4c-0.7-1.3-1.8-2.3-3.1-3.6c-1.5-1.4-3.1-3-4.7-5.4c-3.1-4.6-10.1-11.2-13.8-14c-0.7-0.6-1.4-1.1-2.1-1.6
			c-3-2.3-5.9-4.4-8.4-7.3c-0.8-1-0.3-3.5,1.5-7.4c3.4-7.4,10.7-17.6,11.1-17.6c0.1,0.3,11.6,31.2,26.4,47.4
			c13.3,14.6,16.7,15.5,18.3,15.9c0.2,0.1,0.4,0.1,0.6,0.2l1.5,0.6c0,0,1.1,0.5,2.4,0.5c0.9,0,1.6-0.3,2.1-0.7
			c0.2-0.2,0.5-0.5,0.7-0.7c1-1.1,1.6-1.7,3.8-1.7c2.7,0,3.3-0.6,3.9-2.7c0.5-1.6,1.7-5.9,3.9-5.9c0.3,0,0.7,0.1,1,0.3
			c2.7,1.5,3.9,2.7,3.9,2.7c0,0,0.2,0,0.5,0c1.7,0,7.4,0.4,9.4,6c2.3,6.4-0.1,10.2-2.1,12.5c-1.1,1.3-1.9,1.6-2.3,1.6
			c-0.2,0-0.4-0.1-0.4-0.1c0-0.1,1.8-5.5,0.9-7.2c-0.1-0.3-0.3-0.4-0.6-0.5c-0.2-0.1-0.4-0.1-0.5-0.1c-1.7,0-2.4,2.4-2.4,2.5
			c0,0-0.7,2.4-2.3,2.4c-0.4,0-0.7-0.1-1-0.3c-2.4-1.2-3.6-3.6-3.6-3.6c0,0-1.5,0.6-2.1,2.4c-0.6,1.8-5,2.4-5.1,2.4h0
			c0,0,1.6,1.5,9.9,2.4c3.1,0.3,5.5,0.5,7.3,0.5c1.9,0,2.3-0.2,2.3-0.2c0,0,2.3-2.5,4.9-2.5c0.3,0,0.5,0,0.8,0.1
			c3,0.6,2.4,3.9,2.4,3.9c0.1,0,9,4,8.7,11.3c-0.3,7.4-10.1,13.7-10.2,13.7c0-0.1,3-6.9,3-9.5c0-2.6-2.4-3-2.4-3
			c0,0-0.6,4.5-4.5,4.8c-0.2,0-0.3,0-0.5,0c-3.4,0-5.2-2.9-5.2-4.5c0-1.3,0.5-1.5,0.6-1.5l0,0c-0.1,0-0.7-0.2-1.5-0.2
			c-0.8,0-1.5,0.2-2,0.5c-0.9,0.5-2.2,0.9-3.3,0.9c-0.9,0-2.1-0.2-2.7-1.2c-0.6-0.9-0.5-1.8-0.5-2.5c0-0.5,0-0.9-0.2-1.2
			c-0.1-0.1-0.3-0.2-0.5-0.2c-0.7,0-1.3,0.6-2,1.2c-0.8,0.7-1.7,1.5-2.8,1.5c-1,0-1.5-1.2-2-2.4c-0.6-1.4-1.1-2.8-2.5-3l-2.7-0.3
			c0,0.1,3.6,8.1,5.1,9.5c1.5,1.5,2.4,6.2,2.4,6.3c0.1,0,5.1,1.8,6.9,4.2c1.8,2.4,0,4.8,0,4.8c0,0.1,1.7,7.2-3,12.2
			C379.9,419.8,377.3,421.1,374.3,421.1L374.3,421.1z"/>
		<path id="path5591_2_" class="st2" d="M370.4,418.7c0.1,0,5.9-1.9,7-5.3c1-3.3,0.9-6.1,0.8-6.1c0,0,0.1-0.4,0.5-0.4
			c0.3,0,0.7,0.4,1.2,1c0.5,0.8,1,1,1.2,1c0.2,0,0.3-0.1,0.5-0.2c0.2-0.3,0.3-0.7,0.2-1.2c-0.1-0.3,0.1-0.7,0.4-1.1
			c0.5-0.6,1.4-1.2,1.7-1.2l0,0c0,0.1,1.4,6.2-2.8,10.8c-2.4,2.6-5.5,3.1-7.6,3.1C371.7,419.1,370.4,418.7,370.4,418.7z M372,409.8
			c-0.3,0-0.6-0.1-0.7-0.4c-0.4-0.7-0.2-2.1,0.6-3.6c1.3-2.5,8.2-7.7,8.3-7.8l1.9,0.8c1.9,0.8,2.3,4.2,2.3,4.2
			c-0.1,0.1-0.3,0.1-0.6,0.1c-0.8,0-2.3,0.1-4.3,1c-1.5,0.7-2.8,2-4,3.2c-1,1-1.9,1.9-2.8,2.3C372.4,409.7,372.2,409.8,372,409.8
			L372,409.8z M376.8,398.7l-2.3-2.8c-0.1-1.4-0.8-2-1.6-2.8c-1-1-2.2-2.1-2.7-5.2c0.2-0.3,0.3-0.7,0.1-1.2
			c-0.4-1.1-1.8-2.1-2.8-2.4c-1.4-0.4-1.3-1.6-1.1-3.2l0-0.2c0.2-1.7-1-3.4-3-4c-1.6-0.5-1-3.1-0.6-4.4c0.1-0.3,0.1-0.5,0.2-0.6
			c0.1-0.3-0.2-0.8-0.6-1.4c-0.9-1.2-2.7-2.4-3.8-2.4c-0.7,0-1.2-1-1.6-2c-0.5-1.2-1.1-2.7-2.4-2.7c-0.1,0-0.3,0-0.4,0.1
			c-0.2,0-0.4,0.1-0.5,0.1c-0.9,0-1.1-0.8-1.5-2.2c-0.5-1.6-1.1-4.1-3.5-7.2c-1.8-2.3-4.9-6-8.1-9.8c-5.2-6.2-11-13.1-13.1-16.5
			c-1.2-1.9-3.1-4.5-5.2-7.2c-4.1-5.4-8.2-10.9-7.5-12.4c1-2.2,4.8-5.5,5.1-5.7l0,0c0.3,0.9,11.6,25.1,20.6,37.7
			c7.3,10.3,18,18.7,22.5,22.3c1.2,0.9,2,1.6,2.3,1.9c1.2,1.2,1,3.5,0.9,5.4c-0.1,0.8-0.1,1.6,0,2.2c0.1,1.1,0.9,2.9,1.8,4.9
			c0.6,1.4,1.3,2.9,1.8,4.4c0.7,2,2.5,4.7,4,7.1c1.3,2,2.5,3.8,2.8,4.7c0.6,2.1,1.7,4,1.7,4L376.8,398.7z M406.4,396.1
			c0-0.1,2.5-6.8,0.2-8.6c-2.3-1.9-4.2-1.9-4.2-1.9c0-0.1-1.2-5.7,1.9-8.2c0.1,0,7.2,3.9,7.2,9.1
			C411.6,391.6,406.5,396.1,406.4,396.1L406.4,396.1z"/>
		<path id="path5593_2_" class="st2" d="M397.9,390.5c-0.4,0-0.7-0.1-1-0.2c-1.5-0.8-1.5-5.6-1.1-9.5c0.4-4,2.4-7.4,4.5-7.6
			c0.1,0,0.2,0,0.2,0c1.9,0,2.1,2.3,2.1,2.3c0,0-1.5,2.8-1.9,6.3c-0.4,3.5,0.8,5.5,0.8,5.5l-0.2,1.1
			C401.2,389.2,399.3,390.5,397.9,390.5L397.9,390.5z M388,386.1c-1.1,0-1.9-1.9-1.9-3.4c0-1.4-0.4-3.6-1.3-3.6
			c-0.2,0-0.5,0.1-0.8,0.4c-0.7,0.7-4,3.9-5.1,3.9c-0.1,0-0.2,0-0.3-0.1c-0.1-0.2-0.3-0.7-0.5-1.2c-0.5-1.4-1.3-3.6-2.3-4.7
			c-0.8-0.9-3-1.1-4.8-1.1c-0.9,0-1.5,0.1-1.6,0.1h0c0,0-1.9-2.1-1.7-4.2c0.1-0.8,0.2-1.6,0.4-2.3c0.3-1.2,0.5-2.3,0.2-2.9l-0.4-1.1
			c0,0.1,4.3,5.9,8.1,7.8c3.4,1.7,16.4,2.6,18.7,2.6c0.2,0,0.3,0,0.4,0l0,0l0,0c-0.1,0.2-0.9,2.9-1.3,5.2c-0.4,2.5-0.6,4-0.7,4
			c0,0-1-0.2-2.1-0.2c-1.2,0-2,0.2-2.5,0.6C388.4,386,388.2,386.1,388,386.1L388,386.1z M326.5,376.7c0,0-1.9,0-2.3-4.2
			c-0.4-4.2,6.7-11.7,6.8-11.8l1.1,1.7c1.1,1.7-0.2,5.2-0.2,5.3C326.8,370.4,326.5,376.7,326.5,376.7L326.5,376.7L326.5,376.7z
			 M395.7,371.2L395.7,371.2c0-0.1,0.9-5.2-0.4-6.7c-0.2-0.3-0.5-0.4-0.8-0.4c-0.1,0-0.3,0-0.4,0c-2.1,0-3.2,1-3.2,1
			c0-0.1,1.5-7-1.8-10.3c0,0,0.4-0.1,0.9-0.1c1.8,0,6.2,0.7,7.9,6.8C400.2,369.3,395.8,371.2,395.7,371.2L395.7,371.2z"/>
		<path id="path5595_2_" class="st2" d="M374.7,369.7L374.7,369.7L374.7,369.7c0,0-3.8-2.3-5-3.7c-1.2-1.5-1.8-1.9-1.8-2
			c0,0,3.2,0,4.5-1.2c0.2-0.2,0.3-0.3,0.5-0.5c1-0.9,1.8-1.6,3.9-1.6c2.4,0,3.9-2.4,3.9-2.4l0.7,1.8c0.7,1.8,2.1,4.3,2.1,4.3
			c0.1,0.1-0.1,0.3-0.5,0.5c-0.6,0.4-1.6,1.1-2.7,2.5C378.8,369.7,374.7,369.7,374.7,369.7L374.7,369.7z M387.8,367.7
			c-0.5,0-0.9-0.2-1.3-0.7c-1.2-1.6-5.2-10-5.2-10.1c0,0,2-4,3.7-4c0.2,0,0.4,0.1,0.5,0.1c1.9,1.1,3.6,3.6,4.2,6.1
			c0.6,2.5,0.3,7.4,0.3,7.5C389.9,366.8,388.8,367.7,387.8,367.7L387.8,367.7z"/>
		<path id="path5597_2_" class="st3" d="M367.6,399.5c-0.3-0.1-0.5-0.2-0.6-0.4c-0.6-0.9-0.1-2.9,0.3-4.5c0.2-0.7,0.3-1.3,0.4-1.8
			c0.1-0.7,0.4-1.4,0.7-1.9c0.3-0.5,0.5-0.9,0.4-1.2c-0.1-0.2-0.3-0.3-0.6-0.4c-1.6-0.4-4-1-4.3-4.9c-0.2-4.2-1.6-6.9-4-8
			c-0.9-0.4-1.8-0.7-2.5-1c-1.4-0.5-2.6-0.9-3.4-2c-0.9-1.2-1.8-1.7-3.1-1.7c-0.5,0-1,0.1-1.7,0.2c-0.2,0-0.3,0-0.5,0
			c-1,0-1.5-0.7-1.9-1.5c-0.4-0.6-0.7-1.2-1.4-1.5c-0.3-0.2-0.7-0.2-1-0.2c-1.2,0-2.5,0.7-3.7,1.4c-0.3,0.2-0.7,0.4-1,0.5l-0.3,0.2
			c-0.9,0.5-2,1-3,1c-1.1,0-1.7-0.8-1.8-2.5l0-0.5c-0.2-3.9-0.4-8-1-9.6c-0.1-0.3-0.1-0.6,0.1-0.9c0.2-0.3,0.6-0.5,1.1-0.5
			c0.8,0,1.8,0.6,2,1.8c0.1,0.5,0.1,1,0.2,1.5c0.2,2,0.4,4,2.8,4c1.2,0,2.1-0.2,2.9-0.4c0.7-0.2,1.2-0.3,1.9-0.3
			c0.5,0,1.1,0.1,1.6,0.3c0.5,0.2,1.2,0.3,1.8,0.3c1.3,0,2.8-0.4,3.2-1.3c0.2-0.6-0.1-1.2-1-2c-3.2-2.8-9.3-9.5-11.5-12.9
			c-2-3.2-15.7-16.3-21.8-20.9c-5.9-4.4-3.6-15.5-3.6-15.6c0.1,0.1,8.3,9.9,10.4,13.5c2,3.5,9,12.7,14,17.9
			c4.9,5,10.6,11.8,11.7,14.3l0.4,0.9c0.9,2.3,1.9,4.7,3.2,5.2c1.5,0.6,2.8,2.8,3.2,4.4c0.2,0.8,1.1,0.9,2,1.1
			c1,0.1,2.1,0.3,2.6,1.3c0.4,0.7,0.6,1.7,0.8,2.8c0.4,1.9,0.9,4,2.3,5c1.1,0.7,1.3,2,1.4,3.4c0.1,1.4,0.3,2.9,1.6,3.7
			c1.6,1.1,2.2,3.2,2.7,4.9c0.3,1,0.5,1.9,0.9,2.3l0.2,0.3c0.7,0.9,1.3,1.5,1.6,1.5c0.1,0,0.2,0,0.3-0.1c0,0,0.8,1.5,0,2.7
			c-0.7,1-2.1,2-3.8,2C368.2,399.6,367.9,399.6,367.6,399.5z"/>
	</g>
	<path id="path5600" class="st4" d="M212.3,100c-5,0-11.6,1.2-13.7,2.2c-2,1-6.5,4.4-6.5,5.9l11.8,14.2c30.5,6.4,10.1,7.2,10.7,10.5
		c3.3,0.1,7.8,2,10.7,4.3c1.4,1.2,2,6,0.8,10.9c-0.3,1.4-1.2,2.1-2.5,2.1c-2.6,0-6.3-2.9-6.3-2.9c0,0-0.1,1.3,2,4
		c0.8,1,2.3,1.6,4.2,1.6c1.7,0,3.2-0.4,3.2-0.4c0,0.1-1.3,5.8-3.2,8.2c-0.4,0.5-1,0.8-1.6,0.8c-1.8,0-3.9-2.3-3.9-2.3
		c0,0-0.5,0.7,0,2.8c0.3,1.2,1.5,1.4,2.4,1.4c0.9,0,1.8-0.2,1.8-0.2c0,0-0.2,0.8-1.6,2.1c-1,0.9-3.1,1-5.3,1c-0.6,0-1.1,0-1.7,0
		c-0.6,0-1.2,0-1.8,0c-3.4,0-3.6-5.7-3.6-5.8c0,0-2.6,2.3-0.7,5.4c1.8,2.9,4.4,3.2,4.7,3.2c0,0,0,0,0,0l-0.5,0.6
		c-0.2,0.3-1,0.5-2.1,0.5c-1.2,0-3.7-0.2-7.6-1.4c-5.9-1.9-5.5-7.9-5.2-9.8c0.1-0.9,0.9-1.3,2.4-1.3c1.2,0,2.3,0.3,2.4,0.3
		c-0.1,0-1.6-0.5-2.7-1.5c-1.1-1-2.1-2.1-2.1-2.1l2,0.5c0.2,0.1,0.5,0.1,0.7,0.1c0.4,0,0.8-0.1,1.2-0.1c0.4-0.1,0.8-0.1,1.3-0.1
		c1,0,1.9,0.4,2.8,1.5c0.6,0.7,0.8,1.4,0.6,2c-0.4,1.3-2.8,1.8-2.9,1.9c0,0,1,0.7,2.9,0.7c0.5,0,0.9-0.2,1.2-0.5
		c0.7-0.8,0.7-2.5,0.2-5.8c-0.4-2.3-2.8-2.6-4.8-2.6c-0.7,0-1.4,0-2,0.1c-0.6,0-1.2,0.1-1.7,0.1c-0.3,0-0.6,0-0.9-0.1
		c-2.3-0.3-4-2.9-4.3-3.5c0.1,0.3,0.4,1.2,1.2,4c1,3.7,0.6,9.6,0.5,10.7c-0.3-0.1-1-0.1-2.1-0.1c-1.3,0-2.9-0.6-4.8-1.3
		c-2.5-0.9-5.6-2-9-2c-2.2,0-4,0.7-5.3,2.1c-1.6,1.7-2.5,4.3-2.4,7.2c0.2,4.1,4.4,4.5,4.7,4.5c0,0-4.9-2.2-3.1-6.8
		c1-2.5,4.1-3.1,6.5-3.1c2.1,0,4,0.4,4,0.4c0,0-3.1,1.9-3.6,4.3c-0.5,2.5,2.3,4.1,2.3,4.1c0,0-1.3-1.8-0.8-3.4
		c0.3-1.1,1.4-1.9,3-2.4c1-0.3,1.9-0.4,2.7-0.4c2.7,0,4.1,1.5,5.2,2.7c0.3,0.3,0.5,0.5,0.7,0.7c1.4,1.3,5.9,1.6,6.2,1.6
		c-0.2,0-3.4,0.3-7.3,2.3c-1,0.5-1.5,1.2-1.6,2c-0.2,2.1,2.8,4.7,3.7,5.4c0.3,0.2,0.5,0.3,0.8,0.3c1.1,0,2-1.6,2-1.6l-0.1,0
		c-0.5,0-2.4-0.1-3.1-1.1c-0.3-0.5-0.3-1.2,0.1-2c1.2-2.7,6.7-2.8,11.5-2.8c1,0,2,0,2.8,0c3.6-0.1,4.7-1,5.1-1.5
		c-0.2,0.5-0.6,1.5-0.7,2.7c-0.2,1.6,1.6,3,1.6,3c0,0,0-2,1.3-4.3c1.3-2.3,7.4-4.4,7.5-4.5c0,0,0.3,1.4-0.1,3.5
		c-0.3,1.3-1.9,1.6-3.5,2c-1.1,0.2-2.3,0.4-3,1c-1.8,1.3-0.7,4.3-0.6,4.3c0,0,0-0.3,1.5-2.5c0.5-0.7,1.1-1.1,1.9-1.1
		c1.1,0,2,0.7,2,0.7c0,0,0.3,1.2-2.6,6.5c-0.8,1.5-1.7,2.2-2.7,2.2c-1.8,0-3.3-2.7-3.3-2.7l-0.3,2.5c-0.1,0.4,0,0.8,0.3,1.1
		c0.5,0.6,1.7,0.8,2.7,0.8c0.9,0,1.7-0.2,1.8-0.2c0,0.1-1.1,1.4-6,2.7c-0.5,0.1-1,0.2-1.5,0.2c-0.8,0-1.4-0.2-1.8-0.7
		c-0.8-1.1-0.2-3.1-0.2-3.1c0,0-2.1,2-1,4.3c0.4,0.8,1.3,1.2,2.6,1.2c1.4,0,2.9-0.5,3-0.6l-1.5,1.3c-1.6,1.4-3.5,2.8-9.3,3.3
		c-0.8,0.1-1.6,0.1-2.2,0.1c-4.2,0-6.2-1.3-8.5-3.7c-2.3-2.5-4.8-2.7-8.5-2.7h-1.3c-2.3,0-4.8,1.7-7.2,3.3c-2.1,1.4-4.1,2.8-6,3.1
		c-0.2,0-0.5,0.1-0.7,0.1c-3.4,0-5.7-4-6.4-6.7c-0.5-1.8,0.5-2.6,1.9-3.6c0.5-0.4,1.1-0.8,1.6-1.3c1.5-1.4,2.3-4.4,1.8-6.5
		c-0.3-1.2-1-1.9-2.1-2.2c-2.7-0.6-4.6-2.9-5.8-6.6c-0.5-1.5-1.7-2.4-3-2.4c-0.9,0-1.8,0.5-2.4,1.3c-0.6,0.7-1.4,1.1-2.4,1.1
		c-1.5,0-3.2-0.8-4.6-1.6c-0.7-0.4-1.1-1.1-1.3-2.1c-0.3-2,0.4-4.5,1.6-5.9c0.6-0.7,1.2-1.5,1.9-2.4c1.4-1.8,2.9-3.8,4.6-4.8
		c0.5-0.3,1-0.4,1.4-0.4c1.8,0,3.2,2.3,4.2,4.1c0.6,1,1.9,1.5,3.8,1.5c2.3,0,4.8-0.8,6.1-2c2.3-2.2,3.2-12.5,2.1-18
		c-0.7-3.4-6.5-7.5-11.2-10.8c-3.2-2.3-5.9-4.2-6.4-5.4c-1.1-2.9,2.1-4.6,2.1-4.6c0,0-1-0.6-2.2-0.6c-0.8,0-1.5,0.3-2.1,0.9
		c-1.6,1.8,0,4.9,0,4.9c0,0-2-0.2-3.7-2.6c-1.3-1.7-2.6-2.1-4.5-2.6c-0.9-0.2-1.9-0.5-2.8-0.9c-3.5-1.3-3.4-4.9-3.4-4.9
		c0,0-2,1-1.2,3.2c0.8,2,2.7,2.4,2.9,2.5h-1.8c-1.8,0-3.6,0-6.3-1.6c-2.9-1.7-4.4-3.2-4.9-6.8c-0.1-0.8,0.1-1.5,0.6-2.1
		c1-1.1,2.8-1.6,4.2-1.6c0.8,0,1.4,0.1,1.7,0.4c0.5,0.5-0.2,1.4-0.7,2.1c-0.3,0.4-0.6,0.7-0.5,0.9c0,0.1,0.1,0.1,0.2,0.1
		c0,0,0.1,0,0.1,0c0.6-0.1,0.9-0.5,1.3-0.9c0.4-0.4,0.8-0.9,1.4-0.9c0.2,0,0.5,0.1,0.8,0.2c0.3,0.1,0.7,0.2,1,0.2c1,0,2.1-0.5,3.4-1
		c1.2-0.5,2.6-1.1,4.2-1.3c0.6-0.1,1.1-0.2,1.6-0.2c1.2,0,2.1,0.3,2.6,1c0.6,0.7,0.7,1.8,0.3,3.3c-0.2,0.9-0.8,1.4-1.6,1.4
		c-1.5,0-3.6-1.7-3.6-1.7c0,0-0.3,0.7,0.1,1.4c0.4,0.8,1.5,1.2,3.1,1.4c0.2,0,0.5,0,0.7,0c1.5,0,2.6-0.7,3.1-1.9
		c0.5-1.5-0.1-3.3-1.6-4.6c-1.4-1.2-2.7-1.7-4.1-1.7c-1.6,0-3,0.7-4.2,1.4c-0.9,0.5-1.6,0.7-2.3,0.7c-1.3,0-2.4-0.8-4-1.9l-0.2-0.1
		c-0.7-0.5-1.5-0.7-2.5-0.7c-2.7,0-5.8,1.9-7.3,4.7c-2.3,3.9,6.4,10.7,6.5,10.7l-4.6-1.2c-1.6-0.4-3.4-0.4-5.2-0.5
		c-3.1,0-5.9,0-7-2.4c-1.6-3.6-5.7-9.5-5.7-9.6c0,0.1-3.1,6.8-4.6,8.9c-0.6,0.9-0.7,2.4-0.2,3.9c0.7,2.3,2.5,4.2,4.8,5.1
		c4.3,1.6,13.1,4.6,13.2,4.6c-0.1,0-8.8,0.5-12.2,1c-1.6,0.2-4.4,0.4-7.2,0.4c-4.2,0-7.3-0.3-8.6-0.9c-0.9-0.4-1.7-0.8-2.5-1.3
		c-1.6-0.9-3.2-1.6-4.7-1.9c-2.2-0.3-5.3-6.2-5.4-6.3c0,0,0,1.4,2.5,5c2.4,3.6,6.5,5.4,12,7.1c1,0.3,2.6,0.5,4.6,0.5
		c7,0,17.4-2,17.5-2c0,0-1.6,1-4.4,2.7c-2.7,1.6-13.1,5.7-22.3,7.8c-0.8,0.2-1.6,0.3-2.4,0.3c-7.1,0-10-7.8-10-7.9
		c0,0-3,2.4-4.2,6.8c-1.5,5.1,3.6,9.3,8.1,11.9c1.6,0.9,3.2,1.4,4.7,1.4c1.1,0,2.2-0.2,3.3-0.7l-1.8,1.2c0,0,1.3,0.1,3.4,0.1
		c1.9,0,4.7-0.1,7.9-0.6c5.9-1,20.6-7.8,20.8-7.9c-0.2,0.1-18,11.1-29.9,16.3c-4,1.8-7.3,2.6-9.7,2.6c-1.8,0-2.8-0.5-3.4-0.7
		c-0.3-0.1-0.4-0.2-0.6-0.2c-0.1,0-0.2,0-0.3,0.1c-0.1,0.2-0.2,0.3-0.1,0.5c0.2,0.8,2,1.6,2.1,1.6L72,163c-0.1,0-0.3,0-0.4,0
		c-4.5,0-8.8-2.4-8.9-2.5c0,0,1.7,2.8,7,4c1.1,0.2,2.3,0.4,3.6,0.4c5.1,0,11.4-1.9,20.7-6.3c11.4-5.4,24.6-13.5,25.3-14
		c-0.4,0.3-4.2,2.8-8.3,5.8c-2.2,1.6-6.1,4.6-10.2,7.9c-3.9,3.1-7.9,6.3-10.5,8.1C84,171,75,177.2,71.8,177.2c-2.3,0-3.1,0.3-4.7,1
		c-0.7,0.3-1.7,0.7-3,1.2c-0.4,0.1-0.8,0.2-1.2,0.2c-3.2,0-4.1-5.1-4.2-5.2c0,0-0.5,0.7-0.7,3.2c-0.2,2.5,3.1,4.3,3.1,4.3h-1.8
		c-1.6,0-4.4-2.8-4.4-2.8c0,0-0.8,1.2,0.5,6c1.3,4.6,7.9,8.8,12.3,8.8h0.3c4.2-0.2,10.3-6.7,10.4-6.8c0,0,0,0.2-0.2,1.8
		c-0.2,1.6-6.1,4.6-6.2,4.6c0,0,1.2,0.3,3.3,0.3c0.8,0,1.6,0,2.5-0.1c3.8-0.3,5.8-1,12.3-5.4c6.6-4.4,22.9-19,23.1-19.2
		c0,0,0,0.2-0.3,2c-0.2,1.1-3.1,4.2-6.3,7.5c-1.9,2-3.8,4-5.1,5.5c-3.4,4.1-16.6,15.5-20.3,17.9c-2.1,1.3-4.8,1.8-7,2.1
		c-1.8,0.3-3.3,0.6-3.9,1.2c-0.3,0.3-0.4,0.5-0.4,0.7c0.2,0.4,1.2,0.5,1.8,0.5c0.2,0,0.3,0,0.3,0c-0.3,0.2-3.6,2.7-6.7,3.3
		c-3.2,0.7-8.1,0.8-8.1,0.8c0,0,2.2,1.4,5.5,1.4c2.2,0,4.3-0.6,6.4-1.7c6.6-3.6,22.3-12.9,25.5-16.8c3.2-3.9,20.5-21.5,20.7-21.7
		c0,0-0.7,1.8-2.6,3.8c-1.9,2-16.2,22.2-18.4,26.6c-2.2,4.5-17.9,21-25.7,25.6c-1.8,1-3.4,1.6-4.9,1.6c-4.1,0-5.6-4-5.7-4
		c0,0.1-3.9,6.4-1.5,12.7c1.6,4.2,7.1,6.8,14.3,6.8c2.4,0,5-0.3,7.3-0.9c2.6-0.7,4.5-1.9,5.6-3.8c1.8-3,1-6.6,0.9-6.6
		c0,0,1,1.4,1,3.3c0,2-0.5,3.4-0.5,3.5l5.1-3.3c3.4-2.2,8.3-9.6,13.5-17.5c2.6-3.9,5.2-7.8,7.8-11.3c2.9-3.9,4.5-6.1,4.9-6.1
		c0.2,0.2-0.6,2.1-2,5.2c-0.7,1.5-1.5,3.3-2.3,5.4c-4.5,10.8-22.2,36.6-22.4,36.8l-5.7,8.5c-4.8,7-9.4,8.4-12.2,9.3
		c-0.6,0.2-1,0.3-1.4,0.5c-1.6,0.6-1.7,2.1-1.9,3.4c-0.1,0.7-0.1,1.3-0.4,1.6c-0.8,0.8-8.5,5.1-8.6,5.1c0,0,0.1,0.2,0.6,0.2
		c1,0,3.9-0.7,11.9-5.8c10-6.3,21.4-21,35.9-46.1c10.9-19,13.3-22.1,13.3-22.2l-0.2,2c-0.2,2-8.2,20.7-15.3,36.3
		c-6.7,14.8-28.8,50.6-35,55.7c-1.6,1.3-3.1,2-4.5,2c-2.7,0-3.8-2.8-3.9-2.8c0,0-1.9,1.9,0.4,6.9c2.2,5,8.2,6.8,11.8,6.8
		c0.2,0,0.3,0,0.5,0c3.8-0.2,9.8-2.1,15.3-7.1c5.4-4.8,3.5-9.7,3.3-10.2c0.2,0.3,1.1,2.3,1.4,3.9c0.3,1.8-0.5,4.8-0.5,4.8
		c0,0,3.4-4.3,4.6-5.4c0.7-0.7,1.6-2.4,2.6-4.2c0.6-1.1,1.2-2.3,1.8-3.3c1.2-1.9,2.3-3.4,4.2-5.8l1.2-1.6c2.6-3.4,2.4-20,2.4-20.1
		c0,0,0.7,0.7,1.5,3.4c0.8,2.8,0.6,8.2,0.7,8.3c0.1-0.1,6.2-6.6,8.6-10.6c1.2-1.9,2.5-6.3,3.9-11c1.5-5,3-10.2,4.4-12.1
		c2.6-3.6,4.7-5.7,4.7-5.8c-0.1,0.3-10.1,27.9-14.1,37.4c-3.1,7.3-9.4,19.6-13.1,26.9c-0.9,1.8-1.8,3.5-2.7,5.3
		c-1.6,3.2-8.9,10.5-13.3,14.9c-2.1,2.1-3.6,3.5-3.6,3.8c0,0.1,0,0.3,0,0.6c0,1-0.1,2.9-1.9,5c-2.2,2.6-10,7.9-10,8h1.1
		c1.2,0,10.6-7.3,14-11.1c2.1-2.4,13.2-15.1,22.3-31.9c8.4-15.5,23.1-54.3,23.2-54.7c0,0,0.4,1,0.4,4.8c0,3.8-17.7,49.5-17.9,50
		l2.4,0c0,0-0.8,2-2.8,6.9c-1.7,4.4-13.3,28.7-21.8,39.9c-3.1,4.1-6,6.1-8.6,6.1c-1.5,0-2.6-0.7-3.3-1.3c2.3,2.5,7.9,8.5,11.6,9.7
		c0.8,0.3,1.7,0.4,2.8,0.4c4.5,0,9.7-2.5,11.9-4.2c2.9-2.3,6.8-8.2,8-11.6c0.6-1.5,1-1.8,1.2-1.8c0.3,0,0.5,0.5,0.5,0.5l0.7,5.8
		c0.1-0.1,6.9-5.9,11.5-10.8c3.8-4,8.7-19.4,11.4-27.7c0.6-1.9,1-3.3,1.3-4.2c1.7-4.8,3.9-13,4.7-18.3c0.8-5.4-4.2-13-4.2-13.1
		c0,0,2.1,0,4.7,4.1c1.3,2,2,3.1,2.3,3.1c0,0,0-0.1,0-0.1l0.8-7.4c0.8-7.4,5.6-30.4,5.6-30.6c0,0,1.5,2.2,1.3,6.1
		c-0.2,4.1-2.6,22.7-5,36.8c-2.4,14.2-9.5,34.4-9.6,34.6c0-0.1,4.1-5.9,7.3-17.2c3.2-11.3,11-62.1,11.1-62.6c0,0,1.3,1.2,1.1,7.3
		c-0.2,6-2.4,20-2.4,20.2l1.6-1.3c0,0-1.8,4.5-1.8,12.4c0,7.8-1.4,13.2-2.4,16.5c-1,3.1-3.9,5.6-3.9,5.6l2.9-1.5
		c0,0-0.2,2.5-0.8,4.8c-0.6,2.3-5.2,3.9-5.2,4c0,0,2.8,0,7.3-0.6c4.5-0.7,11-9.5,14.8-14.7c2.2-3,2.6-6.2,3-9.3
		c0.3-2.2,0.6-4.6,1.5-6.7c2.3-5.1,3.7-30,3.7-30.2c0,0.1,1.6,5.5,1.8,10.9c0.1,3.6-0.9,13.6-1.5,20.2c-0.3,3.4-0.6,6-0.6,6.6
		c0,1.8-4.5,15.9-4.5,16l1.3-1.3c0.9-0.9,1.6-4,2.8-8.8c0.4-1.5,0.8-3.3,1.3-5.1c1.9-7.5,3.9-34.3,3.9-34.5c0.1,0,6,4.3,7.3,5.6
		l0.3,0.3c1.5,1.5,4.9,4.9,4.9,8.6c0,3.9-3.5,14.3-5.9,16.3c-2.4,2.1-5.5,6.2-6.3,8.8c-0.7,2.3-5.9,13.2-10.2,15.1
		c-0.7,0.3-1.5,0.5-2.2,0.5c-2.8,0-4.5-2.6-4.5-2.6c0,0-0.6,4.3,1,5.1c0.5,0.2,1.3,0.4,2.4,0.4c1.8,0,3.9-0.4,4-0.4
		c-0.1,0.1-5.2,3.3-7.5,5.1c-2.3,1.8-1.6,4.9-1.6,5c0,0,0.9-1.5,3.3-4.1c2.4-2.6,8.7-4.9,8.8-5c0,0,0,0.4-0.3,3.2
		c-0.3,2.8-3.9,4.4-3.9,4.5c0,0,0.4-0.1,1-0.1c0.8,0,2.1,0.2,3.5,0.9c1.7,0.9,1,4.1,0.4,7.3c-0.3,1.3-0.6,2.7-0.7,3.8
		c-0.3,3.8-6.8,5.1-6.8,5.2c0,0,1.7,1.5,3.4,1.5c0.2,0,0.3,0,0.5,0c1.9-0.3,4.8-4.4,4.8-4.5c0,0,0.7,1.4,0.4,6.8
		c-0.3,5.3-4.4,9.5-7.8,10.1c-0.1,0-0.3,0-0.4,0c-0.5,0-1-0.2-1.3-0.6c-1-1.2-0.2-4.1-0.2-4.1c0,0-1.3,1.5-1.3,4
		c0,0.9,0.4,1.6,1.1,2.1c0.6,0.4,1.5,0.5,2.6,0.5c0.5,0,1,0,1.6-0.1c2.7-0.3,8.4-7.2,8.5-7.2v1.9c0,1,0.5,2.4,1.3,3.4
		c0.7,0.9,2,1.9,3.9,1.9c0.2,0,0.3,0,0.5,0c3.7-0.3,4.4-3.4,4.4-3.5c0,0-1.8,2.4-4.5,2.4c-0.4,0-0.9-0.1-1.3-0.2
		c-3.4-1-0.4-11.6-0.4-11.7c0,0,1.6,3.2,3.1,4.8c0.4,0.4,0.9,0.7,1.4,0.7c1.1,0,2.2-1,2.2-1c0,0-4.2-3-3.1-8.1
		c1.1-5.1,9.2-14.1,9.2-14.2c0,0,0,1.5-0.9,4c-1,2.6-0.4,5.9,1.4,7.3c0.9,0.7,2,1.1,3.1,1.1c0.5,0,0.8-0.1,0.8-0.1
		c0,0-4.1-2.8-3.9-5.1c0.2-2.2,5-10.5,9.6-17.4c4.2-6.4,10-11.3,10.1-11.4c0,0,0,0.3-0.1,2c-0.2,1.6,0.6,3.3,0.7,3.3
		c0-0.1,0-6.3,4.7-7.1c0.6-0.1,1.1-0.1,1.5-0.1c1.7,0,1.9,0.8,2.1,2c0.1,0.7,0.3,1.5,0.8,2.3c1.6,2.2,2.6,7.3,2.4,10.2
		c-0.2,2.8-4.3,3.8-4.4,3.8c0,0,0.5,1,2.9,1.3c0.1,0,0.3,0,0.4,0c2.3,0,4.3-2.5,4.3-2.5c0,0,0.8,1,0.8,3.6c0,2.7-3.5,7.4-7.5,7.8
		c-0.1,0-0.1,0-0.2,0c-1.8,0-2.4-2.2-3.1-4.5c-0.7-2.6-1.5-5.2-3.9-5.5c-0.3,0-0.7,0-1.1,0c-4.8,0-12.4,3-14.2,9.6
		c-0.6,2.3-0.3,4.4,1.1,6.1c2.1,2.7,5.9,4,8.6,4c0.3,0,0.6,0,0.9,0c1.2-0.1,2.1-0.6,2.7-1.4c1.1-1.6,0.6-3.9,0.5-3.9l-0.6,2
		c-0.3,0.8-1.1,1.3-2.4,1.3c-1.6,0-3.6-0.7-5.4-2c-0.9-0.6-1.3-1.3-1.4-2.1c-0.1-1.8,1.9-3.6,1.9-3.6c0,0,1.6,1.3,3.6,2.8
		c0.5,0.4,1,0.6,1.6,0.6c1.4,0,2.8-1.1,2.7-1.1h-1.9c-1,0-1.5-0.8-1.5-1.6c0-0.9,0.7-1.8,2.3-1.8c1.5,0,2.1,0.8,2.8,1.9
		c0.8,1.1,1.7,2.6,4.1,3.7c0.8,0.4,1.7,0.6,2.5,0.6c3.6,0,6.4-3.2,6.4-3.2c0,0,0.2,0.4-0.3,3.6c-0.5,3.1-2.8,7-5.7,9.4
		c-1.2,1-2.6,1.6-3.9,1.6c-1.5,0-2.5-0.8-2.6-2.1c0-0.4,0.1-0.7,0.3-0.9c0.7-0.8,2.4-0.9,3.7-0.9c0.8,0,1.5,0,1.6,0
		c-0.1-0.1-2.8-2.1-5.2-2.1c-0.8,0-1.4,0.2-1.9,0.6c-1.1,0.9-1.8,2.2-1.7,3.8c0.1,2,1.3,3.9,3.3,5.2c0.9,0.5,1.9,0.8,3,0.8
		c3.3,0,6.7-2.3,6.7-2.3c0,0-0.5,2.5-2.8,4c-1.7,1.1-4.3,1.7-7.6,1.7c-1.1,0-2.2-0.1-3.3-0.2c-0.8-0.1-1.6-0.1-2.4-0.1
		c-2.5,0-3.1,0.8-4.5,2.6c-1,1.3-2.1,1.6-2.9,1.6c-1,0-1.8-0.5-2.3-0.9c-1-1,1.4-4.4,1.4-4.5h-0.1c-0.4,0-1.5,0.1-2.8,1.3
		c-1.6,1.5-1,4-1.1,4c-0.4,0-1.3-0.1-2.6-1.3c-0.4-0.4-1.2-0.6-2.1-0.6c-2.1,0-4.9,1.2-5.6,2.9c-1,2.5,1.9,4.1,2,4.1
		c0,0-1-1.5,0.5-3.8c0.5-0.8,0.8-1.1,1.1-1.1c0.2,0,0.4,0.3,0.7,0.7c0.2,0.4,0.6,0.8,1,1.2c1.4,1.3,6.1,3.6,6.2,3.6
		c0,0-0.5,1.3-2.9,2.1c-2.5,0.9-6.3,5.4-6.8,8.9c-0.2,1.5,0.4,3.2,1.8,4.7c2,2.3,5.1,3.6,8.1,3.6c0.3,0,0.6,0,0.8,0
		c2.2-0.2,3.8-0.8,4.6-2c0.9-1.4,0.5-3,0.5-3c-0.5,0.7-1,1.4-1.4,2.2c-0.6,1-1.5,1.4-3.6,1.4c-0.4,0-0.9,0-1.4-0.1
		c-3.2-0.2-3.3-2.3-3.3-2.3c0.9-0.2,1.8-0.3,2.8-0.3c1.5,0,1.8-2.1,1.8-2.2c0,0-0.5,0.7-2.4,0.7c-0.5,0-0.8-0.2-1-0.5
		c-0.4-0.8,0.1-2.6,1.8-5.5c0.8-1.4,2.9-2,6.2-2c3,0,5.9,0.6,5.9,0.6l-0.3,3.5c-0.1,1.4-0.6,2-1.5,2c-0.8,0-1.5-0.6-1.6-0.6
		c0,0,0.2,0.2,2.9,2c0.6,0.4,1.2,0.6,1.6,0.6c1.4,0,1.8-1.6,1.8-1.8l0.1,2.6c0.2,2.6-3.4,3-3.4,3l1.2,0.8c0.6,0.5,1.7,0.7,2.7,0.7
		c1,0,1.7-0.3,2.2-0.7c1.1-1.1,1.6-3,1.8-6.1c0.2-3,1.1-4.8,3.3-6.1c2.1-1.3,9.8-8.3,9.9-8.4c0,0,0.2,0.2,0.5,2.6
		c0.1,0.5,0.1,1.1,0,1.6c1.1-0.6,3.1-0.8,3.1-0.8l-0.6,2c-0.1,0.4-0.2,0.8-0.4,1.2c-0.4,1.6-0.8,2.9-2.6,3.5c-0.2,0-0.3,0.1-0.5,0.1
		c-2,0-3.4-3.5-3.4-3.5c0,0-1.5,1-1.5,4c0,1.1,0.5,1.8,1.5,2.2c0.8,0.4,1.8,0.4,2.2,0.4c0.2,0,0.3,0,0.4,0l-1,0.8
		c-0.2,0.2-0.7,0.4-1.4,0.8c-2.3,1.2-6.5,3.4-7.7,7c-0.8,2.4-0.7,4.8,0.5,6.5c0.8,1.2,1.9,1.9,3.1,1.9c0.1,0,0.2,0,0.2,0
		c2.7,0,6.1-2.6,6.1-2.7c0,0-2,0.6-3.5,0.6c-1.3,0-2-0.4-2-1.3c0-2.4,3.1-2.5,3.1-2.5c0,0-2.1-0.7-2.6-1.9c-0.1-0.4-0.1-0.8,0.1-1.1
		c0.7-1.1,2.6-1.3,4.1-1.3c1.1,0,1.9,0.1,1.9,0.1v1.3c0,1.3,1.8,3.8,1.8,3.8c0,0,0-0.5,0.8-2.5c0.3-0.7,0.6-1.1,0.9-1.1
		c0.4,0,0.8,0.5,0.8,0.6v1.3c0,1.3-1.2,2.9-4.2,6.5c-2.6,3.1-9.3,7.2-12.7,7.2c-0.4,0-0.8-0.1-1.2-0.2c-0.8-0.4-1.3-0.5-1.8-0.5
		c-0.3,0-0.6,0.1-0.9,0.2c-0.3,0.1-0.7,0.2-1.3,0.2c-0.4,0-0.8-0.1-1.3-0.2c-0.6-0.1-1.1-0.5-1.3-0.9c-0.7-1.6,1.1-4.5,1.1-4.5
		c0,0-2.5,0.7-2.5,3.2c0,1.7-1,2.8-2.3,2.8c-0.7,0-1.6-0.3-2.4-1c-1-0.8-1.4-2-1.2-3.5c0.2-2.2,1.8-4.4,3.8-5.4
		c0.5-0.3,1-0.4,1.5-0.4c2.7,0,4.7,3.8,4.7,3.9c0-0.1-0.9-7.6-6-8.9c-0.6-0.2-1.2-0.2-1.9-0.2c-4.7,0-7.8,4.6-8.9,6.5
		c-1.8,3.1,2.2,11.8,2.2,11.9c-2.6,3.3-3.8,6.9-4,12.6c0,0-0.6,0-1.5,0c-2,0-5.5-0.2-6.7-1.2c-0.5-0.4-1.4-0.6-2.7-0.6
		c-3.1,0-7.5,1.2-8.3,2.8c-0.6,1.1-1.9,1.4-2.8,1.4c-0.9,0-1.7-0.2-1.8-0.2c0,0,0.5,0.7,1.3,1.5c0.2,0.2,0.5,0.3,0.8,0.3
		c0.9,0,1.9-0.6,1.9-0.6c0,0,0.2,0.2,0.3,2.5c0,0.4-0.1,0.7-0.4,1.1c-0.6,0.6-1.7,1-2.9,1c-1.1,0-2.4-0.4-2.8-1.4
		c-0.2-0.7-0.2-1.3,0-1.8c0.4-0.8,1.4-1,1.4-1h-0.4c-0.6,0-1.7,0.1-2.6,0.7c-0.4,0.3-0.6,0.9-0.5,1.6c0.1,1.2,1.1,3.1,3.4,4.1
		c0.7,0.3,1.5,0.5,2.5,0.5c3.2,0,6.7-1.6,6.7-1.6c0,0,0.1,0.2,0.8,3.6c0.2,1.1,0,2.2-0.7,3c-0.9,1.1-2.5,1.6-3.6,1.6
		c-0.6,0-1.1-0.1-1.4-0.4c-0.3-0.2-0.5-0.4-0.5-0.8c0-1.3,2.3-3,2.3-3c0,0-0.3,0-0.8,0c-1.1,0-3.3,0.2-4.5,1.2
		c-0.8,0.7-1.2,2.3-0.8,4c0.5,2.3,2.2,4,4.4,4.5c0.4,0.1,0.9,0.2,1.3,0.2c4.5,0,8.5-5.3,9.3-6.3c0.3-0.4,0.7-0.6,1.1-0.6
		c0.7,0,1.5,0.4,2.4,0.8c0.9,0.4,1.9,0.9,2.7,0.9c2.1,0,2.6-3.6,2.6-3.7c0,0-1.9,1.6-3.5,1.6c-0.4,0-0.7-0.1-1-0.2
		c-0.5-0.3-0.7-0.6-0.7-0.8c0-0.6,1-1.1,1.9-1.5l0.1-0.1c1.3-0.6,2-6.3,2-6.5c0,0,0.1,0.2,1.3,0.5c0.2,0.1,0.7,0.1,1.3,0.1
		c2.3,0,6.3-0.4,6.3-0.5c0,0-0.8,1.7,0.6,4.1c0.8,1.3,2.1,1.6,3.1,1.6c1,0,1.8-0.3,1.8-0.3c0,0-3.2-1.9-2.1-4.1
		c0.7-1.4,8-4.6,14.4-7.5c4.3-1.9,8.5-3.7,10-4.7c3.7-2.5,11.6-16.4,11.7-16.6c0,0.1-1.1,10.1-1.8,12.9c-0.7,2.8-3.3,7.3-6.3,7.9
		c-0.3,0.1-0.6,0.1-0.9,0.1c-2.3,0-2.6-2.2-2.7-2.2c0,0-1.6,2.3-0.7,4.5c0.5,1.2,1.6,1.4,2.4,1.4c0.8,0,1.5-0.2,1.5-0.2
		c0,0.1-0.7,2-2.7,3.1c-0.6,0.3-1.1,0.7-1.6,1.1c-1.1,0.9-2.2,1.7-3.9,1.7c-0.4,0-0.8-0.1-1.2-0.1c-0.6-0.1-1.1-0.2-1.7-0.2
		c-1.4,0-2.2,0.6-3.3,1.3c-0.3,0.2-0.7,0.4-1.1,0.7c-0.3,0.2-0.6,0.3-1,0.3c-1.6,0-2.9-2.4-2.9-2.5c0,0-0.3,1.8,0.5,3
		c0.6,0.9,1.6,1,2,1c-0.1,0-0.3,0-0.7,0c-0.4,0-1,0-1.9-0.1c-2.6-0.2-4.3-2.8-4.4-2.8c0,0,0.2,2.9,1.3,6.1c1.1,3.1,4.8,3.3,5.3,3.3
		c-0.3,0.1-4.6,1-8.6,1.3c-4,0.3-7.7,4.2-9.4,7.8c-0.5,1.1-0.5,2.3,0,3.6c0.9,2.5,3.4,4.6,5.2,5.4c0.4,0.2,0.8,0.2,1.3,0.2
		c1.3,0,2.8-0.7,3.8-1.8c0.7-0.8,1.1-1.7,1.1-2.4c-0.1-1.5-1.8-1.7-2.9-1.7c-0.5,0-0.9,0.1-0.9,0.1l1.6,1.6c0.3,0.3,0.4,0.7,0.2,1.1
		c-0.3,0.8-1.5,1.4-2.7,1.4c-0.7,0-1.9-0.2-2.7-1.6c-0.6-1-0.5-2.2,0.1-3.3c1.1-1.8,3.6-3.2,5.7-3.2c0.2,0,0.3,0,0.5,0
		c0.5,0.1,1.2,0.1,1.8,0.1c3.1,0,6.6-0.5,6.8-0.6c-0.1,0-1.7,0.6-2.4,2.2c-0.6,1.4-0.4,3.1,0.5,5.1c1.5,3.3,3.9,4,5.7,4
		c1.3,0,2.3-0.4,2.3-0.4c0,0-1.5-0.4-2.2-1.6c-0.4-0.7-0.4-1.6-0.1-2.5c0.5-1.4,1.4-2.1,2.5-2.1c1,0,2.1,0.6,2.5,1.5
		c0.3,0.5,0.7,0.8,1.3,0.8c0.7,0,1.5-0.4,1.5-0.5c0,0-1.1-0.7-1.1-2.6c0-1.2,1.5-1.9,3.3-2.7c1.3-0.6,2.7-1.3,3.9-2.2
		c2.7-2.3,5.7-13.5,5.7-13.6c0,0,1.1,1.2,1.9,2.1c0.5,0.6,0,2.6-0.6,4.6c-0.3,1-0.6,2.1-0.8,3.1c-0.2,0.9-0.2,1.6-0.2,2.5
		c0,1.6,0,3.3-1.3,5.8c-1.2,2.3-3.4,2.8-5.1,2.8c-0.9,0-1.6-0.1-1.6-0.1c0,0,0.2,1.4,1.3,2.7c0.4,0.5,1.1,0.7,2,0.7
		c0.8,0,1.6-0.3,1.6-0.3c0,0-0.2,1.7-3.9,2.3c-0.2,0-0.4,0.1-0.7,0.1c-3.2,0-4.2-4.5-4.2-4.5l-0.3,1.8c-0.3,1.8,2.9,6.4,5.5,7.4
		c0.2,0.1,0.5,0.1,0.8,0.1c1.3,0,3.7-1,6-2.1c-0.2,0.5-0.2,1.2-0.2,2c0,3.4-4.7,3.6-6.1,3.6h-0.2c-0.1,0-0.2,0-0.2,0l2.3,1.3
		c0.6,0.3,1.3,0.5,2.1,0.5c2,0,4-1,4-1l1.9,2.3c1.9,2.3,1.5,6.1,1.5,6.1l1.3-1.5c1.3-1.5,2.6-8,2.6-8.1c0,0,1.6,1.5,3.2,1.7
		c0.1,0,0.1,0,0.2,0c1.6,0,4.1-2.5,4.1-2.5c0,0-0.8,0.5-2.1,1.2c-0.2,0.1-0.4,0.2-0.6,0.2c-1.1,0-2.1-1.4-2.1-4.1c0-0.3,0-0.7-0.1-1
		c1.8,0.8,3.5,1.4,4.5,1.4c0.3,0,0.6-0.1,0.8-0.1c2.7-1,5.9-5.7,5.5-7.4l-0.3-1.8c0,0-1.1,4.5-4.2,4.5c-0.2,0-0.4,0-0.7-0.1
		c-3.7-0.6-3.9-2.3-3.9-2.3c0,0,0.8,0.3,1.6,0.3c0.9,0,1.5-0.2,2-0.7c1.1-1.3,1.3-2.7,1.3-2.7c-0.1,0-0.7,0.1-1.6,0.1
		c-1.6,0-3.9-0.5-5.1-2.8c-1.3-2.5-1.3-4.2-1.3-5.8c0-0.8,0-1.6-0.2-2.5c-0.2-0.9-0.5-2-0.8-3.1c-0.6-2-1.2-3.9-0.6-4.6
		c0.8-1,1.9-2.1,1.9-2.1c0,0.1,2.9,11.3,5.7,13.6c1.2,1,2.6,1.6,3.9,2.2c1.8,0.8,3.3,1.6,3.3,2.7c0,2-1.1,2.6-1.1,2.6
		c0,0,0.7,0.5,1.5,0.5c0.6,0,1-0.3,1.3-0.8c0.5-0.8,1.5-1.5,2.5-1.5c1.1,0,2,0.8,2.5,2.1c0.3,1,0.3,1.8-0.1,2.5
		c-0.7,1.2-2.2,1.6-2.2,1.6c0,0,1,0.4,2.3,0.4c1.8,0,4.2-0.7,5.7-4c0.9-2,1.1-3.7,0.5-5.1c-0.7-1.6-2.3-2.2-2.4-2.2
		c0.2,0.1,3.7,0.6,6.8,0.6c0.7,0,1.3,0,1.8-0.1c0.2,0,0.3,0,0.5,0c2.2,0,4.7,1.4,5.7,3.2c0.7,1.1,0.7,2.2,0.1,3.3
		c-0.8,1.4-2,1.6-2.7,1.6c-1.2,0-2.4-0.6-2.7-1.4c-0.2-0.4-0.1-0.7,0.2-1.1l1.6-1.6c0,0-0.4-0.1-0.9-0.1c-1,0-2.8,0.2-2.9,1.7
		c-0.1,0.7,0.3,1.6,1.1,2.4c1,1.1,2.5,1.8,3.8,1.8c0.4,0,0.9-0.1,1.3-0.2c1.8-0.8,4.3-2.9,5.2-5.4c0.5-1.3,0.5-2.5,0-3.6
		c-1.7-3.6-5.5-7.5-9.4-7.8c-3.9-0.3-8.3-1.2-8.6-1.3c0.5,0,4.2-0.2,5.3-3.3c1.1-3.3,1.3-6.1,1.3-6.1c0,0-1.8,2.6-4.4,2.8
		c-0.6,0-1.3,0.1-1.9,0.1c-0.4,0-0.6,0-0.7,0c0.4,0,1.3-0.1,2-1c0.8-1.1,0.5-3,0.5-3c0,0-1.3,2.5-2.9,2.5c-0.3,0-0.7-0.1-1-0.3
		c-0.4-0.3-0.8-0.5-1.1-0.7c-1-0.7-1.8-1.3-3.3-1.3c-0.5,0-1,0-1.7,0.2c-0.4,0.1-0.8,0.1-1.2,0.1c-1.7,0-2.8-0.8-3.9-1.7
		c-0.5-0.4-1-0.8-1.6-1.1c-2.1-1.1-2.7-3.1-2.7-3.1c0,0,0.7,0.2,1.5,0.2c0.8,0,1.9-0.2,2.4-1.4c1-2.1-0.6-4.4-0.7-4.5
		c0,0-0.4,2.2-2.7,2.2c-0.3,0-0.6,0-0.9-0.1c-3-0.7-5.7-5.1-6.3-7.9c-0.6-2.8-1.8-12.8-1.8-12.9c0.1,0.1,8,14.1,11.7,16.6
		c1.5,1,5.6,2.8,10,4.7c6.4,2.9,13.7,6.1,14.4,7.5c1.1,2.3-2.1,4.1-2.1,4.1c0,0,0.8,0.3,1.8,0.3c1,0,2.3-0.3,3.1-1.6
		c1.4-2.5,0.6-4.1,0.6-4.1c0,0,4.1,0.5,6.3,0.5c0.6,0,1.1,0,1.3-0.1c1.2-0.3,1.3-0.5,1.3-0.5c0,0.2,0.7,5.8,2,6.5l0.1,0.1
		c0.9,0.4,1.9,1,1.9,1.5c0,0.3-0.2,0.6-0.7,0.8c-0.3,0.2-0.7,0.3-1,0.2c-1.6,0-3.5-1.6-3.5-1.6c0,0,0.5,3.7,2.6,3.7
		c0.8,0,1.8-0.5,2.7-0.9c0.9-0.4,1.7-0.8,2.4-0.8c0.5,0,0.8,0.2,1.1,0.6c0.8,1,4.7,6.3,9.3,6.3c0.4,0,0.9-0.1,1.3-0.2
		c2.2-0.5,3.8-2.2,4.4-4.5c0.4-1.6,0.1-3.3-0.8-4c-1.2-1-3.4-1.2-4.5-1.2c-0.5,0-0.8,0-0.8,0c0,0,2.3,1.8,2.3,3
		c0,0.3-0.2,0.6-0.5,0.8c-0.4,0.2-0.9,0.4-1.4,0.4c-1.1,0-2.7-0.5-3.6-1.6c-0.7-0.8-0.9-1.9-0.7-3c0.7-3.4,0.8-3.6,0.8-3.6
		c0,0,3.6,1.6,6.7,1.6c1,0,1.8-0.2,2.5-0.5c2.3-1,3.3-2.8,3.4-4.1c0.1-0.7-0.1-1.3-0.5-1.6c-0.8-0.6-2-0.7-2.6-0.7h-0.4
		c0,0,1,0.2,1.4,1c0.3,0.5,0.3,1.1,0,1.8c-0.4,1.1-1.7,1.4-2.8,1.4c-1.2,0-2.4-0.4-2.9-1c-0.3-0.3-0.4-0.7-0.4-1.1
		c0.2-2.3,0.3-2.5,0.3-2.5c0,0,1.1,0.6,1.9,0.6c0.4,0,0.6-0.1,0.8-0.3c0.5-0.5,0.9-1,1.3-1.5c-0.1,0-0.9,0.2-1.8,0.2
		c-0.9,0-2.2-0.2-2.8-1.4c-0.8-1.5-5.2-2.8-8.3-2.8c-1.3,0-2.3,0.2-2.7,0.6c-1.2,1-4.7,1.2-6.7,1.2c-0.9,0-1.5,0-1.5,0
		c-0.2-5.6-1.4-9.3-4-12.6c0-0.1,4-8.8,2.2-11.9c-1.1-2-4.2-6.5-8.9-6.5c-0.6,0-1.2,0.1-1.9,0.2c-5.2,1.3-6,8.9-6,8.9
		c0,0,2-3.9,4.7-3.9c0.5,0,1,0.1,1.5,0.4c2.1,1,3.6,3.2,3.8,5.4c0.2,1.5-0.3,2.7-1.2,3.5c-0.8,0.7-1.6,1-2.4,1
		c-1.4,0-2.3-1.2-2.3-2.8c0-2.5-2.4-3.2-2.5-3.2c0,0,1.8,3,1.1,4.5c-0.2,0.5-0.6,0.8-1.3,0.9c-0.5,0.1-0.9,0.2-1.3,0.2
		c-0.6,0-1-0.1-1.3-0.2c-0.3-0.1-0.6-0.2-0.9-0.2c-0.5,0-1.1,0.2-1.8,0.5c-0.4,0.2-0.8,0.3-1.2,0.2c-3.4,0-10-4-12.7-7.2
		c-3-3.6-4.2-5.2-4.2-6.5v-1.3c0,0,0.4-0.6,0.8-0.6c0.4,0,0.7,0.4,0.9,1.1c0.8,2,0.8,2.5,0.8,2.5c0,0,1.8-2.5,1.8-3.8v-1.3
		c0,0,0.9-0.1,1.9-0.1c1.5,0,3.4,0.2,4.1,1.3c0.2,0.4,0.3,0.8,0.1,1.1c-0.4,1.1-2.5,1.9-2.6,1.9c0,0,3.1,0,3.1,2.5
		c0,0.9-0.7,1.3-2,1.3c-1.6,0-3.5-0.6-3.5-0.6c0,0,3.4,2.7,6.1,2.7c0.1,0,0.2,0,0.2,0c1.2-0.1,2.3-0.8,3.1-1.9
		c1.1-1.7,1.3-4.1,0.5-6.5c-1.3-3.6-5.5-5.8-7.7-7c-0.6-0.3-1.2-0.6-1.4-0.8l-1-0.8c0,0,0.2,0,0.4,0c0.5,0,1.4-0.1,2.2-0.4
		c1-0.4,1.5-1.2,1.5-2.2c0-2.9-1.5-4-1.5-4c0,0-1.4,3.5-3.4,3.5c-0.2,0-0.3,0-0.5-0.1c-1.8-0.5-2.2-1.9-2.6-3.5
		c-0.1-0.4-0.2-0.8-0.4-1.2l-0.6-2c0,0,2,0.2,3.1,0.8c-0.1-0.5-0.1-1.1,0-1.6c0.3-2.4,0.5-2.6,0.5-2.6c0.1,0.1,7.8,7.1,9.9,8.4
		c2.1,1.3,3.1,3.1,3.3,6.1c0.2,3.2,0.7,5,1.8,6.1c0.5,0.5,1.3,0.7,2.2,0.7c1,0,2-0.3,2.7-0.7l1.2-0.8c0,0-3.6-0.4-3.4-3l0.1-2.6
		c0,0.1,0.4,1.8,1.8,1.8c0.5,0,1.1-0.2,1.6-0.6c2.7-1.8,2.9-2,2.9-2c0,0-0.8,0.6-1.6,0.6c-0.9,0-1.4-0.7-1.5-2l-0.3-3.5
		c0.1,0,3-0.6,5.9-0.6c3.4,0,5.5,0.7,6.2,2c1.7,2.9,2.2,4.7,1.8,5.5c-0.2,0.3-0.5,0.5-1,0.5c-1.9,0-2.4-0.7-2.4-0.7
		c0,0,0.3,2.2,1.8,2.2c1.4,0,2.8,0.3,2.8,0.3c0,0-0.1,2.1-3.3,2.3c-0.5,0-1,0.1-1.4,0.1c-2.1,0-3.1-0.4-3.6-1.4
		c-0.4-0.8-0.9-1.5-1.4-2.2c0,0-0.5,1.6,0.5,3c0.8,1.2,2.3,1.8,4.6,2c0.3,0,0.6,0,0.8,0c3.1,0,6.2-1.3,8.1-3.6
		c1.3-1.5,1.9-3.2,1.8-4.7c-0.5-3.5-4.3-8.1-6.8-8.9c-2.4-0.8-2.9-2.1-2.9-2.1c0,0,4.7-2.3,6.2-3.6c0.5-0.4,0.8-0.9,1-1.2
		c0.3-0.4,0.4-0.7,0.7-0.7c0.3,0,0.6,0.4,1.1,1.1c1.4,2.3,0.5,3.8,0.5,3.8c0,0,2.9-1.7,2-4.1c-0.7-1.8-3.5-2.9-5.6-2.9
		c-0.9,0-1.7,0.2-2.1,0.6c-1.3,1.2-2.3,1.3-2.6,1.3c-0.1,0,0.5-2.5-1.1-4c-1.3-1.2-2.4-1.3-2.8-1.3h-0.1c0,0.1,2.4,3.5,1.4,4.5
		c-0.4,0.4-1.2,0.9-2.3,0.9c-0.8,0-1.9-0.3-2.9-1.6c-1.4-1.8-2-2.6-4.5-2.6c-0.6,0-1.4,0-2.4,0.1c-1.1,0.1-2.2,0.2-3.3,0.2
		c-3.2,0-5.9-0.6-7.6-1.7c-2.2-1.5-2.8-3.9-2.8-4c0,0,3.4,2.3,6.7,2.3c1.2,0,2.2-0.3,3-0.8c2-1.3,3.2-3.2,3.3-5.2
		c0.1-1.5-0.5-2.9-1.7-3.8c-0.5-0.4-1.2-0.6-1.9-0.6c-2.4,0-5.1,2-5.2,2.1c0.1,0,0.8,0,1.6,0c1.3,0,3,0.1,3.7,0.9
		c0.2,0.3,0.3,0.6,0.3,0.9c-0.1,1.3-1.1,2.1-2.6,2.1c-1.3,0-2.7-0.6-3.9-1.6c-2.9-2.4-5.2-6.3-5.7-9.4c-0.5-3.2-0.3-3.6-0.3-3.6
		c0,0,2.9,3.2,6.4,3.2c0.9,0,1.7-0.2,2.5-0.6c2.4-1.1,3.4-2.5,4.1-3.7c0.8-1.1,1.3-1.9,2.8-1.9c1.6,0,2.3,0.9,2.3,1.8
		c0,0.8-0.5,1.6-1.5,1.6h-1.9c0,0,1.3,1.1,2.7,1.1c0.6,0,1.2-0.2,1.6-0.6c2-1.5,3.6-2.8,3.6-2.8c0,0,2,1.8,1.9,3.6
		c-0.1,0.8-0.5,1.6-1.4,2.1c-1.8,1.2-3.8,2-5.4,2c-1.3,0-2.1-0.5-2.4-1.3l-0.6-2c0,0-0.6,2.3,0.5,3.9c0.6,0.8,1.5,1.3,2.7,1.4
		c0.3,0,0.6,0,0.9,0c2.7,0,6.5-1.3,8.6-4c1.4-1.8,1.7-3.8,1.1-6.1c-1.8-6.7-9.4-9.6-14.2-9.6c-0.4,0-0.7,0-1.1,0
		c-2.4,0.3-3.2,2.9-3.9,5.5c-0.6,2.3-1.3,4.5-3.1,4.5c-0.1,0-0.1,0-0.2,0c-4-0.3-7.5-5.1-7.5-7.8c0-2.6,0.8-3.6,0.8-3.6
		c0,0,2.1,2.5,4.3,2.5c0.1,0,0.2,0,0.4,0c2.4-0.3,2.9-1.3,2.9-1.3c0,0-4.2-1-4.4-3.8c-0.2-2.9,0.8-8,2.4-10.2
		c0.5-0.8,0.7-1.6,0.8-2.3c0.2-1.2,0.4-2,2.1-2c0.4,0,0.9,0,1.5,0.1c4.7,0.8,4.7,7,4.7,7.1c0,0,0.8-1.7,0.7-3.3
		c-0.2-1.6-0.1-2-0.1-2c0,0.1,5.9,5,10.1,11.4c4.5,6.9,9.4,15.1,9.6,17.4c0.2,2.3-3.9,5.1-3.9,5.1c0,0,0.3,0.1,0.8,0.1
		c0.8,0,2-0.2,3.1-1.1c1.8-1.4,2.5-4.7,1.4-7.3c-1-2.4-0.9-3.9-0.9-4c0.1,0.1,8.1,9.1,9.2,14.2c1.1,5.1-3,8.1-3.1,8.1
		c0,0,1.1,1,2.2,1c0.5,0,1-0.2,1.4-0.7c1.4-1.6,3.1-4.8,3.1-4.8c0,0.1,3,10.7-0.4,11.7c-0.4,0.1-0.9,0.2-1.3,0.2
		c-2.7,0-4.5-2.3-4.5-2.4c0,0,0.6,3.1,4.4,3.5c0.2,0,0.3,0,0.5,0c1.9,0,3.2-1,3.9-1.9c0.8-1,1.3-2.4,1.3-3.4V338
		c0,0,5.7,6.9,8.5,7.2c0.6,0.1,1.1,0.1,1.6,0.1c1.1,0,2-0.2,2.6-0.5c0.7-0.4,1.1-1.1,1.1-2.1c0-2.5-1.3-3.9-1.3-4
		c0,0,0.7,2.9-0.2,4.1c-0.3,0.4-0.8,0.6-1.3,0.6c-0.1,0-0.2,0-0.4,0c-3.4-0.5-7.5-4.8-7.8-10.1c-0.3-5.4,0.3-6.8,0.4-6.8
		c0,0,2.9,4.1,4.8,4.5c0.2,0,0.3,0,0.5,0c1.8,0,3.4-1.5,3.4-1.5c-0.1,0-6.5-1.4-6.8-5.2c-0.1-1.1-0.4-2.5-0.7-3.8
		c-0.7-3.1-1.4-6.3,0.4-7.3c1.4-0.8,2.7-0.9,3.5-0.9c0.6,0,1,0.1,1,0.1c0,0-3.6-1.7-3.9-4.5c-0.3-2.8-0.3-3.2-0.3-3.2
		c0,0,6.4,2.4,8.8,5c2.4,2.6,3.3,4.1,3.3,4.1c0,0,0.6-3.2-1.6-5c-2.2-1.8-7.3-5-7.5-5.1c0.1,0,2.1,0.4,4,0.4c1.1,0,1.9-0.1,2.4-0.4
		c1.6-0.8,1-5.1,1-5.1c0,0-1.7,2.6-4.5,2.6c-0.7,0-1.4-0.2-2.2-0.5c-4.3-1.9-9.5-12.7-10.2-15.1c-0.8-2.6-4-6.7-6.3-8.8
		c-2.4-2.1-5.9-12.5-5.9-16.3c0-3.7,3.5-7.2,4.9-8.6l0.3-0.3c1.3-1.3,7.2-5.6,7.3-5.6c0,0.3,2,27,3.9,34.5c0.5,1.9,0.9,3.6,1.3,5.1
		c1.2,4.8,1.9,7.9,2.8,8.8l1.3,1.3c0-0.2-4.5-14.2-4.5-16c0-0.6-0.3-3.3-0.6-6.6c-0.6-6.6-1.6-16.6-1.5-20.2
		c0.2-5.4,1.8-10.8,1.8-10.9c0,0.2,1.5,25.2,3.7,30.2c1,2.1,1.2,4.5,1.5,6.7c0.4,3.1,0.8,6.4,3,9.3c3.9,5.3,10.3,14.1,14.8,14.7
		c4.5,0.7,7.3,0.6,7.3,0.6c0,0-4.6-1.7-5.2-4c-0.6-2.3-0.8-4.8-0.8-4.8l2.9,1.5c0,0-2.9-2.5-3.9-5.6c-1-3.4-2.4-8.7-2.4-16.5
		c0-7.8-1.8-12.3-1.8-12.4l1.6,1.3c0-0.2-2.3-14.1-2.4-20.2c-0.2-6,1.1-7.2,1.1-7.3c0.1,0.5,7.8,51.3,11.1,62.6
		c3.2,11.3,7.3,17.2,7.3,17.2c-0.1-0.2-7.2-20.4-9.6-34.6c-2.4-14.1-4.8-32.7-5-36.8c-0.2-3.9,1.3-6.1,1.3-6.1
		c0,0.2,4.8,23.2,5.6,30.6l0.8,7.4c0,0,0,0.1,0,0.1c0.2,0,1-1.1,2.3-3.1c2.6-4.1,4.7-4.1,4.7-4.1c-0.1,0.1-5,7.7-4.2,13.1
		c0.8,5.4,3,13.5,4.7,18.3c0.3,0.9,0.7,2.3,1.3,4.2c2.6,8.3,7.5,23.7,11.4,27.7c4.7,4.9,11.5,10.7,11.5,10.8l0.7-5.8
		c0,0,0.2-0.5,0.5-0.5c0.3,0,0.7,0.3,1.2,1.8c1.2,3.3,5.1,9.3,8,11.6c2.2,1.7,7.3,4.2,11.9,4.2c1,0,2-0.1,2.8-0.4
		c3.6-1.2,9.3-7.2,11.6-9.7c-0.7,0.6-1.8,1.3-3.3,1.3c-2.6,0-5.5-2.1-8.6-6.1c-8.5-11.1-20-35.4-21.8-39.9c-2-5-2.8-6.9-2.8-6.9
		l2.4,0c-0.2-0.5-17.9-46.2-17.9-50c0-3.8,0.3-4.8,0.4-4.8c0.1,0.4,14.9,39.2,23.2,54.7c9.1,16.9,20.2,29.6,22.3,31.9
		c3.4,3.8,12.8,11.1,14,11.1h1.1c-0.1-0.1-7.8-5.3-10-8c-1.8-2.1-1.9-4-1.9-5c0-0.3,0-0.5,0-0.6c-0.1-0.2-1.6-1.7-3.6-3.8
		c-4.4-4.4-11.7-11.8-13.3-14.9c-0.9-1.8-1.8-3.5-2.7-5.3c-3.7-7.3-10-19.6-13.1-26.9c-4-9.5-14-37-14.1-37.4c0,0.1,2.1,2.2,4.7,5.8
		c1.4,1.9,2.9,7.1,4.4,12.1c1.4,4.7,2.7,9.1,3.9,11c2.4,3.9,8.6,10.5,8.6,10.6c0-0.1-0.1-5.5,0.7-8.3c0.8-2.8,1.5-3.4,1.5-3.4
		c0,0.2-0.2,16.7,2.4,20.1l1.2,1.6c1.8,2.4,3,3.9,4.2,5.8c0.6,0.9,1.2,2.1,1.8,3.3c1,1.8,1.9,3.5,2.6,4.2c1.1,1.1,4.5,5.4,4.6,5.4
		c0,0-0.8-3-0.5-4.8c0.3-1.7,1.3-3.6,1.4-3.9c-0.2,0.5-2.1,5.4,3.3,10.2c5.5,5,11.5,6.9,15.3,7.1c0.1,0,0.3,0,0.5,0
		c3.5,0,9.5-1.8,11.8-6.8c2.3-5.1,0.4-6.9,0.4-6.9c0,0-1.2,2.8-3.9,2.8c-1.3,0-2.8-0.7-4.5-2c-6.2-5.1-28.2-40.9-35-55.7
		c-7.1-15.6-15.1-34.4-15.3-36.3l-0.2-2c0,0,2.4,3.2,13.3,22.2c14.5,25.1,25.9,39.8,35.9,46.1c8.1,5.1,10.9,5.8,11.9,5.8
		c0.6,0,0.6-0.2,0.6-0.2c-0.1-0.1-7.8-4.3-8.6-5.1c-0.3-0.3-0.4-0.9-0.4-1.6c-0.1-1.2-0.3-2.7-1.9-3.4c-0.5-0.2-1-0.3-1.4-0.5
		c-2.8-0.8-7.5-2.2-12.2-9.3l-5.7-8.5c-0.2-0.3-17.9-26.1-22.4-36.8c-0.9-2-1.7-3.9-2.3-5.4c-1.3-3.1-2.1-4.9-2-5.2
		c0.4,0,2,2.2,4.9,6.1c2.5,3.5,5.2,7.4,7.8,11.3c5.2,7.8,10.2,15.3,13.5,17.5l5.1,3.3c0,0-0.5-1.5-0.5-3.5c0-1.9,1-3.3,1-3.3
		c0,0.1-0.9,3.6,0.9,6.6c1.1,1.9,3,3.1,5.6,3.8c2.3,0.6,4.9,0.9,7.3,0.9c7.3,0,12.8-2.6,14.3-6.8c2.4-6.4-1.4-12.7-1.5-12.7
		c0,0-1.6,4-5.7,4c-1.5,0-3.1-0.5-4.9-1.6c-7.7-4.6-23.5-21.1-25.7-25.6c-2.2-4.4-16.5-24.7-18.4-26.6c-1.9-2-2.6-3.8-2.6-3.8
		c0.2,0.2,17.5,17.8,20.7,21.7c3.3,4,18.9,13.2,25.5,16.8c2.1,1.1,4.2,1.7,6.4,1.7c3.3,0,5.5-1.4,5.5-1.4c-0.1,0-4.9-0.2-8.1-0.8
		c-3.1-0.6-6.4-3.1-6.7-3.3c0,0,0.2,0,0.3,0c0.6,0,1.7,0,1.8-0.5c0.1-0.2,0-0.5-0.4-0.7c-0.7-0.6-2.2-0.9-3.9-1.2
		c-2.2-0.4-4.9-0.9-7-2.1c-3.7-2.3-16.9-13.7-20.3-17.9c-1.3-1.6-3.3-3.6-5.1-5.5c-3.1-3.3-6.1-6.4-6.3-7.5c-0.3-1.8-0.3-2-0.3-2
		c0.1,0.2,16.5,14.8,23.1,19.2c6.6,4.4,8.5,5.1,12.3,5.4c0.9,0.1,1.7,0.1,2.5,0.1c2.1,0,3.3-0.3,3.3-0.3c-0.1-0.1-6-3-6.2-4.6
		c-0.1-0.6-0.1-1.2-0.2-1.8c0,0.1,6.2,6.6,10.4,6.8h0.3c4.4,0,11-4.1,12.3-8.8c1.3-4.7,0.5-6,0.5-6c0,0-2.8,2.8-4.4,2.8h-1.8
		c0,0,3.3-1.8,3.1-4.3c-0.2-2.5-0.7-3.2-0.7-3.2c0,0.1-1,5.2-4.2,5.2c-0.4,0-0.8-0.1-1.2-0.2c-1-0.4-2-0.7-3-1.2
		c-1.6-0.7-2.3-1-4.7-1c-3.2,0-12.1-6.2-18.6-10.9c-2.6-1.9-6.6-5.1-10.5-8.1c-4.1-3.2-7.9-6.3-10.2-7.9c-4.1-2.9-7.9-5.5-8.3-5.8
		c0.8,0.5,13.9,8.6,25.3,14c9.2,4.4,15.6,6.3,20.7,6.3c1.3,0,2.4-0.1,3.6-0.4c5.3-1.1,7-3.9,7-4c-0.1,0-4.4,2.5-8.9,2.5
		c-0.1,0-0.3,0-0.4,0l-4.7-0.2c0.1,0,1.9-0.8,2.1-1.6c0-0.2,0-0.4-0.1-0.5c-0.1-0.1-0.2-0.1-0.3-0.1c-0.2,0-0.3,0.1-0.6,0.2
		c-0.6,0.3-1.6,0.7-3.4,0.7c-2.5,0-5.7-0.9-9.7-2.6c-11.9-5.2-29.7-16.2-29.9-16.3c0.2,0.1,14.9,7,20.8,7.9c3.1,0.5,6,0.6,7.9,0.6
		c2,0,3.4-0.1,3.4-0.1l-1.8-1.2c1,0.5,2.1,0.7,3.3,0.7c1.6,0,3.1-0.4,4.7-1.4c4.5-2.6,9.6-6.8,8.1-11.9c-1.3-4.4-4.2-6.7-4.2-6.8
		c0,0.1-2.9,7.9-10,7.9c-0.8,0-1.5-0.1-2.4-0.3c-9.2-2-19.6-6.2-22.3-7.8c-1.5-0.9-2.9-1.8-4.4-2.7c0.1,0,10.5,2,17.5,2
		c2,0,3.6-0.2,4.6-0.5c5.5-1.7,9.6-3.5,12-7.1c2.4-3.6,2.5-5,2.5-5c-0.1,0.1-3.1,6-5.4,6.3c-1.5,0.2-3.1,1-4.7,1.9
		c-0.8,0.4-1.6,0.9-2.5,1.3c-1.2,0.6-4.4,0.9-8.6,0.9c-2.8,0-5.6-0.1-7.2-0.4c-3.4-0.5-12.1-1-12.2-1c0.1,0,8.8-3,13.2-4.6
		c2.3-0.8,4-2.7,4.8-5.1c0.5-1.5,0.4-3-0.2-3.9c-1.4-2.1-4.5-8.8-4.6-8.9c-0.1,0.1-4.1,6-5.7,9.6c-1,2.3-3.9,2.3-7,2.4
		c-1.7,0-3.6,0-5.2,0.5l-4.6,1.2c0.1,0,8.8-6.8,6.5-10.7c-1.6-2.8-4.6-4.7-7.3-4.7c-0.9,0-1.8,0.3-2.5,0.7l-0.2,0.1
		c-1.6,1.2-2.7,1.9-4,1.9c-0.7,0-1.4-0.2-2.3-0.7c-1.2-0.7-2.6-1.4-4.2-1.4c-1.4,0-2.8,0.6-4.1,1.7c-1.5,1.3-2.2,3.1-1.6,4.6
		c0.4,1.2,1.6,1.9,3.1,1.9c0.2,0,0.4,0,0.7,0c1.6-0.2,2.7-0.7,3.1-1.4c0.4-0.7,0.1-1.4,0.1-1.4c0,0-2.1,1.7-3.6,1.7
		c-0.8,0-1.4-0.5-1.6-1.4c-0.4-1.4-0.3-2.6,0.3-3.3c0.5-0.7,1.4-1,2.6-1c0.5,0,1,0.1,1.6,0.2c1.6,0.3,2.9,0.8,4.2,1.3
		c1.3,0.5,2.4,1,3.4,1c0.4,0,0.7-0.1,1-0.2c0.3-0.1,0.6-0.2,0.8-0.2c0.7,0,1.1,0.5,1.4,0.9c0.3,0.4,0.7,0.8,1.3,0.9
		c0.1,0,0.1,0,0.1,0c0.1,0,0.2,0,0.2-0.1c0.1-0.2-0.2-0.5-0.5-0.9c-0.5-0.7-1.2-1.6-0.7-2.1c0.3-0.3,0.9-0.4,1.7-0.4
		c1.4,0,3.3,0.5,4.2,1.6c0.5,0.6,0.7,1.3,0.6,2.1c-0.5,3.5-2,5.1-4.9,6.8c-2.8,1.7-4.6,1.6-6.3,1.6h-1.8c0.2,0,2.1-0.4,2.9-2.5
		c0.8-2.1-1.1-3.1-1.2-3.2c0,0,0.1,3.6-3.4,4.9c-0.9,0.3-1.9,0.6-2.8,0.9c-1.9,0.5-3.3,0.9-4.5,2.6c-1.8,2.4-3.7,2.6-3.7,2.6
		c0,0,1.6-3.1,0-4.9c-0.5-0.6-1.2-0.9-2.1-0.9c-1.1,0-2.2,0.6-2.2,0.6c0,0,3.3,1.7,2.1,4.6c-0.5,1.2-3.2,3.1-6.4,5.4
		c-4.7,3.3-10.5,7.4-11.2,10.8c-1.1,5.6-0.2,15.8,2.1,18c1.3,1.2,3.8,2,6.1,2c1.9,0,3.2-0.6,3.8-1.5c1.1-1.8,2.4-4.1,4.2-4.1
		c0.5,0,0.9,0.1,1.4,0.4c1.8,1,3.2,2.9,4.6,4.8c0.6,0.9,1.3,1.7,1.9,2.4c1.3,1.4,1.9,3.9,1.6,5.9c-0.2,1.1-0.6,1.8-1.3,2.1
		c-1.4,0.8-3.1,1.6-4.6,1.6c-1,0-1.8-0.4-2.4-1.1c-0.7-0.8-1.5-1.3-2.4-1.3c-1.3,0-2.5,1-3,2.4c-1.2,3.7-3.2,6-5.8,6.6
		c-1.1,0.3-1.8,1-2.1,2.2c-0.5,2,0.3,5.1,1.8,6.5c0.6,0.5,1.1,1,1.6,1.3c1.4,1,2.4,1.8,1.9,3.6c-0.7,2.7-3,6.7-6.4,6.7
		c-0.2,0-0.5,0-0.7-0.1c-1.9-0.3-3.9-1.7-6-3.1c-2.4-1.6-4.9-3.3-7.2-3.3h-1.3c-3.6,0-6.2,0.2-8.5,2.7c-2.2,2.4-4.3,3.7-8.5,3.7
		c-0.7,0-1.4,0-2.2-0.1c-5.7-0.5-7.7-1.9-9.3-3.3l-1.5-1.3c0.1,0.1,1.6,0.6,3,0.6c1.3,0,2.2-0.4,2.6-1.2c1.1-2.3-1-4.3-1-4.3
		c0,0,0.6,2-0.2,3.1c-0.4,0.5-1,0.7-1.8,0.7c-0.4,0-0.9-0.1-1.5-0.2c-4.9-1.3-6-2.6-6-2.7c0,0,0.8,0.2,1.8,0.2
		c0.9,0,2.1-0.1,2.7-0.8c0.2-0.3,0.3-0.6,0.3-1.1l-0.3-2.5c0,0-1.5,2.7-3.3,2.7c-1,0-1.8-0.7-2.7-2.2c-2.9-5.2-2.6-6.4-2.6-6.5
		c0,0,1-0.7,2-0.7c0.8,0,1.4,0.4,1.9,1.1c1.4,2.1,1.5,2.4,1.5,2.5c0,0,1.1-3-0.6-4.3c-0.7-0.5-1.9-0.7-3-1c-1.7-0.4-3.3-0.7-3.5-2
		c-0.5-2.1-0.1-3.5-0.1-3.5c0,0,6.2,2.2,7.5,4.5c1.3,2.3,1.3,4.3,1.3,4.3c0,0,1.8-1.3,1.6-3c-0.1-1.2-0.5-2.2-0.7-2.7
		c0.3,0.5,1.4,1.4,5.1,1.5c0.9,0,1.8,0,2.8,0c4.8,0,10.3,0,11.5,2.8c0.4,0.8,0.4,1.5,0.1,2c-0.7,1-2.5,1.1-3.1,1.1l-0.1,0
		c0,0,0.9,1.6,2,1.6c0.3,0,0.5-0.1,0.8-0.3c0.9-0.7,3.9-3.3,3.7-5.4c-0.1-0.8-0.6-1.5-1.6-2c-3.9-2.1-7.1-2.3-7.3-2.3
		c0.3,0,4.8-0.4,6.2-1.6c0.2-0.2,0.5-0.5,0.7-0.7c1.1-1.1,2.5-2.7,5.2-2.7c0.8,0,1.8,0.1,2.7,0.4c1.7,0.5,2.7,1.3,3,2.4
		c0.5,1.6-0.8,3.4-0.8,3.4c0,0,2.8-1.7,2.3-4.1c-0.5-2.4-3.5-4.3-3.6-4.3c0.1,0,1.9-0.4,4-0.4c2.4,0,5.5,0.5,6.5,3.1
		c1.8,4.6-3,6.7-3.1,6.8c0.3,0,4.6-0.3,4.7-4.5c0.1-2.9-0.8-5.5-2.4-7.2c-1.3-1.4-3.1-2.1-5.3-2.1c-3.4,0-6.5,1.1-9,2
		c-1.9,0.7-3.5,1.3-4.8,1.3c-1.1,0-1.9,0.1-2.1,0.1c-0.1-1.1-0.5-7,0.5-10.7c0.8-2.8,1.1-3.7,1.2-4c-0.3,0.5-2,3.2-4.3,3.5
		c-0.3,0-0.6,0.1-0.9,0.1c-0.5,0-1.1,0-1.7-0.1c-0.7,0-1.3-0.1-2-0.1c-2,0-4.5,0.3-4.8,2.6c-0.6,3.3-0.5,5,0.2,5.8
		c0.3,0.3,0.7,0.5,1.2,0.5c1.9,0,2.9-0.7,2.9-0.7c0,0-2.4-0.5-2.9-1.9c-0.2-0.6,0-1.3,0.6-2c0.9-1.1,1.8-1.5,2.8-1.5
		c0.4,0,0.9,0.1,1.3,0.1c0.4,0.1,0.8,0.1,1.2,0.1c0.2,0,0.5,0,0.7-0.1l2-0.5c0,0-1,1.1-2.1,2.1c-1.1,1-2.7,1.5-2.7,1.5
		c0.1,0,1.2-0.3,2.4-0.3c1.5,0,2.3,0.4,2.4,1.3c0.3,1.8,0.7,7.9-5.2,9.8c-4,1.3-6.5,1.4-7.6,1.4c-1.1,0-1.9-0.2-2.1-0.5l-0.5-0.6h0
		c0.3,0,2.9-0.2,4.7-3.2c1.9-3.1-0.6-5.4-0.7-5.4c0,0.1-0.2,5.8-3.6,5.8c-0.6,0-1.2,0-1.8,0s-1.1,0-1.7,0c-2.2,0-4.3-0.1-5.3-1
		c-1.4-1.3-1.6-2.1-1.6-2.1c0,0,0.9,0.2,1.8,0.2c1,0,2.2-0.2,2.4-1.4c0.5-2.1,0-2.8,0-2.8c0,0-2.1,2.3-3.9,2.3
		c-0.6,0-1.2-0.3-1.6-0.8c-1.9-2.4-3.2-8.2-3.2-8.2c0,0,1.5,0.4,3.2,0.4c2,0,3.4-0.5,4.2-1.6c2.1-2.6,2-4,2-4
		c-0.1,0-3.7,2.9-6.3,2.9c-1.3,0-2.1-0.7-2.5-2.1c-1.2-4.9-0.6-9.7,0.8-10.9c2.9-2.3,7.4-4.2,10.7-4.3c0.6-3.3-19.9-4.1,10.7-10.5
		l11.8-14.2c0-1.5-4.5-4.9-6.5-5.9c-2.1-1-8.7-2.2-13.7-2.2c-0.3,0-0.6,0-0.9,0c-2.9,0.1-6.4,2.5-9.8,4.8c-2.9,2-5.6,3.8-7.9,4.3
		c-2.2,0.5-4.2,0.7-5.9,0.7c-2.5,0-4.2-0.5-4.8-1.5c-1.1-1.8-1-4.7-1-4.8c0,0-1.3,3.6-0.8,5.4c0.5,1.9,3.3,3.7,4.9,3.8
		c1.6,0.2,5.1,0.5,5.1,0.5c-0.1,0-4.8,3.6-6.5,5.8c-0.5,0.6-1,1.3-1.5,2.1c-1.3,1.9-2.7,3.9-4.3,4.2c-0.5,0.1-1.1,0.1-1.6,0.1
		c-1.5,0-2.6-0.2-2.6-0.2c0,0,2,2,3.4,2.3c0.3,0.1,0.6,0.1,0.9,0.1c1.2,0,2.3-0.4,2.4-0.4c-0.1,0.1-3.8,8.5-4.7,12.9
		c-1.1,4.9-2.1,7.5-3.3,8.8c-1.3,1.3-2.6,2.1-2.6,2.1c0,0,1.4,0.7,2.6,0.7c0.4,0,0.6-0.1,0.9-0.2c1.1-0.7,1.3-0.8,1.3-0.8
		c0,0.1-1.8,10.3-1.8,12.4c0,2.1-3.4,5.3-3.4,5.3h0.2c0.8,0,3.4,0.1,3.4,1.8c-0.8,5.1-2.7,9.5-5.1,13.9c-2.4-4.4-4.2-8.8-5.1-13.9
		c0-1.7,2.6-1.8,3.4-1.8h0.2c0,0-3.4-3.2-3.4-5.3c0-2.1-1.8-12.3-1.8-12.4c0,0,0.2,0.2,1.3,0.8c0.2,0.1,0.5,0.2,0.9,0.2
		c1.1,0,2.5-0.7,2.6-0.7c0,0-1.3-0.8-2.6-2.1c-1.2-1.2-2.2-3.9-3.3-8.8c-1-4.4-4.7-12.8-4.7-12.9c0,0,1.2,0.4,2.4,0.4
		c0.3,0,0.6,0,0.9-0.1c1.5-0.3,3.4-2.3,3.4-2.3c0,0-1.1,0.2-2.6,0.2c-0.6,0-1.1,0-1.6-0.1c-1.6-0.2-3-2.2-4.3-4.2
		c-0.5-0.8-1-1.5-1.5-2.1c-1.8-2.1-6.5-5.7-6.5-5.8c0,0,3.4-0.3,5.1-0.5c1.6-0.2,4.4-1.9,4.9-3.8c0.5-1.8-0.8-5.4-0.8-5.4
		c0,0,0.1,3-1,4.8c-0.6,1-2.3,1.5-4.8,1.5c-1.7,0-3.7-0.3-5.9-0.7c-2.4-0.5-5.1-2.4-7.9-4.3c-3.4-2.3-6.8-4.7-9.8-4.8
		C212.9,100,212.6,100,212.3,100L212.3,100z M319.1,148.3l0.1-0.1C319.1,148.1,319.1,148.2,319.1,148.3L319.1,148.3z M426.5,344.4
		c0.3-0.3,0.6-0.6,0.8-0.9C427.3,343.6,427,343.9,426.5,344.4z M85.5,344.4c-0.5-0.5-0.8-0.9-0.8-0.9
		C84.7,343.6,84.9,344,85.5,344.4z M192.9,148.3L192.9,148.3c0-0.1-0.1-0.1-0.1-0.1L192.9,148.3z"/>
	<path id="path5604" class="st5" d="M307.8,115.4c-2.1,1.3-6-1.1-5.9-2.1c0.2-1,0.6-3.8,4.4-4.2c3.9-0.4,4.5,1.2,4.5,1.2
		C311,111.8,309.9,114,307.8,115.4L307.8,115.4z M203.4,114.9c2,1.3,6-1.1,5.8-2c-0.2-1-0.6-3.7-4.4-4.1c-3.8-0.4-4.5,1.2-4.5,1.2
		C200.2,111.5,201.3,113.6,203.4,114.9z"/>
	<path id="path5606" d="M309.9,111.8c0,0.9-1.9,2.6-3,2.8c-1.1,0.2-1.4-1.1-0.6-2.5c0.8-1.4,2.2-1.2,2.2-1.2
		C308.5,110.9,309.9,110.9,309.9,111.8L309.9,111.8z M201.3,111.4c0,0.8,1.9,2.5,3,2.7c1.1,0.2,1.4-1,0.6-2.4
		c-0.8-1.4-2.2-1.2-2.2-1.2C202.6,110.5,201.3,110.6,201.3,111.4z"/>
	<path id="path5608" class="st6" d="M250.9,341.8L250.9,341.8c0-0.1,3.6-8.8,2.2-17.7c-1.4-9.1-7-25-11.2-29.7
		c-4.2-4.7-5.9-10.1-5.9-10.1c0.1,0.1,7.1,7.6,10.1,9.8c3.1,2.3,11.5,15.1,11.8,30.3c0.2,9.1-2.3,13.6-4.5,15.8
		C252.2,341.4,251.2,341.8,250.9,341.8L250.9,341.8L250.9,341.8z M125,335L125,335c0-0.1-0.4-9.7,1.6-20.7c2-11,14.6-46.5,14.7-46.8
		c0,0.3,2.3,26.7-3.6,39.3c-2.7,5.7-5.4,12.1-7.6,17.2C127.4,330.4,125.5,335,125,335L125,335L125,335z M189.5,328.5
		c0-0.1-2.9-5.4,0.7-15.6c3.3-9.5,14.7-18.8,21.2-23.5c4.5-3.3,14.2-15.1,14.3-15.2c-0.1,0.3-16.7,32.8-22.8,36.4
		C197.1,314.1,190.5,320.5,189.5,328.5L189.5,328.5L189.5,328.5z M323.9,324.2c-0.1,0-5.9-2.1-9.1-11.9c-1.2-3.7-1.7-6.9-2.1-10.1
		c-0.7-5.3-1.4-10.4-5.7-17.4c-6.8-11.1-20.7-24.7-20.8-24.8c0.3,0.1,27.1,14.1,31.9,30.4C322.8,306.7,324.1,323.9,323.9,324.2
		L323.9,324.2L323.9,324.2z M267.4,311.7c-6.4-12.5-8.6-20.3-3.1-28.6c4.3-6.4,12.1-7.1,15.3-7.1c2.7,0,5.4,0.5,7.1,1.2
		c2.5,1.1,5.6,9.2,5.6,9.3c0,0-1.8-2.5-8.2-4.5c-1.5-0.5-2.9-0.7-4.3-0.7c-5,0-8.8,2.9-10.5,8C267.1,296.3,267.5,311.6,267.4,311.7
		L267.4,311.7z M189.9,296.5l0-0.1c0-1.8,3.1-14.3,8.5-18.9c1.3-1.1,2.5-2,3.6-3c3.8-3.1,7.1-5.8,10.4-9.6c4.2-4.9,8.1-22,8.1-22.2
		c0.1,0.1,6.5,11.7,3.3,20.5c-2.9,8-13.5,15.4-21.2,20.7c-0.9,0.6-1.7,1.2-2.5,1.8c-5.3,3.7-8.1,8-9.4,9.8
		C190.2,296.2,190,296.5,189.9,296.5L189.9,296.5z M260.4,272.4c-0.1-0.1-6.2-5.4-6.5-9c-0.3-3.6,4.2-8.1,4.2-8.1l0.6,0.8
		c1.4,1.8,4.8,6.2,5,8.7C264.1,267.9,260.5,272.4,260.4,272.4L260.4,272.4L260.4,272.4z M247.5,269.4c-1.9,0-3.7-0.1-5.6-0.3
		c-3-0.3-3.6-1.3-4.7-3.2l-0.1-0.2c-1.1-1.9,0-6.1,0-6.2c0.1,0.2,1,0.5,2.1,0.8c2.1,0.7,5.3,1.7,6.4,3.1
		C247.2,265.7,247.5,269.3,247.5,269.4L247.5,269.4L247.5,269.4L247.5,269.4z M249.8,257.3c0,0-4.5-4.8-4.8-8.4
		c-0.3-3.6,3.9-6.2,3.9-6.2h0c0.8,0,5.1,3.1,5.1,7.3C254,254.2,249.8,257.3,249.8,257.3L249.8,257.3L249.8,257.3z M264.1,255.6
		c0-0.1,0-7.3,1.4-10.4c1.4-3.1,4.2-4.8,4.2-4.8l1.4,0.3c0,0.1,1.4,9.6,0.6,11C270.8,253.1,264.2,255.6,264.1,255.6L264.1,255.6
		L264.1,255.6z M238.8,255.3c-0.1,0-9.3-2.8-9.8-4.8c-0.6-1.9,1.1-7.5,1.1-7.6c0.3,0.1,1,0.3,1.8,0.6c2.1,0.6,5.4,1.6,6.4,3.1
		C239.7,248.6,238.8,255.3,238.8,255.3L238.8,255.3L238.8,255.3z M281.5,240.2c0,0-2.2-3.4-2-8.1c0.3-4.7,5.8-8.4,5.9-8.4
		c0.1,0,0.1,0,0.2,0c0.5,0,1.3,0.6,2.2,1.6c1.3,1.5,2.7,4.1,2.4,6.3C289.6,235.1,281.6,240.1,281.5,240.2L281.5,240.2L281.5,240.2z
		 M260.3,238.7c-1.7,0-3.7-1.1-5.1-2.8c-1.8-2.3-2.4-5.4-1.6-8.4c2-7.9,4.7-8.7,4.8-8.7c5.9,6.2,7,10.8,6.9,13.6
		c-0.1,2.2-1,4.1-2.5,5.5C262.1,238.4,261.2,238.7,260.3,238.7C260.3,238.7,260.3,238.7,260.3,238.7L260.3,238.7z M230.9,237.9
		c-0.2,0-1-0.2-3-2c-2.4-2.2-5.1-5.8-4.5-9c0.6-3.1,6.4-5.6,6.5-5.6C234,227.5,231,237.8,230.9,237.9L230.9,237.9z M242,234.8
		c-2.8,0-6-2.4-6.7-6.9c-1.2-7.9,3.9-10.7,4-10.7h0c0.2,0,0.7,0.4,1.3,1.1c2.1,2.5,6,8.3,5.4,12.8
		C245.8,233.4,244.2,234.8,242,234.8L242,234.8z M216.1,232c-3-0.5-6.7-4.1-6.7-7.3c0-3.1,3.3-7,3.4-7c0.2,0.2,0.7,0.5,1.4,0.9
		c1.7,1,4.4,2.8,5.6,4.4c1.7,2.2-0.5,9.5-0.6,9.6l0,0L216.1,232z M275.6,232c-0.1-0.1-7.6-6.2-7.3-10.4c0.3-4.2,1.1-7,1.1-7
		c1,0.3,7.9,4.2,8.7,7C279,224.4,275.6,232,275.6,232L275.6,232L275.6,232z"/>
	<path id="path5610" class="st7" d="M256.2,453.2c0-0.2,1.7-15.6,1.4-26.7c-0.2-5.7,1.2-15.3,1.4-24.5c0.2-9.1,0.3-17.8,0.2-22.5
		c-0.3-9.5-1.6-26.6-1.6-26.8c0.1,0.2,4.6,20.8,3.6,43c-0.5,11.9-1.6,22.2-1.5,30.5c0.2,7.3,1.6,13.1,1.1,16.8
		c-0.4,3.3-1.5,7.8-4.4,10.1C256.3,453.1,256.2,453.2,256.2,453.2L256.2,453.2z M287.1,432c-0.2-0.1-15.7-8-18.2-14.6
		c-2.6-6.5-7.1-16.1-7.2-16.2c0.1,0.1,12.1,14.9,18.6,16.8c3.9,1.2,7.2,1.4,9.3,1.4c1.3,0,2.1-0.1,2.1-0.1l-2.3,3l10.1,2.6l0,0
		c-0.7,0-12.5-0.4-17.9-3.3c-5.5-2.9-8.8-5.6-8.8-5.6c0.1,0.1,5,8.3,10.1,9.9c5.1,1.6,11.3,2,11.4,2l-6.5,2L287.1,432L287.1,432z
		 M229.8,432c0,0,3.6-3,7.8-6.3c1.7-1.3,3.7-3.6,6.1-6.9l-0.3,0.3c-3,3.4-12.9,8.3-18.9,8.6c-6.1,0.3-13.3,3.3-13.3,3.3
		c0-0.1,3-4.3,10.1-6c7.1-1.6,9.4-3.9,9.4-4l-6.5-3h0c0.1,0,3,0.8,6.7,0.8c3.6,0,8.6-0.8,11.9-4.4c6.1-6.9,13.6-27.6,13.7-27.8
		c0,0,1,4.4,0.3,11.6c-0.6,7.2-3.5,17.1-3.6,17.2l1.3-16.5c0,0.2-6.2,21.9-11.7,27.1C237.4,431.3,229.9,432,229.8,432L229.8,432z
		 M247.4,413.5c-0.1,0.2-1.5,2.4-3.3,4.9C246.4,415.7,247.3,413.7,247.4,413.5z M214.2,410.9c0-0.3,0-0.5-0.1-0.8
		c-0.2-1.2-0.5-2.9,2.4-4.8c2.8-1.8,7-2,8.7-2c0.5,0,0.8,0,0.8,0C225.8,403.3,215.5,406.9,214.2,410.9L214.2,410.9z M188.8,410.2
		c5.1-2.9,4.6-5.3,4.6-5.3c0.1,0,3.7,0.9,4,2.1c0.1,0.3-0.1,0.6-0.4,0.9C195.1,409.5,188.9,410.2,188.8,410.2L188.8,410.2z
		 M305.5,404.2c-6.6,0-13.2-1-19.6-2.9c-18.4-5.5-22.3-26.5-22.5-27.4c0.3,1.1,3.9,10.9,11.1,18.5c8.2,8.7,30.4,8.9,32.9,8.9
		c6.1,0,11.7,1.3,11.7,1.3C319,402.6,313.7,404.2,305.5,404.2L305.5,404.2z M224.6,401.9c0.1-0.1,11.7-5.3,14.6-7.6
		c2.8-2.2,9.4-12.4,9.7-12.9c-0.2,0.2-2.1,2.5-5.8,5.3c-3.9,2.9-15.2,5.9-15.3,6c0.1-0.1,12.7-7,17.9-12.3
		c5.1-5.2,10.4-17.4,10.4-17.5l-1.6,25.8l-0.3-12.9c0,0-3.3,4.4-7.5,13.6C242.6,398.5,224.8,401.9,224.6,401.9L224.6,401.9z
		 M217.5,400.5c-2.3,0-3.9-1-4.1-2.6c-0.2-1.6,1-3.7,3.6-4.5c2.7,0.6,5.5,1,8.3,1c9.7,0,16.2-4,16.3-4c-0.1,0.1-12.5,9.6-21.8,9.9
		C219,400.5,218.2,400.5,217.5,400.5C217.5,400.5,217.5,400.5,217.5,400.5L217.5,400.5z M291.1,395.7c-1.4,0-2.5-0.1-3.3-0.4
		l-0.3-0.1c-4.9-1.7-15.1-5.1-20.6-18.4c0.1,0.1,7.3,10.3,14,12.2c1.3,0.4,2.6,0.5,3.9,0.5c1.9,0,3.5-0.4,4.8-0.7
		c0.8-0.2,1.4-0.3,1.9-0.3c0.3,0,0.6,0.1,0.7,0.2c0.2,0.2,0.2,0.5,0.2,0.9c-0.1,0.7-0.6,1.3-1.4,1.7c2.8-0.4,6.4-1,8.3-2.1
		c0.5-0.3,1-0.4,1.3-0.4c0.3,0,0.5,0.1,0.6,0.3c0.6,0.9-0.3,3.4-0.3,3.5l6.8,0.3C307.5,393,297.3,395.7,291.1,395.7L291.1,395.7z
		 M285.2,392c0.2,0,0.7,0,1.5,0c1.2,0,2.8-0.1,4-0.6C288.9,391.7,287.1,391.9,285.2,392L285.2,392z M248.1,372.5c0,0-1-3.4,0.3-7.3
		c1.3-3.9,4.2-7.6,4.2-7.6L248.1,372.5L248.1,372.5z M272.8,372.5c-0.1,0-7.8-4.7-8.5-8.9c-0.6-4.3-0.7-14.8-0.7-14.9
		C264.4,356.2,272.7,372.3,272.8,372.5L272.8,372.5L272.8,372.5z M299.9,354.6c-4.3,0-10.3-0.6-15.1-3.3c-8-4.6-14.3-10.9-14.3-10.9
		c0.2,0.1,17.9,12.9,24.5,12.9c0.1,0,0.2,0,0.2,0c2.4-0.1,3.8-0.6,4.1-1.5c0.3-0.9-0.6-1.8-0.6-1.8l4.4-0.3c0.6-1.3,1.8-2.3,1.8-2.3
		l-1.3,2.3l-0.5,0c-0.6,1.3-0.8,3.2,1.8,4.6C305,354.3,302.9,354.6,299.9,354.6L299.9,354.6z M212.6,351.1L212.6,351.1
		c0-0.1,0.7-0.6,2-1.2c1.4-1,3-2,4.8-2.9c0.9-0.7,2-1.2,3.2-1.4c1.3-0.5,2.5-0.7,3.6-0.8c4.7-0.3,9.3-1.7,11.1-2.3
		c-3.5,2.8-6.7,3-10.8,3l-2.3,0c-0.6,0-1.1,0-1.6,0.1l0,0c-1.1,0.4-2.2,0.9-3.2,1.4l0,0c-0.5,0.4-1,1-1.3,1.5c2-0.6,4.1-1,6.2-1.1
		c6.8-0.3,13.4-4.9,14-5.3c-0.3,0.1-0.6,0.2-0.9,0.3c0.8-0.7,1.6-1.4,2.4-2.2c5.1-5.5,5.5-10.3,5.6-10.3c0,0.1-0.1,12-7.1,17.9
		c-2.4,2-3.7,2.4-4.8,2.4c-0.7,0-1.3-0.2-2.1-0.3c-1.1-0.3-2.5-0.6-4.5-0.6c-2.6,0-5.8,0.5-9.6,1.7l0,0l0,0c0,0,0.2-1.2,1-2.4
		c-1.2,0.4-2.3,0.8-3.4,1.4l0,0l-0.3,0.2C213.4,350.6,212.8,351,212.6,351.1L212.6,351.1L212.6,351.1z M416.6,343.6
		c-2.1,1-12.5-12.7-26.3-36.6c-13.8-23.9-21.7-80.8-21.8-81.4c0.2-0.1,0.4-0.3,0.6-0.6c0.3-0.4,0.6-0.8,1-0.8
		c1.2,0,3.5,3.6,9.2,34.8c8,44.1,36.5,84.5,36.8,84.8L416.6,343.6z M109.8,334c0,0,2.1-2,7.8-13.6c3.5-7.1,6.3-17.1,9.9-29.8
		c2.3-8,4.8-17.1,8-26.8c8-24.5,11.5-27.8,11.5-27.8c0.3,0.2,0.1,0.7-0.9,3.5c-1.7,4.8-5.8,16.2-14,43.5
		C119.4,325.6,109.9,334,109.8,334L109.8,334z M282.1,321.1c-0.7,0-1.1-0.2-1.1-0.2c1.5-1.2,2-3.1,2.5-4.9c0.7-2.3,1.3-4.5,3.6-5.4
		c0.8-0.3,1.6-0.4,2.4-0.4c3.4,0,6.4,2.4,6.4,2.4c-0.1,0-5.9,0.4-8.8,5C285.3,320.5,283.4,321.1,282.1,321.1z M426.4,300.7
		c-0.2-0.1-22.9-15.4-36.8-55.6c-10.1-29.3-10.6-36.6-10-38.4l-0.1-0.3c0.2,0.1,0.2,0.1,0.1,0.3l0,0l0,0
		c2.5,6.6,23.8,63.5,33.7,75.1C423.7,294,426.4,300.7,426.4,300.7L426.4,300.7L426.4,300.7z M439.8,297.4c0.7-0.3-1.7,0-6.8-1.3
		c-4.6-1.2-16-21.8-26-39.9c-1.5-2.6-2.9-5.2-4.3-7.7c-10.9-19.6-16.5-47.4-16.6-47.6C410.8,261,439.5,297.1,439.8,297.4l-1.2,0.6
		L439.8,297.4z M354.5,293.5c-0.1-0.2-9.1-18-10.7-34.1c-1.6-16,0.3-29.3,0.3-29.4C344.1,230.4,346.8,275.8,354.5,293.5L354.5,293.5
		z M82.1,292.3c-0.1,0-0.1,0-0.2-0.1c0.2-0.3,19.9-29.4,27.6-45.8c8.7-18.5,13.9-28.3,17.5-32.7c3.3-4.1,8.4-4.5,9.9-4.5
		c0.3,0,0.5,0,0.5,0c-0.1,0.1-7.4,6.3-26.9,41.4C91.4,284.9,83.1,292.3,82.1,292.3z M164.9,286.7c0-0.1,0-0.3,0-0.5
		c0-0.2,0.1-0.5,0-0.6c0.8-1.3,5.3-12.5,5.5-18.9c0.1-2.9-0.2-7.1-0.4-11.2c-0.3-5.1-0.6-10-0.3-12.4c0.7-4.4,3-9.5,3-9.6
		c0,0.1-1.4,13.6-1.1,17.5c0.3,5.1,0.5,25.3-3.7,31.6C165.6,286.2,165.1,286.7,164.9,286.7L164.9,286.7z M338.5,237.9
		c-0.1,0-9.2-0.1-13-7c-3-5.3-1.4-13.1-0.5-16.3c-1.3,2.7-4,7.5-7.3,9.9c-2.5,1.7-5.2,2.1-7,2.1c-2,0-3.4-0.4-3.4-0.4
		c0,0,1.1-2.8,3.1-4.5c1.1-0.9,5.5-3.4,9.5-5.5c2.5-1.4,4.7-2.6,5.6-3.1l0.1-0.2l0,0.2c0.1-0.1,0.2-0.2,0.3-0.2v0
		c0,0.1-0.1,0.3-0.2,0.6l0,0c0.1,1.8,0.5,7.8,2.9,12c2.9,4.9,9,7.6,9.1,7.6c0,0,0.7-0.4,2.3-5.3c1.6-4.9-2.2-16.1-2.3-16.2h0
		c0.3,0,1.1,0.6,2,1.6c1.4,1.5,4.7,5.6,4.5,11C343.8,231.2,338.6,237.8,338.5,237.9L338.5,237.9L338.5,237.9L338.5,237.9z
		 M325.4,213c-0.1,0.3-0.2,0.8-0.4,1.4c0.2-0.4,0.4-0.8,0.5-1L325.4,213L325.4,213z M137.8,230.2c0-0.1,3.8-9.9,10.8-17.8
		c6.4-7.1,9.8-7.5,10.5-7.5c0.1,0,0.1,0,0.1,0c-4.9,2.8-6.9,7-9.3,11.9c-0.6,1.3-1.3,2.6-2,4C144.6,227.3,137.9,230.2,137.8,230.2
		L137.8,230.2L137.8,230.2z M198.8,229.9c-0.1,0-8-1.7-8.8-8.3c-0.8-6.6,0.8-13.7,0.8-13.8C196.2,217.1,198.8,229.8,198.8,229.9
		L198.8,229.9L198.8,229.9z M335.9,229.6c-0.1-0.2-0.3-0.4-0.5-0.7c-1.5-1.9-4.7-5.7-4.7-10.9c0-5.9,1.3-13.8,1.3-13.9
		C332.1,204.3,337.9,217.2,335.9,229.6L335.9,229.6L335.9,229.6z M447.8,229.1c-1.7,0-6.4-1-18.1-7.4c-16.1-8.8-30.8-40.4-30.9-40.7
		h0c0.6,0,3.1,3.1,16.6,20.8c14.2,18.6,33,27,33.2,27.1C448.5,229,448.3,229.1,447.8,229.1L447.8,229.1z M75.5,228.8
		c1.9-3.7,5.8-7.8,9.9-12.2c3.7-4,7.6-8,10.3-12.2c5.7-8.6,19.9-27.4,20-27.6c-0.1,0.2-8.3,17.7-14.9,26.7
		C94.2,212.6,75.7,228.7,75.5,228.8L75.5,228.8z M359.4,224.7c-0.1-0.1-5.9-5.3-7.8-7.6c-1.9-2.3-2-9.5-2-9.6c0,0.3,0.3,0.4,0.8,0.5
		c0.9,0.2,2.5,0.6,4.8,3.1C358.7,215,359.4,224.6,359.4,224.7L359.4,224.7L359.4,224.7z M171.9,223.4c0-0.1-3.6-5.2,0.2-10.5
		c3.9-5.3,9.8-13.9,9.9-14c0,0.1-0.2,6.8-3.2,11.9c-1.4,2.4-2.9,5.3-4.1,7.7C173.2,221.4,172.2,223.4,171.9,223.4L171.9,223.4z
		 M227.4,220.7c0-0.1,0.4-8-2-9.9c-0.2-0.2-0.4-0.2-0.5-0.2c-0.8,0-1.2,2-1.6,3.9c-0.4,2-0.9,4-1.7,4c-0.2,0-0.3-0.1-0.4-0.2
		c-1.7-1.1-2-4.1-2.2-5.8c-0.1-0.7-0.1-1.2-0.2-1.3c0-0.1,2.4-7.6,3.6-9.5c0.2-0.3,0.4-0.4,0.7-0.4c1.3,0,3.7,2.6,5.6,4.7
		c0.5,0.6,1.1,1.2,1.6,1.7C232.6,210,227.5,220.6,227.4,220.7L227.4,220.7z M354.2,204.5c0.1,0,8.8,1.4,8.8,7.6
		c0,6.2-2.6,7.9-2.6,7.9l0,0L354.2,204.5z M288.9,219.9c-0.1-0.1-7.9-9.2-5.6-14.7c0,0,0.9-2.6,3.6-2.6c0.5,0,1,0.1,1.5,0.2
		c1.9,0.6,3,2.1,3.5,3.4c1.2,2.5,1.4,5.8,0.4,8.2C291,218.3,289,219.9,288.9,219.9L288.9,219.9L288.9,219.9z M205.6,213.6
		c0,0-1.8-1.5-1.8-4.2c0-3.2,2.2-6.7,6.6-10.5L205.6,213.6L205.6,213.6z M256.3,212.9c-0.1,0-0.2,0-0.3-0.1c0-0.1,2.4-4.8,2.8-9.1
		c0.4-4.3-0.4-8.3-0.4-8.3c0.1,0,5.6,4,6,7.9c0.2,2.1-1.7,4.5-2.9,5.8C259.6,211.1,257.2,212.9,256.3,212.9
		C256.3,212.9,256.3,212.9,256.3,212.9z M246.5,211.2c-0.1-0.1-6.7-10-6.4-14.3c0.4-4.3,3.9-5.6,4-5.6c0.2,0.2,0.4,0.5,0.6,0.8
		c1,1.2,2.8,3.2,3.8,8.4C249.7,206.8,246.5,211.2,246.5,211.2L246.5,211.2L246.5,211.2z M213.9,195.7c0.1,0,0.1,0,0.2,0
		c0.6,0,2.8,0.1,3.8,1.6c0.7,1,0.7,2.5,0,4.4c-2.4,6.3-8.7,9.1-8.7,9.1l0,0L213.9,195.7z M272.7,210.3c-2.6,0-4.5-2.2-4.8-5.5
		c-0.4-5.1,4.7-10.7,4.8-10.7c-1.2,4.7,1.2,11.4,1.2,11.5l3.2-8.3c0.1,0.1,3.9,6.4,0,10.7C275.7,209.5,274.2,210.3,272.7,210.3
		L272.7,210.3z M253.6,208.8c0,0-1.2-4.8-1.2-8.3c0-3.5,3.2-4.8,3.2-4.8C257.2,200.4,253.7,208.7,253.6,208.8L253.6,208.8
		L253.6,208.8z M151.1,208.1c-0.1-0.1-6.2-5.4-5.9-12.9c0.3-7.5,9.7-7.9,9.8-7.9c0,0,0.1,0,0.1,0.1c0.2,0.5,0,2.4-1.7,3.9
		c-1.2,1-2.1,3.6-2.5,4.7c0.9-1,3-2.5,4.6-2.5c0.8,0,1.4,0.4,1.7,1.1c1.3,2.9,3.2,4.6,3.3,4.6c0,0-0.7,1.7-4.2,3.3
		C152.8,204.1,151.1,208.1,151.1,208.1L151.1,208.1L151.1,208.1z M150.9,196c-0.3,0.3-0.4,0.6-0.4,0.8c0,0.2,0,0.2,0,0.2
		c0,0,0.2-0.4,0.3-0.9L150.9,196z M371.1,194.9c0,0,2.6-2,5.6-2c1.4,0,2.7,0.4,3.8,1.3c4.2,3.3,2.6,9.2,2.6,9.3l0,0L371.1,194.9z
		 M231,203.3c0,0-2.7-0.9-3.4-3c-0.4-1.3,0.1-2.9,1.4-4.6c4.3-5.5,2.4-9.9,2.4-9.9C236.5,193.6,231.1,203.2,231,203.3L231,203.3
		L231,203.3z M299.7,202.9c-0.1,0-13.5-4.4-13.5-7.6c0-3.1,2.4-6.3,2.4-6.4C300.3,192.9,299.7,202.8,299.7,202.9L299.7,202.9
		L299.7,202.9z M368.5,192.2c-1-5.2-8.1-19.7-8.1-19.8h0.2c3.6,0,5.5,0.4,5.8,1.1c0.2,0.6-0.5,1.2-1.1,1.8c-0.3,0.3-0.5,0.5-0.7,0.7
		c-0.1,0.2-0.1,0.3-0.1,0.4c0.2,0.4,1.3,0.6,3.1,0.6c1.5,0,3.1-0.2,4.5-0.4c0.1,0,0.2,0,0.3,0c1.6,0,2.7,3.1,2.7,6
		c0,1.8-0.5,3.7-1.7,3.7c-0.1,0-0.2,0-0.3,0c-0.1,0-0.2,0-0.3,0c-3,0-3.3,11.1-3.3,11.3l0,0L368.5,192.2z M263.5,196.5
		c0,0-1.2-3.2-2.4-8.3c-1.2-5.1,3.9-7.5,4-7.6c0.1,0,0.1,0,0.2,0c1,0,3.8,2.4,4.6,7.2C270.7,192.9,263.6,196.5,263.5,196.5
		L263.5,196.5L263.5,196.5z M280,194.2L280,194.2c-0.1-0.1-5.2-11-3.3-14.9c0.6-1.3,1.7-2,2.9-2c2.2,0,4.5,2,4.9,4.3
		C285.2,185.1,280.5,193.7,280,194.2L280,194.2L280,194.2z M221.9,193.1c-0.1,0-0.2,0-0.3,0L220,193c-2.7-0.2-4.4-0.2-4.4-0.9
		c0.1-0.1,5.3-5.9,6.9-10.3c1.6-4.4,0.9-5.8,0.9-5.8c0.1,0,4.4,5.6,3.9,9.6C227,188.4,225.9,193.1,221.9,193.1L221.9,193.1z
		 M255.6,192.3c-0.1-0.1-9.2-5.4-9.7-8c-0.5-2.5,2.3-7.2,2.3-7.3c0.2,0.2,0.9,1.1,1.8,2.2c1.8,2.3,4.3,5.4,5.3,6.4
		C257,187.4,255.7,192.3,255.6,192.3L255.6,192.3L255.6,192.3z M239.1,191.4c0-0.1-4.8-8.2-5.1-12.2c-0.2-3.9,3.2-8.6,3.2-8.7
		c0.7,0.5,6.2,10.5,6,13.3C243,186.7,239.1,191.4,239.1,191.4L239.1,191.4L239.1,191.4z M229.2,185.6c0,0,0.2-3.5-1.6-6.8
		c-0.3-0.6-0.7-1.2-1.1-1.8c-1.1-1.8-1.7-2.7-1.7-6.2c0-2.2,0.7-4.7,1.3-6.7c0.4-1.4,0.7-2.5,0.6-3.1c-0.1-0.1-0.2-0.2-0.3-0.3
		c0.2,0,0.2,0.1,0.3,0.3l0,0c0.9,1.2,3.9,5.3,3.9,9C230.6,174.5,229.2,185.4,229.2,185.6L229.2,185.6z M115.8,184.1
		c0,0,2.3-4.4,3.7-7c0.5-0.9,0.9-2.2,1.4-3.6c0.6-1.8,1.2-3.6,2-4.8c-1.9,1.3-3,2.2-3.4,2.6c-0.9,0.9-1.8,1.2-1.8,1.2
		c0,0-1.4-4.2,0.4-6.6c1.8-2.3,7.3-5.6,7.4-5.6c0,0,0.3-0.6,0-1c-0.2-0.3-0.6-0.5-1.2-0.5c-0.2,0-0.5,0-0.9,0.1
		c-3,0.5-10.3,7.2-10.3,7.2c0-0.1-0.5-4.5,1.8-7.5c2.3-3,8-8.8,8.1-8.9c0.1,0,0.2-0.1,0.2-0.2c0,0-0.1-0.1-1-0.1c-0.4,0-1,0-1.8,0.1
		c-1.7,0.1-4.4,2.9-8.2,6.7c-4.9,5-11.7,11.8-19.6,16c-13.6,7.2-17,8.2-17,8.2c0.2-0.2,24.2-14.4,31.3-21.8
		c4.8-5.1,9.5-9.4,12.6-12.4c1.5-1.4,2.7-2.6,3.5-3.3c2.3-2.3,7.5-5.6,7.6-5.6c-0.1,0.1-11.6,3.1-18.9,5.9
		c-6.3,2.4-12.1,3.2-13.9,3.2c-0.3,0-0.8,0-0.8-0.1c0.1-0.1,12.5-3.8,22.1-7.5c8.4-3.2,13.6-5,17.5-5c0.5,0,0.9,0,1.4,0.1l3.9,0.5
		c0,0-6.2,2.6-10.1,4.2c-3.9,1.6-8,7.4-8,7.5c0,0,1.4,1.6,5.5,3c4.1,1.4,7.6,1.4,7.6,1.4c0,0.1-4.4,3.5-6.7,3.8
		c-2.3,0.2-3,0.2-3,0.2c0,0,0.3,1.6,1.2,3.3c0.9,1.6,3,2.3,3,2.3c0,0-1.4,3.1-2.1,4.9c-0.7,1.8-4.1,8.6-4.1,8.7c0,0,2.7,1.1,5.8,1.1
		c1.1,0,2.1-0.1,3-0.4c4.1-1.2,8-5.1,8-5.1c0,0.1-1.4,8-4.6,11.2c-1.4,1.5-3.3,2.1-5.8,2.1c-1.2,0-2.5-0.2-3.5-0.3
		c-0.6-0.1-1.2-0.2-1.7-0.2c-0.1,0-0.3,0-0.5,0C122.5,182,115.8,184.1,115.8,184.1L115.8,184.1z M123.8,167.8
		c-0.3,0.2-0.6,0.5-0.9,0.9c1-0.7,2-1.4,3-2L123.8,167.8z M385.4,181.3c0,0-4.6-2.3-7.8-4.3c-0.5-0.3-0.9-0.5-1.2-0.5
		c-0.2,0-0.4,0.1-0.5,0.2c-0.5,0.8,0.4,3.2,0.4,3.2c-2.3-3.6-3.2-6.3-2.5-7.6c0.3-0.6,1-0.9,1.9-0.9c1.4,0,3.4,0.7,5.1,1.9
		C385,176.3,385.4,181.3,385.4,181.3L385.4,181.3L385.4,181.3z M444.6,180.7c-0.2,0-17.4-3.8-29-15.2c-11.6-11.4-22-14.8-22.1-14.9
		c11.9,0.6,16.6,6.3,22.7,12.6c0.6,0.6,1.7,1,2.3,1.6C425.4,171.6,444.4,180.6,444.6,180.7L444.6,180.7z M232.4,175.7
		c0-0.1,0.9-11.5-0.5-15.2c-0.3-0.9-0.9-1.5-1.4-2.2c-1.7-2.1-3.5-4.3,0.7-14.4c0,0,3.3,1,7.1,4c3.9,3,3.2,9.5,3.2,9.6
		c0,0.1-3.7,4.7-5.3,7.4c0.8-2.6,1.6-6.1,1.1-8.1c-0.9-3.5-4.1-9.5-4.1-9.6c0,0-0.4,4.5,0.3,7.5c0.2,1.1,0.8,2.1,1.4,3
		c1.1,1.7,2.1,3.5,1.1,5.9C234.5,167.3,232.4,175.7,232.4,175.7L232.4,175.7z M282.9,175.7c-0.1-0.1-8.1-8.7-5.5-12.6
		c0.6-0.9,1.2-1.4,1.8-1.4c1.6,0,2.7,3.3,2.8,3.4c0-0.1,0.7-2.6,1.4-2.6c0.4,0,0.7,1,0.9,2.9c0.6,5.5-0.6,9.6-1.2,10.2
		C283,175.7,283,175.7,282.9,175.7L282.9,175.7z M270.5,175.7c-0.5,0-4.2-5-5.5-8c-0.4-0.9-0.4-1.8-0.1-2.7c0.8-2.1,3.3-3.3,4-3.6
		c0.1-0.1,0.3-0.1,0.4-0.1c2.1,0,3.8,6.6,3.8,6.7L270.5,175.7L270.5,175.7z M244.8,175.5c0-0.1,1.6-5.6,0.7-8.2
		c-0.9-2.5-0.2-9.5-0.2-9.6c0,0,2.1,0.8,2.8,8.4c0.5,5.1-1,7.5-1.9,8.5C245.6,175.3,245.1,175.5,244.8,175.5L244.8,175.5z
		 M243.2,175c-0.4-0.7-1-1.2-1.7-1.8c-1.3-1.2-2.9-2.5-2.7-5.5c0.2-4.4,4.8-10,4.8-10.1c0,0.1-1.1,4.5-0.4,9.1
		C243.9,171.5,243.9,174.8,243.2,175L243.2,175L243.2,175z M374.7,170.1c1.9-3.9-4.5-12.5-4.6-12.6c0,0,0.1,0,0.2,0
		c1.2,0,8.5,0.2,9.9,2c0.3,0.3,0.4,0.6,0.3,0.8c-0.2,0.5-1.6,0.5-3,0.6c-1.1,0-2.3,0.1-3.1,0.3c-0.2,0.1-0.3,0.1-0.3,0.2
		c0,0.4,1.7,1,3.7,1.7c2.4,0.8,5.3,1.9,6.7,3c0.4,0.3,0.5,0.6,0.4,0.9C384.3,168.8,375.1,170,374.7,170.1L374.7,170.1L374.7,170.1z
		 M234.9,169c0,0,0.2-0.7,0.7-2.6c0.1-0.3,0.3-0.8,0.7-1.5C235.9,166.3,235.5,167.6,234.9,169L234.9,169z M391.3,167.4
		c0,0-2.6-1-5.5-5.3c-1.1-1.6-2.4-3.6-2.3-3.7c0.1,0.1,4.9,4,7.6,4c0.1,0,0.2,0,0.3,0c2.6-0.3,3.3-0.3,3.3-0.3c0,0-0.1-2-3.6-3.6
		c-3.5-1.6-6.8-2-6.8-2c-0.1-0.1-1.9-1.8-1.6-2.6c0.1-0.3,0.4-0.4,1-0.4c0.5,0,1.3,0.1,2.2,0.4l1.6,0.4c5.1,1.4,7.9,2.1,9.1,4.2
		c1.3,2.3,1.3,6.6,1.3,6.6L391.3,167.4L391.3,167.4z M274.8,165.1c-7.1-4.6-5.2-17.1-5.2-17.2l2.6,1c0.1,1.5,0.5,5.5,0.8,5.5
		c0,0,0.1-0.1,0.2-0.5c0.3-2.6,4.8-7.9,4.9-7.9c0,0.1,1.3,10.6-0.6,12.3C275.4,159.8,274.8,165.1,274.8,165.1L274.8,165.1
		L274.8,165.1z M372.5,156.6c-0.6,0-1.2,0-1.7,0c-0.4,0-0.7,0-1,0c-2.3,0-6.8-10.2-6.8-10.3l7.5-4.3c0,0-1.9,3-1,6
		c0.5,1.6,3.4,3,5.9,4.3c2.3,1.2,4.2,2.2,3.9,3C378.8,156.4,375.2,156.6,372.5,156.6z M403.9,151.9c0,0-3.3-4-9.1-6.3
		c-5.8-2.3-6.2-7.9-6.2-7.9l11.7,2.6l0-3.6l8.2,4.6c-0.1,0-0.1,0-0.2,0c-0.2,0-0.6,0-1.1,0c-2.1,0-7.1,0.2-8.1,1.7
		c-0.8,1.3,1.9,4,3.6,6.2C403.6,150.3,404.1,151.6,403.9,151.9L403.9,151.9z M271.2,135.4c0,0,2.2,1.6,3.7,1.6
		c0.3,0,0.6-0.1,0.8-0.2c1.3-1,3.6-5.6,3.6-5.6c0,0,0,0,0,0c0,0,0.1,0,0.1,0.1c0.2,0.2,0.4,0.9-0.1,3.2c-0.6,3.3-6.1,12.8-6.2,12.9
		l0,0L271.2,135.4z M245,144.6c-0.1,0-0.4-0.4-0.4-0.4h0c-0.1,0-1.5-0.1-8-1.9c-1.7-0.5-3-1.4-3.7-2.8c-1.6-3.2,0-7.7,0-7.7l0.2,0
		c0.1,0,0.1,0,0.2,0c0.9,0,1.9,1.8,3.1,5.6c1.1,3.8,2.3,4.6,3.1,4.6c0.5,0,0.9-0.3,1.1-0.5c-0.1,0.1-0.3,0.1-0.4,0.1
		c-0.4,0-0.9-0.3-1.5-1.7c-1.1-2.5-2.3-7.4-2.3-7.5c0,0,1.9,1,6,7.5C244.2,142.9,245.1,144.5,245,144.6L245,144.6z M421.1,143.6
		c-0.2,0-0.4,0-0.6,0c-2.6-0.1-6.7-2.2-11.9-4.8c-7.6-3.8-17.2-8.6-26.5-9.4c-1.5-0.1-3.1-0.2-4.7-0.2c-9.9,0-15.5,2.8-17.5,4.1
		c0.1-0.2,0.2-0.3,0.4-0.5c1.2-1.7,3.8-5.3,11-7.6c2-0.6,4.2-1,6.6-1c8.2,0,18.4,4.3,32.2,11.7c5.8,3.1,11.8,3.9,16.7,3.9
		c3.9,0,5.9-1,5.9-1C432.9,138.7,427.3,143.6,421.1,143.6L421.1,143.6z M86.4,142.3c-2.3,0-3.3-0.5-3.7-1c-0.4-0.4-0.3-0.8-0.3-0.8
		c0.1,0.3,1.5,0.5,3.2,0.5c1,0,2.6-0.1,4.1-0.5c3.1-0.9,18.8-7.2,23.2-9.6c4.1-2.2,12.5-4.2,13.5-4.4c-0.3,0-0.6,0-0.9,0
		c-1.5,0-4-0.2-4.3-1.9c-0.1-0.3,0-0.6,0.2-0.9c1.2-1.5,6.2-1.7,6.4-1.7h0c-0.4,0-10-0.5-15.9-3.3c-5.9-2.8-3.9-7.9-3.9-8
		c0,0,0,1.9,2.1,4.4c1.8,2.2,2.7,2.5,5.2,3.3c0.4,0.1,0.8,0.3,1.3,0.4c1,0.3,2.8,0.5,5.6,0.5c2.5,0,5.4-0.1,8.3-0.3
		c2.4-0.1,4.7-0.2,6.4-0.2c5.5,0,13.5,4.4,13.6,4.4c0,0,0,0.5-1.8,0.5c-0.8,0-1.6-0.3-2.8-0.7c-1.5-0.5-3.6-1.2-6.6-1.6
		c-0.6-0.1-1.1-0.1-1.7-0.1c-5.1,0-11.6,2.4-11.6,2.4l2.8,0.7c0.8,0.2,1.6,0.3,2.6,0.3c1.1,0,2.2-0.1,3.4-0.3c1-0.1,2-0.2,3-0.3
		c0.1,0,0.3,0,0.5,0c3.8,0,10.4,2.6,11.5,4.2c0.2,0.3,0.3,0.5,0.2,0.7c-0.1,0.1-0.3,0.2-0.8,0.2c-0.8,0-2.2-0.2-4.6-0.5
		c-3-0.4-5.9-0.8-8.9-1.1c-0.8-0.1-1.6-0.1-2.4-0.1c-7.3,0-14.5,3.4-22.1,6.9c-5,2.3-10.1,4.7-15.3,6.1
		C91.8,141.7,88.7,142.3,86.4,142.3L86.4,142.3z M360,140.3c-1-1.4-1.4-2.5-1.1-3.4c0.5-1.6,2.9-2.5,7.3-3.9c1.4-0.4,3-0.6,4.8-0.6
		c5.5,0,11.1,1.9,11.1,2c-0.1,0-5.5,2.4-10.5,2.4c-0.3,0-0.6,0-0.9,0c-0.2,0-0.3,0-0.5,0c-2.6,0-3.7,1.4-4.5,2.4
		c-0.5,0.6-0.9,1.1-1.5,1.1c-0.2,0-0.5-0.1-0.7-0.2c-0.6-0.3-1.2-0.5-1.7-0.5C361.2,139.5,360.5,139.8,360,140.3L360,140.3
		L360,140.3z M274.7,134.1c-0.2,0-0.8-0.2-1.9-3c-1.6-3.9,3.2-10.2,3.3-10.3c0,0,0,1.7-0.3,4.3c0,0.4,0,0.7,0.2,0.9
		c0.2,0.2,0.5,0.3,0.8,0.3c1.3,0,3.5-1.2,3.5-1.2l-5.5,8.6c0.1,0.1,0.1,0.2,0.1,0.3C274.8,134,274.8,134.1,274.7,134.1z
		 M359.4,133.7c0,0,0.2-0.2,0.6-0.5C359.8,133.6,359.6,133.7,359.4,133.7L359.4,133.7z M234.7,129.6c-1.1,0-2.8-0.4-4.9-2.5
		c-2.9-3-7.6-7.9-7.6-8c0.1,0,6,0.5,9,4.2c3,3.7,4.6,6.1,4.6,6.1C235.9,129.5,235.4,129.6,234.7,129.6z M370.4,124.1
		c3.1-7.6,13.7-7.6,18.7-7.6l1.4,0c5.8,0,17.1-6.2,17.2-6.3l-1,2.3c-0.9,2.2-8.5,5.9-17.9,6.6C380,119.8,370.5,124.1,370.4,124.1
		L370.4,124.1L370.4,124.1z"/>
	<g id="g" transform="translate(0,-6.5005741)">
		<path id="path5612" class="st8" d="M176,126.1c0,0-6.6,0.2-6.8,4.2c-0.3,4,2.5,8.8,5.9,10.2c3.3,1.5,8.5,1.9,14.5,0.2
			c6-1.6,15.2-6,19.4-5.8c4.3,0.2,10.3,0.4,11.3,0.3l1-0.1c0,0-0.7-1.4-7.4-1.7c-6.7-0.3-11.3-1.2-15.1,0.6
			c-3.8,1.8-8.5,4.2-14.5,3.9c-6.1-0.3-8.8,0.2-11.1-2.7C170.7,132.5,171.6,128.1,176,126.1L176,126.1z"/>
		<path id="path5614" class="st8" d="M192.6,114.6c0,0-0.9,3.8-2.3,4.7c-1.4,0.9-3.2,2.8-3.2,6.5c0,3.7,1.7,9.6,1.7,9.6
			s3-5.8,7.9-5.7c4.8,0.1,9.2,1.9,12.4,2c3.2,0.1,11.2,1.9,12.3,2.9s1.1,1.4,1.1,1.4s-5.5,0.2-7.2,0.1c-1.7-0.1-4.1,0.1-6,1.5
			c-1.9,1.4-5.9,3.8-7.6,4c-1.7,0.2-3.7,0.1-3.7,0.1s1.8,2.5,5.6,2.4c3.9-0.1,5.8-1.6,7.1-2.9c1.3-1.3,2.2-2.3,4-2.2
			c1.8,0.1,7.6-2,9.1-1.9c1.4,0.2,0.2-3.2-1.9-4.3c-2.1-1.1-2.6-1.9-5.6-3.2c-3-1.2-4.6-1.9-8.6-2.6c-4-0.7-4.8-0.2-6.3-2
			c-1.5-1.8-0.7-2.7-1.7-4.3c-1-1.5-2.6-3-3.4-4C195.5,115.7,192.7,114.5,192.6,114.6z"/>
		<path id="path5616" class="st9" d="M198.4,122.3c1.7,2.1,1.3,3.8-1.4,3.8c-2.7,0-5.2,3.8-6,3.8s-1.1-4.5,1-6.9
			c2.1-2.4,4.2-2.7,4.2-2.7C196.6,120.4,196.7,120.2,198.4,122.3z"/>
	</g>
	<g id="g_2_" transform="translate(0,-6.5005741)">
		<path id="path5612_2_" class="st8" d="M336,126.1c4.4,1.9,5.3,6.4,3,9.3c-2.3,2.9-5,2.4-11.1,2.7c-6.1,0.3-10.8-2.1-14.6-3.9
			c-3.8-1.8-8.5-0.9-15.1-0.6c-6.7,0.3-7.4,1.7-7.4,1.7l1,0.1c1,0.1,7-0.1,11.3-0.3c4.3-0.2,13.4,4.1,19.4,5.8
			c6,1.6,11.2,1.2,14.5-0.2c3.3-1.5,6.2-6.3,5.9-10.2C342.6,126.4,336,126.1,336,126.1L336,126.1z"/>
		<path id="path5614_2_" class="st8" d="M315.7,116.7c-0.7,1-2.4,2.5-3.4,4c-1,1.5-0.2,2.5-1.7,4.3c-1.5,1.8-2.3,1.3-6.3,2
			c-4,0.7-5.5,1.4-8.6,2.6c-3,1.2-3.6,2.1-5.6,3.2c-2.1,1.1-3.3,4.4-1.9,4.3c1.4-0.2,7.3,2,9.1,1.9c1.8-0.1,2.7,0.9,4,2.2
			c1.3,1.3,3.2,2.8,7.1,2.9c3.9,0.1,5.6-2.4,5.6-2.4s-2,0.1-3.7-0.1c-1.7-0.2-5.7-2.6-7.6-4c-1.9-1.4-4.3-1.6-6-1.5
			c-1.7,0.1-7.2-0.1-7.2-0.1s0.1-0.5,1.1-1.4c1.1-0.9,9.1-2.7,12.3-2.9c3.2-0.1,7.5-1.9,12.4-2c4.8-0.1,7.9,5.7,7.9,5.7
			s1.7-5.8,1.7-9.6c0-3.7-1.8-5.6-3.2-6.5c-1.4-0.9-2.3-4.7-2.3-4.7C319.3,114.5,316.5,115.7,315.7,116.7z"/>
		<path id="path5616_2_" class="st9" d="M315.8,120.4c0,0,2.1,0.3,4.2,2.7c2.1,2.4,1.8,6.9,1,6.9s-3.4-3.8-6-3.8
			c-2.7,0-3.1-1.7-1.4-3.8C315.3,120.2,315.4,120.4,315.8,120.4z"/>
	</g>
</g>
</svg>
