<?xml version="1.0" encoding="utf-8"?>
<!-- Generator: Adobe Illustrator 24.2.3, SVG Export Plug-In . SVG Version: 6.00 Build 0)  -->
<svg version="1.1" id="flag-icons-ad" xmlns="http://www.w3.org/2000/svg" xmlns:xlink="http://www.w3.org/1999/xlink" x="0px"
	 y="0px" viewBox="0 0 512 512" style="enable-background:new 0 0 512 512;" xml:space="preserve">
<style type="text/css">
	.st0{fill:#FFFFFF;}
</style>
<path id="path5578_1_" d="M0,0h512v512H0V0z"/>
<g>
	<path id="path3065" class="st0" d="M203.4,201.6c2.5-7.5,0-20.8,0.8-29.1c0.8-5,4.2-10,6.6-15c1.7-5,4.2-11.6,10-13.3
		c-1.7,5-2.5,5-4.2,9.1l-2.5,9.1c-1.7,4.2-4.2,5.8-5,10c-1.7,5.8-0.8,19.9-0.8,26.6c0,1.7,0,4.2-1.7,5.8c-2.5,3.3-10,0.8-9.1,9.1
		c0,0.8,0,2.5,0.8,3.3c3.3,7.5,16.6,10,23.3,13.3c6.6,4.2,5,8.3,11.6,12.5c6.6,5,24.1,5,32.4,4.2c2.5-0.8,6.6-0.8,9.1-2.5
		c6.6-2.5,7.5-9.1,14.1-13.3c5-2.5,15.8-4.2,20.8-11.6c0.8-0.8,1.7-2.5,1.7-3.3c2.5-9.1-8.3-5.8-10.8-11.6
		c-1.7-4.2,0.8-17.4,1.7-21.6l2.5,2.5v7.5l0.8,8.3c9.1-1.7,8.3-12.5,9.1-19.9c1.7-19.9,1.7-32.4-12.5-48.2
		c-8.3-8.3-19.1-15-30.7-16.6H264l-5.8-0.8l-6.6,0.8c-10.8,0.8-18.3,0.8-27.4,5.8c-6.6,3.3-10.8,7.5-15.8,13.3
		c-12.5,13.3-15,29.9-12.5,47.4C196.8,189.9,198.4,197.4,203.4,201.6z M230.8,176.6c11.6-0.8,19.9,7.5,15.8,19.1
		c-3.3,7.5-10.8,13.3-19.1,15c-7.5,0.8-10.8-4.2-10.8-10.8C216.7,189.1,218.4,180,230.8,176.6z M277.3,176.6c10,0,15,8.3,15.8,17.4
		c0,2.5,0.8,5,0.8,6.6c-0.8,5.8-6.6,10-12.5,10.8c-9.1,0-19.9-14.1-19.1-22.4C264,181.6,270.7,178.3,277.3,176.6z M262.4,227.3
		l-9.1-1.7l-7.5,2.5c-0.8-5.8,1.7-14.1,4.2-19.9c0.8-1.7,2.5-5,4.2-5.8c3.3-0.8,4.2,3.3,4.2,5C259.9,214,262.4,220.7,262.4,227.3z"
		/>
	<path id="path3067" class="st0" d="M294.8,240.6c-2.5,0.8-5.8,0.8-8.3,2.5c-8.3,5.8-4.2,19.9-11.6,29.1c-3.3,4.2-10.8,5.8-16.6,5.8
		c-10.8,0-24.1-0.8-29.1-11.6c-4.2-7.5,1.7-15-7.5-24.1c-1.7-0.8-4.2-3.3-5.8-3.3c-2.5,0-1.7,3.3-1.7,5l0.8,16.6
		c0,12.5,3.3,12.5,9.1,19.9c3.3,5,5.8,10,11.6,12.5c7.5,2.5,15.8,2.5,23.3,1.7c5.8,0,9.1,0.8,15-2.5s15.8-16.6,17.4-23.3l0.8-11.6
		C294,248.9,294.8,250.6,294.8,240.6L294.8,240.6z"/>
	<path id="path3069" class="st0" d="M446.8,154.2c-12.5,17.4-26,32.2-40.7,49.8l-19.9,22.4c-16.6,15.8-58.2,46.5-77.3,59
		c-10.8,7.5-22.4,13.3-34.1,18.3l-15.2,7.3c2.5,2.5,7.1,3.9,11.3,5.8c2.5,0,11.3-4.9,13.8-6.5l26.6-15c5-3.3,10-7.5,15.8-8.3
		c-2.5,5.8-8.3,9.1-14.1,12.5l-15.8,9.1c0,0-16.6,9.4-18.8,11c4.5,1.8,11.4,3.9,15.7,5.6c4.2,0,9.8-4.2,13.1-5.8
		c9.1-5,20.8-12.5,29.9-19.1l15-10c11.6-9.1,23.3-19.1,34.1-29.9c8.3-7.5,16.6-15,23.3-24.1c9.1-10.8,15-23.3,21.6-35.7
		c7.5-11.6,10-19.1,14.1-31.6C446,165,448.5,158.4,446.8,154.2L446.8,154.2z"/>
	<path id="path3071" class="st0" d="M65.5,150.1c-2.5,9.1,0.8,19.9,4.2,28.2c7.5,19.9,19.9,37.4,32.4,54
		c7.5,10.8,19.9,24.1,29.1,33.2l10,8.3l21.6,19.1c17.4,13.3,49.8,33.2,69.8,42.4l26.6,11.6l10.8,4.2c12.5,5,24.9,8.3,38.2,10.8
		c7.5,1.7,15.8,4.2,23.3,4.2c-2.5-9.1-7.5-8.3-15-10.8L289,344.5c-38.2-15.8-80.6-31.6-110.5-61.5c5.8,0,10,5,14.1,8.3
		c5.8,4.2,13.3,9.1,19.9,13.3c18.3,10.8,59.8,29.9,80.6,37.4c8.3,3.3,22.4,9.1,30.7,9.1c6.6,0.8,15.8-3.3,20.8-6.6
		c-3.3-3.3-6.6-2.5-11.6-3.3l-25.8-7.5c-22.4-5.8-44-14.1-64.8-24.9l-11.6-5l-15.8-10l-19.1-12.5L176,265.5L141.9,239l-31.6-32.4
		l-15.8-18.3L77.9,170L65.5,150.1L65.5,150.1z"/>
	<path id="path3073" class="st0" d="M332.2,355.3c1.7,3.3,5,8.3,5,12.5c0,9.1-10.8,17.4-19.1,16.6c-3.3-0.8-10.8-5-13.3,0
		c-0.8,1.7-0.8,3.3,0,4.2c0,3.3,4.2,5,7.5,6.6c9.1,2.5,19.1-0.8,26.6-5.8c5.8-3.3,10-9.1,11.6-15.8l1.7-10.8c0.8-3.3,4.2-4.2,8.3-10
		c5-6.6,10-18.3,16.6-23.3c2.5-1.7,5-2.5,8.3-3.3c-1.7-2.5-3.3-4.2-5-6.6c-1.7-0.8-3.3-2.5-5-2.5c-2.5-0.8-5.8-0.8-8.3,0.8
		c-11.6,5.8-9.1,16.6-15.8,24.9C346.3,349.5,340.5,352.8,332.2,355.3L332.2,355.3z"/>
	<path id="path3075" class="st0" d="M358.8,366.1c5.8,2.5,10.8,1.7,16.6,1.7l12.5,0.8c5.8,0,7.5-3.3,10-8.3c0.8-1.7,1.7-5,0-6.6
		s-5-1.7-7.5-1.7l-14.1,0.8c-2.5,0-6.6,0-9.1,0.8C362.9,356.1,359.6,361.9,358.8,366.1L358.8,366.1z"/>
	<path id="path3077" class="st0" d="M403.6,377.7c-4.2-1.7-6.6-3.3-9.1-6.6c-0.8,0.8-1.7,0.8-2.5,1.7
		C391.2,376.9,402,386.8,403.6,377.7z"/>
	<path id="path3079" class="st0" d="M397.8,349.5l6.6,4.2c-1.7,3.3-5.8,10-5,14.1c0.8,8.3,12.5,8.3,17.4,3.3
		c5.8-6.6,5.8-16.6-2.5-21.6C409.4,347,403.6,347.8,397.8,349.5z"/>
	<path id="path3081" class="st0" d="M99.5,372.7l0.8,0.8c6.6-1.7,10.8-4.2,11.6-10.8C107,363.6,102,368.6,99.5,372.7z"/>
	<path id="path3083" class="st0" d="M105.4,342c-2.5-1.7-5-2.5-8.3-2.5c-2.5,0-5,0-7.5,0.8c-8.3,3.3-9.1,16.6-2.5,22.4
		c3.3,3.3,11.6,5,15,0.8c3.3-3.3,2.5-7.5,0.8-11.6c-0.8-2.5-2.5-5.8-0.8-7.5C102.9,342.8,104.5,342.8,105.4,342z"/>
	<path id="path3085" class="st0" d="M104.5,345.3c0.8,2.5,5,12.5,6.6,14.1c2.5,1.7,5,1.7,7.5,1.7l15-0.8h10.8c0-2.5,0-5-0.8-6.6
		c-2.5-6.6-11.6-10-18.3-10l-7.5,0.8C112.8,344.5,108.7,343.6,104.5,345.3z"/>
	<path id="path3087" class="st0" d="M120.3,318.7c15.8,4.2,15.8,17.4,22.4,26.6c2.5,3.3,9.1,8.3,10,11.6c0.8,2.5,0,3.3,0.8,9.1
		c1.7,7.5,6.6,15,13.3,19.1c7.5,5,14.1,8.3,23.3,5.8c5-1.7,10-5,7.5-10.8s-11.6,0-17.4-1.7c-5.8-2.5-12.5-10.8-12.5-17.4l3.3-11.6
		c-9.1-3.3-19.9-10.8-24.1-19.9c-2.5-5.8-2.5-14.1-6.6-18.3C132.8,305.4,122.8,310.4,120.3,318.7L120.3,318.7z"/>
	<path id="path3089" class="st0" d="M160.2,337.8c2.5,3.3,4.2,4.2,7.5,5.8c11.6,6.6,19.1,1.7,30.7-0.8l24.1-7.5
		c-3.2-2.1-10.3-6.6-13.3-8.3l-15.8,4.2L160.2,337.8z"/>
	<path id="path3091" class="st0" d="M171.8,361.9c21.6,0,41.5-6.6,62.3-11.6c0,0,9.1-4.3,12.2-4.3c-2.9-2.1-14.6-6.3-16.5-8
		c-2.5,0.7-12.3,4-15.7,4.9l-20.8,5.8l-10,2.5C177.6,353.6,173.5,354.4,171.8,361.9z"/>
	<path id="path3093" class="st0" d="M235.8,266.4c0,2.1,0.2,4.6,1,5.8s4,1.4,4.8,0.8c0.7-0.7-0.6-3.9-1.4-4.9
		S238.3,266.8,235.8,266.4z"/>
	<path id="path3095" class="st0" d="M242.4,267.2l0.8,4.2c0,0.8,0.8,2.5,1.7,3.3c3.3,1.7,5-6.6,2.5-7.5
		C245.8,266.4,244.1,267.2,242.4,267.2z"/>
	<path id="path3097" class="st0" d="M252.4,268c-2.5,1.7-2.6,4.8-1.6,6.3s2.9,1.6,4.1,1.2c0.8-0.4,2.1-2.5,2.2-4.4
		C257.2,269.3,256.2,267.6,252.4,268z"/>
	<path id="path3099" class="st0" d="M243.3,257.2c2.2,1.2,6-0.1,6-0.1l-0.1-4.9c-0.8-3.3-3.3-4.2-5-2.5
		C243.3,251.4,243.3,255.6,243.3,257.2z"/>
	<path id="path3101" class="st0" d="M255.7,248.9c-0.8,0-3.4-0.4-4.3,0.4c-1.6,1.6-2.4,7.1,0.1,8.7c1.6,0.4,4.2,0.8,5-2.6v-2.4
		C256.6,253.1,256.5,250.4,255.7,248.9z"/>
	<path id="path3103" class="st0" d="M264,275.5c0.8,0.3,1.7-0.8,2.5-1.7c5.8-5.8-6.3-10.5-4.2-1.7
		C262.4,272.2,263.2,275.4,264,275.5z"/>
	<path id="path3105" class="st0" d="M240.6,248.1c-0.8-0.3-2.3,0-3.1,0c-6.5,2.9,1.7,14.1,4.2,6.6c0-0.8,0-1.7,0-2.5
		C241.6,252.3,241.1,248.4,240.6,248.1z"/>
	<path id="path3107" class="st0" d="M259.1,248.9c0,0-1.4,8.4-0.8,9.1c1.1,0.6,4.4,0.4,5.7-0.4c0-2.5,0.2-5.4-0.3-6.9
		C263.1,249.2,262,249.3,259.1,248.9L259.1,248.9z"/>
	<path id="path3109" class="st0" d="M267,248l-0.5,4.3c0,2.5,0.5,7.3,3.9,4.8c0.4-0.4,1.5-5.4,1.1-7.6
		C270.6,248.3,269.1,248.2,267,248z"/>
</g>
</svg>
