<?xml version="1.0" encoding="utf-8"?>
<!-- Generator: Adobe Illustrator 24.2.3, SVG Export Plug-In . SVG Version: 6.00 Build 0)  -->
<svg version="1.1" id="flag-icons-ad" xmlns="http://www.w3.org/2000/svg" xmlns:xlink="http://www.w3.org/1999/xlink" x="0px"
	 y="0px" viewBox="0 0 640 480" style="enable-background:new 0 0 640 480;" xml:space="preserve">
<style type="text/css">
	.st0{fill:#FFCC1E;}
	.st1{fill:#780000;}
	.st2{fill:#A8121C;}
	.st3{fill:#850E17;}
	.st4{fill:#070707;stroke:#000000;stroke-width:1.5;}
	.st5{fill:#FFFFFF;stroke:#2A2A2A;stroke-width:0.75;}
	.st6{fill-rule:evenodd;clip-rule:evenodd;fill:#332D2C;}
	.st7{fill-rule:evenodd;clip-rule:evenodd;fill:#343434;}
	.st8{fill:#A8121C;stroke:#780000;stroke-width:1.5;stroke-miterlimit:6;}
	.st9{fill:#550000;}
</style>
<g>
	<path id="path5578" class="st0" d="M-1,0.4h640v480H-1V0.4z"/>
</g>
<g>
	<g id="b_3_" transform="translate(0,-6.5005741)">
		<path id="path5589_3_" class="st1" d="M197.8,393.6c-3.1,0-5.8-1.4-8.6-4.4c-4.9-5.2-3.1-12.6-3.1-12.6c0,0-1.8-2.5,0-4.9
			c1.8-2.4,7.1-4.3,7.1-4.3c0,0,0.9-4.9,2.5-6.5c1.5-1.5,5.2-9.8,5.3-9.8l-2.8,0.3c-1.5,0.2-2.1,1.6-2.6,3.1c-0.5,1.3-1,2.5-2,2.5
			c-1.2,0-2.1-0.8-2.9-1.6c-0.7-0.6-1.3-1.2-2-1.2c-0.3,0-0.4,0.1-0.6,0.2c-0.2,0.2-0.2,0.7-0.2,1.2c0,0.8,0.1,1.7-0.5,2.6
			c-0.7,1-1.9,1.2-2.8,1.2c-1.2,0-2.5-0.3-3.4-0.9c-0.6-0.3-1.3-0.5-2.1-0.5c-0.8,0-1.5,0.2-1.6,0.2l0,0c0.1,0,0.6,0.2,0.6,1.5
			c0,1.6-1.9,4.6-5.4,4.6c-0.2,0-0.3,0-0.5,0c-4-0.3-4.7-4.9-4.7-4.9c0,0-2.5,0.3-2.5,3.1c0,2.7,3.1,9.8,3.1,9.8
			c-0.1,0-10.3-6.5-10.6-14.2c-0.3-7.6,8.9-11.7,9-11.7c0,0-0.6-3.4,2.5-4c0.3-0.1,0.6-0.1,0.8-0.1c2.7,0,5,2.5,5.1,2.5
			c0,0,0.4,0.2,2.4,0.2c1.8,0,4.4-0.2,7.6-0.5c8.6-0.9,10.2-2.4,10.2-2.5h0c-0.1,0-4.7-0.6-5.3-2.5c-0.6-1.8-2.1-2.5-2.2-2.5
			c0,0-1.3,2.5-3.7,3.7c-0.3,0.2-0.7,0.3-1,0.3c-1.7,0-2.4-2.4-2.4-2.4s-0.8-2.5-2.5-2.5c-0.2,0-0.4,0-0.6,0.1
			c-0.3,0.1-0.5,0.3-0.6,0.5c-1,1.8,0.9,7.4,0.9,7.5c0,0-0.1,0.1-0.4,0.1c-0.5,0-1.3-0.3-2.4-1.6c-2.1-2.4-4.6-6.4-2.2-12.9
			c2.1-5.7,8-6.2,9.7-6.2c0.3,0,0.5,0,0.5,0c0,0,1.3-1.2,4-2.8c0.3-0.2,0.6-0.3,1-0.3c2.2,0,3.5,4.5,4,6.1c0.6,2.1,1.2,2.8,4,2.8
			c2.3,0,3,0.7,4,1.8c0.2,0.2,0.4,0.5,0.7,0.7c0.5,0.5,1.3,0.8,2.2,0.8c1.2,0,2.4-0.5,2.4-0.5l1.5-0.6c0.2-0.1,0.4-0.1,0.6-0.2
			c1.7-0.5,5.2-1.4,19-16.5c15.3-16.7,27.2-48.6,27.3-49c0.5,0,8,10.6,11.5,18.2c1.9,4,2.4,6.6,1.5,7.6c-2.5,3-5.5,5.2-8.6,7.6
			c-0.7,0.5-1.5,1.1-2.2,1.7c-3.8,2.9-11.1,9.7-14.3,14.5c-1.6,2.5-3.4,4.1-4.9,5.6c-1.3,1.3-2.5,2.4-3.2,3.7
			c-1.5,2.7-3.7,5.5-5,5.5c-1.2,0-3.3,3.6-3.4,3.7l0,0c0,0,0.2,0,0.5,0c0.5,0,1.3-0.1,2.6-0.7c0.5-0.2,1.2-0.3,2-0.3
			c1.8,0,3.6,0.6,3.6,0.7c0,0,0.3-3.4,1.2-4.9c0.8-1.4,2.4-2.7,4.1-2.7c0.4,0,0.8,0.1,1.2,0.2c2.1,0.9,3.1,3.1,3.1,3.1
			c0.1,0.1,7.1,6.9,7.8,15.1c0.2,2.3-0.4,4.1-1.6,5.4c-2,2.1-5.1,2.3-6.4,2.3c-0.1,0-0.3,0-0.4,0c0-0.1,2.2-3.7,1.8-6.8
			c-0.3-3-2.8-4.6-2.8-4.6c0,0-0.3,1.2-0.3,2.8c0,1.6-2.2,4-5,4c-1.5,0-2.2-1.1-2.9-2.1c-0.6-0.9-1.1-1.7-2.1-1.9
			c-0.1,0-0.2,0-0.3,0c-0.2,0-0.4,0.1-0.5,0.2c-0.2,0.2-0.1,0.7-0.1,1.2c0.1,0.5,0.2,1-0.1,1.2c-0.1,0.1-0.3,0.2-0.6,0.2
			c-1.9,0-5,0-6.5-1.5c-0.5-0.5-1.1-0.8-1.6-0.8c-0.9,0-1.8,0.7-2.4,2c-1,1.9-1.9,2.5-4,2.5c-1.9,0-1.9,0-2.9,1l-0.5,0.5
			c-0.9,0.9-0.9,2.1-0.8,3.5c0.1,1,0.1,1.9-0.1,2.9c-0.2,0.6-0.2,1.2-0.3,1.8c-0.2,1.7-0.3,3.1-2.8,3.1c-1,0-1.4,0.1-1.6,0.3
			c-0.2,0.3,0,0.8,0.3,1.6c0.4,1,1,2.4,1.3,4.5c0.2,1.5-0.1,2.7-1,3.6c-1.6,1.8-4.6,2-5.9,2c-0.5,0-0.7,0.1-0.8,0.2
			c-0.1,0.3,0.3,0.8,0.8,1.5l0.3,0.4c0.8,1,2,4.2,1.7,6.1c-0.1,0.6-0.4,1-0.7,1.3c-0.4,0.3-1,0.4-1.7,0.4c-1.9,0-4.2-1-4.2-1
			l0.6,3.4c0.6,3.3,8,4,8,4c0,0-0.7,2.8-4,3.4C200.2,393.4,199,393.6,197.8,393.6L197.8,393.6z"/>
		<path id="path5591_3_" class="st2" d="M198.5,391.5c-2.3,0-5.5-0.6-7.9-3.2c-4.3-4.7-2.9-11.1-2.9-11.1l0,0c0.3,0,1.2,0.6,1.8,1.2
			c0.3,0.4,0.5,0.8,0.4,1.2c-0.1,0.4,0,0.9,0.2,1.2c0.1,0.2,0.3,0.2,0.5,0.2c0.3,0,0.7-0.2,1.3-1c0.5-0.7,0.9-1.1,1.3-1.1
			c0.4,0,0.5,0.4,0.5,0.4c0,0-0.2,2.9,0.9,6.3c1.1,3.4,7.2,5.4,7.2,5.4C201.8,391.1,200.4,391.5,198.5,391.5z M200.2,381.9
			c-0.2,0-0.5-0.1-0.8-0.2c-0.9-0.4-1.9-1.4-2.9-2.4c-1.2-1.2-2.6-2.6-4.1-3.3c-2-0.9-3.6-1-4.4-1c-0.4,0-0.6,0-0.6-0.1
			c0,0,0.5-3.5,2.4-4.4l2-0.9c0.1,0.1,7.3,5.5,8.6,8.1c0.8,1.6,1,3.1,0.6,3.7C200.7,381.8,200.5,381.9,200.2,381.9L200.2,381.9z
			 M193.9,368.9c0,0,1.1-2,1.8-4.1c0.3-1,1.5-2.8,2.9-4.9c1.6-2.5,3.4-5.3,4.2-7.3c0.5-1.5,1.2-3.1,1.9-4.5c0.9-2.1,1.7-3.9,1.8-5
			c0.1-0.6,0-1.4,0-2.3c-0.1-2-0.3-4.4,0.9-5.6c0.3-0.3,1.2-1,2.4-2c4.7-3.7,15.7-12.4,23.2-23.1c9.3-13.1,21-38,21.3-38.9l0,0
			c0.3,0.2,4.2,3.6,5.3,5.9c0.7,1.6-3.6,7.3-7.8,12.8c-2.1,2.8-4.2,5.5-5.4,7.4c-2.2,3.5-8.2,10.7-13.6,17c-3.3,4-6.5,7.7-8.4,10.2
			c-2.4,3.2-3.1,5.7-3.6,7.4c-0.4,1.4-0.6,2.2-1.6,2.2c-0.2,0-0.3,0-0.6-0.1c-0.1,0-0.3-0.1-0.5-0.1c-1.3,0-1.9,1.5-2.5,2.8
			c-0.5,1.1-0.9,2.1-1.7,2.1c-1.2,0-3,1.3-3.9,2.5c-0.5,0.6-0.7,1.1-0.7,1.4c0,0.2,0.1,0.4,0.2,0.6c0.4,1.4,1.1,4-0.6,4.6
			c-2,0.7-3.3,2.4-3.1,4.1l0,0.2c0.2,1.7,0.4,2.9-1.1,3.3c-1.1,0.3-2.5,1.4-2.9,2.5c-0.2,0.5-0.1,0.9,0.1,1.2
			c-0.5,3.2-1.7,4.4-2.8,5.4c-0.8,0.8-1.5,1.4-1.6,2.9l-2.4,2.8L193.9,368.9z M164.5,367.8c-0.1,0-5.3-4.6-5.3-10
			c0-5.4,7.4-9.3,7.5-9.4c3.3,2.6,2,8.4,2,8.5c0,0-2,0-4.4,2C161.9,360.8,164.5,367.7,164.5,367.8L164.5,367.8z"/>
		<path id="path5593_3_" class="st2" d="M173.4,361.9c-1.5,0-3.5-1.3-3.6-2.2l-0.2-1.1c0,0,1.3-2,0.9-5.7c-0.4-3.7-2-6.5-2-6.5
			c0,0,0.2-2.4,2.2-2.4c0.1,0,0.2,0,0.3,0c2.1,0.2,4.2,3.7,4.6,7.9c0.4,4,0.4,8.9-1.1,9.8C174.1,361.8,173.8,361.9,173.4,361.9
			L173.4,361.9z M183.6,357.4c-0.2,0-0.5-0.1-0.7-0.3c-0.5-0.4-1.4-0.6-2.6-0.6c-1.1,0-2.2,0.2-2.2,0.2c0,0-0.2-1.5-0.7-4.1
			c-0.4-2.5-1.2-5.2-1.3-5.4l0,0l0,0c0,0,0.1,0,0.4,0c2.4,0,15.8-0.9,19.3-2.6c3.9-1.9,8.3-8,8.3-8.1l-0.4,1.1c-0.3,0.7,0,1.8,0.2,3
			c0.2,0.8,0.3,1.6,0.4,2.4c0.2,2.2-1.7,4.3-1.8,4.4h0c-0.1,0-0.7-0.1-1.6-0.1c-1.8,0-4.1,0.2-4.9,1.1c-0.9,1.1-1.8,3.3-2.3,4.8
			c-0.2,0.6-0.4,1-0.5,1.3c0,0.1-0.1,0.2-0.3,0.2c-1.1,0-4.5-3.4-5.2-4.1c-0.3-0.3-0.6-0.4-0.8-0.4c-1,0-1.4,2.3-1.4,3.7
			C185.6,355.4,184.7,357.4,183.6,357.4L183.6,357.4z M247.2,347.8L247.2,347.8c0-0.1-0.3-6.6-5.5-9.4c0,0-1.3-3.7-0.2-5.5l1.1-1.7
			c0.1,0.1,7.5,7.9,7,12.2C249.2,347.7,247.2,347.8,247.2,347.8L247.2,347.8z M175.6,342.1c0,0-4.6-1.9-2.3-10c1.8-6.3,6.3-7,8.2-7
			c0.6,0,1,0.1,1,0.1c-3.4,3.4-1.9,10.6-1.8,10.6c0,0-1.1-1.1-3.3-1.1c-0.1,0-0.3,0-0.4,0c-0.3,0-0.6,0.2-0.8,0.5
			C174.8,336.7,175.6,342,175.6,342.1L175.6,342.1L175.6,342.1z"/>
		<path id="path5595_3_" class="st2" d="M197.3,340.5c0,0-4.2,0-5.9-2.3c-1.1-1.4-2.1-2.2-2.7-2.6c-0.4-0.3-0.6-0.4-0.5-0.5
			c0,0,1.4-2.6,2.2-4.5l0.8-1.8c0,0,1.6,2.5,4,2.5c2.2,0,2.9,0.7,4,1.7c0.2,0.2,0.3,0.3,0.5,0.5c1.4,1.2,4.6,1.2,4.6,1.2
			c0,0-0.6,0.5-1.9,2C201.2,338.2,197.4,340.5,197.3,340.5L197.3,340.5L197.3,340.5L197.3,340.5z M183.8,338.4c-1,0-2.1-0.9-2.3-1.2
			c0-0.1-0.3-5.1,0.3-7.7c0.6-2.6,2.4-5.2,4.3-6.3c0.2-0.1,0.4-0.2,0.6-0.2c1.8,0,3.8,4.1,3.8,4.2c0,0.1-4.2,8.8-5.4,10.5
			C184.8,338.2,184.3,338.4,183.8,338.4L183.8,338.4z"/>
		<path id="path5597_3_" class="st3" d="M203.7,371.4c-1.8,0-3.2-1-3.9-2.1c-0.9-1.3,0-2.8,0-2.8c0.1,0.1,0.2,0.1,0.3,0.1
			c0.4,0,0.9-0.7,1.7-1.6l0.2-0.3c0.4-0.5,0.7-1.4,0.9-2.4c0.5-1.7,1.1-3.9,2.8-5c1.3-0.9,1.5-2.4,1.6-3.9c0.1-1.4,0.3-2.8,1.5-3.5
			c1.5-1,2-3.2,2.4-5.1c0.2-1.1,0.5-2.2,0.9-2.9c0.6-1,1.7-1.2,2.7-1.3c1-0.1,1.9-0.3,2.1-1.1c0.4-1.7,1.7-3.9,3.3-4.6
			c1.4-0.6,2.4-3,3.3-5.4l0.4-0.9c1.1-2.7,7-9.6,12.1-14.8c5.2-5.4,12.4-14.9,14.5-18.5c2.2-3.7,10.7-13.8,10.7-13.9
			c0,0.1,2.4,11.6-3.7,16.1c-6.3,4.7-20.5,18.2-22.6,21.6c-2.2,3.5-8.5,10.4-11.8,13.3c-0.9,0.8-1.2,1.5-1,2
			c0.3,0.9,1.9,1.3,3.3,1.3c0.7,0,1.4-0.1,1.9-0.3c0.5-0.2,1.1-0.3,1.6-0.3c0.7,0,1.2,0.1,1.9,0.3c0.8,0.2,1.8,0.4,3,0.4
			c2.5,0,2.7-2,2.9-4.1c0.1-0.5,0.1-1,0.2-1.5c0.2-1.3,1.2-1.9,2.1-1.9c0.5,0,1,0.2,1.2,0.5c0.2,0.3,0.2,0.6,0.1,0.9
			c-0.6,1.7-0.9,5.9-1.1,10l0,0.5c-0.1,1.7-0.7,2.5-1.9,2.5c-1,0-2.1-0.6-3.1-1.1l-0.4-0.2c-0.3-0.2-0.7-0.4-1-0.5
			c-1.2-0.7-2.6-1.4-3.8-1.4c-0.4,0-0.7,0.1-1.1,0.2c-0.7,0.4-1.1,1-1.5,1.6c-0.5,0.8-0.9,1.5-2,1.5c-0.2,0-0.3,0-0.5,0
			c-0.7-0.1-1.3-0.2-1.8-0.2c-1.4,0-2.3,0.5-3.2,1.7c-0.9,1.2-2,1.6-3.5,2.1c-0.8,0.3-1.6,0.6-2.6,1c-2.6,1.2-3.9,3.9-4.2,8.3
			c-0.2,4-2.7,4.6-4.4,5c-0.4,0.1-0.6,0.2-0.7,0.4c-0.1,0.3,0.1,0.7,0.4,1.3c0.3,0.5,0.7,1.2,0.7,2c0.1,0.5,0.2,1.2,0.4,1.9
			c0.4,1.7,0.9,3.7,0.3,4.7c-0.1,0.2-0.4,0.4-0.7,0.5C204.4,371.3,204.1,371.4,203.7,371.4z"/>
	</g>
	<g id="b_2_" transform="translate(0,-6.5005741)">
		<path id="path5589_2_" class="st1" d="M442.2,393.6c-1.2,0-2.4-0.2-3.4-0.4c-3.4-0.6-4-3.4-4-3.4c0.1,0,7.4-0.7,8-4l0.6-3.4
			c0,0-2.3,1-4.2,1c-0.7,0-1.3-0.1-1.7-0.4c-0.4-0.3-0.6-0.7-0.7-1.3c-0.3-1.9,0.9-5.1,1.7-6.1l0.3-0.4c0.5-0.7,0.9-1.2,0.8-1.5
			c-0.1-0.2-0.3-0.2-0.8-0.2c-1.2,0-4.3-0.2-5.9-2c-0.8-0.9-1.1-2.1-1-3.6c0.2-2.1,0.9-3.6,1.3-4.5c0.3-0.8,0.5-1.3,0.3-1.6
			c-0.2-0.2-0.6-0.3-1.6-0.3c-2.6,0-2.7-1.4-2.8-3.1c-0.1-0.6-0.1-1.2-0.3-1.8c-0.3-1-0.2-2-0.1-2.9c0.1-1.4,0.1-2.6-0.8-3.5
			l-0.5-0.5c-1-1-1-1-2.9-1c-2.1,0-3.1-0.6-4-2.5c-0.6-1.3-1.5-2-2.4-2c-0.5,0-1.1,0.3-1.6,0.8c-1.6,1.5-4.7,1.5-6.5,1.5
			c-0.3,0-0.5-0.1-0.6-0.2c-0.2-0.3-0.2-0.8-0.1-1.2c0.1-0.5,0.1-0.9-0.1-1.2c-0.1-0.1-0.3-0.2-0.5-0.2c-0.1,0-0.2,0-0.3,0
			c-1,0.1-1.5,1-2.1,1.9c-0.7,1.1-1.4,2.1-2.9,2.1c-2.7,0-5-2.4-5-4c0-1.5-0.3-2.8-0.3-2.8c0,0-2.5,1.6-2.8,4.6
			c-0.3,3,1.8,6.7,1.8,6.8c-0.1,0-0.3,0-0.4,0c-1.3,0-4.4-0.2-6.4-2.3c-1.2-1.3-1.7-3.1-1.6-5.4c0.6-8.2,7.7-15,7.8-15.1
			c0,0,1-2.2,3.1-3.1c0.4-0.2,0.8-0.2,1.2-0.2c1.7,0,3.3,1.4,4.1,2.7c0.9,1.5,1.2,4.9,1.2,4.9c0,0,1.8-0.7,3.6-0.7
			c0.8,0,1.4,0.1,2,0.3c1.3,0.5,2.1,0.7,2.6,0.7c0.3,0,0.4,0,0.5,0l0,0c-0.1-0.1-2.2-3.7-3.4-3.7c-1.3,0-3.5-2.9-5-5.5
			c-0.7-1.3-1.9-2.4-3.2-3.7c-1.5-1.5-3.2-3.1-4.9-5.6c-3.2-4.7-10.4-11.6-14.3-14.5c-0.8-0.6-1.5-1.1-2.2-1.7
			c-3.1-2.3-6.1-4.6-8.6-7.6c-0.9-1-0.4-3.6,1.5-7.6c3.6-7.6,11.1-18.2,11.5-18.2c0.1,0.3,12,32.2,27.3,49
			c13.8,15.1,17.3,16,19,16.5c0.2,0.1,0.4,0.1,0.6,0.2l1.5,0.6c0,0,1.2,0.5,2.4,0.5c0.9,0,1.7-0.3,2.2-0.8c0.3-0.3,0.5-0.5,0.7-0.7
			c1-1.1,1.6-1.8,4-1.8c2.8,0,3.4-0.6,4-2.8c0.5-1.7,1.8-6.1,4-6.1c0.3,0,0.7,0.1,1,0.3c2.8,1.5,4,2.8,4,2.8c0,0,0.2,0,0.5,0
			c1.8,0,7.6,0.4,9.7,6.2c2.4,6.6-0.1,10.5-2.2,12.9c-1.2,1.3-2,1.6-2.4,1.6c-0.2,0-0.4-0.1-0.4-0.1c0-0.1,1.9-5.7,0.9-7.5
			c-0.1-0.3-0.3-0.5-0.6-0.5c-0.2-0.1-0.4-0.1-0.6-0.1c-1.7,0-2.5,2.5-2.5,2.5s-0.7,2.4-2.4,2.4c-0.4,0-0.7-0.1-1-0.3
			c-2.5-1.2-3.7-3.7-3.7-3.7c0,0-1.6,0.6-2.2,2.5c-0.6,1.8-5.1,2.5-5.3,2.5h0c0,0,1.7,1.5,10.2,2.5c3.2,0.3,5.7,0.5,7.6,0.5
			c1.9,0,2.4-0.2,2.4-0.2c0,0,2.3-2.5,5.1-2.5c0.3,0,0.6,0,0.8,0.1c3.1,0.6,2.5,4,2.5,4c0.1,0,9.3,4.1,9,11.7
			c-0.3,7.6-10.4,14.1-10.6,14.2c0-0.1,3.1-7.1,3.1-9.8c0-2.7-2.4-3.1-2.5-3.1c0,0-0.7,4.6-4.7,4.9c-0.2,0-0.3,0-0.5,0
			c-3.5,0-5.4-3-5.4-4.6c0-1.4,0.5-1.5,0.6-1.5l0,0c-0.1,0-0.8-0.2-1.6-0.2c-0.8,0-1.5,0.2-2.1,0.5c-0.9,0.5-2.2,0.9-3.4,0.9
			c-0.9,0-2.1-0.2-2.8-1.2c-0.6-0.9-0.5-1.8-0.5-2.6c0-0.5,0-1-0.2-1.2c-0.1-0.1-0.3-0.2-0.6-0.2c-0.7,0-1.4,0.6-2,1.2
			c-0.8,0.7-1.7,1.6-2.9,1.6c-1,0-1.5-1.2-2-2.5c-0.6-1.4-1.2-2.9-2.6-3.1l-2.8-0.3c0,0.1,3.7,8.3,5.3,9.8c1.5,1.5,2.5,6.4,2.5,6.5
			c0.1,0,5.3,1.9,7.1,4.3c1.8,2.4,0,4.9,0,4.9c0,0.1,1.8,7.5-3.1,12.6C448,392.2,445.3,393.6,442.2,393.6L442.2,393.6z"/>
		<path id="path5591_2_" class="st2" d="M438.2,391.1c0.1,0,6.1-2,7.2-5.4c1.1-3.4,0.9-6.3,0.9-6.3c0,0,0.1-0.4,0.5-0.4
			c0.3,0,0.8,0.4,1.3,1.1c0.6,0.8,1,1,1.3,1c0.2,0,0.3-0.1,0.5-0.2c0.2-0.3,0.3-0.8,0.2-1.2c-0.1-0.3,0.1-0.8,0.4-1.2
			c0.5-0.7,1.5-1.2,1.8-1.2l0,0c0,0.1,1.5,6.4-2.9,11.1c-2.4,2.7-5.6,3.2-7.9,3.2C439.6,391.5,438.2,391.1,438.2,391.1z
			 M439.8,381.9c-0.3,0-0.6-0.1-0.7-0.4c-0.4-0.7-0.2-2.2,0.6-3.7c1.3-2.6,8.5-8,8.6-8.1l2,0.9c2,0.9,2.4,4.3,2.4,4.4
			c-0.1,0.1-0.3,0.1-0.6,0.1c-0.8,0-2.4,0.1-4.4,1c-1.5,0.7-2.9,2.1-4.1,3.3c-1,1-2,2-2.9,2.4C440.3,381.9,440.1,381.9,439.8,381.9
			L439.8,381.9z M444.8,370.4l-2.4-2.8c-0.1-1.4-0.8-2.1-1.6-2.9c-1-1-2.2-2.2-2.8-5.4c0.2-0.3,0.3-0.7,0.1-1.2
			c-0.4-1.1-1.9-2.2-2.9-2.5c-1.5-0.4-1.3-1.6-1.1-3.3l0-0.2c0.2-1.7-1.1-3.5-3.1-4.1c-1.7-0.6-1-3.2-0.6-4.6
			c0.1-0.3,0.1-0.5,0.2-0.6c0.1-0.3-0.2-0.8-0.7-1.4c-1-1.2-2.8-2.5-3.9-2.5c-0.8,0-1.2-1-1.7-2.1c-0.6-1.3-1.2-2.8-2.5-2.8
			c-0.2,0-0.3,0-0.5,0.1c-0.2,0-0.4,0.1-0.6,0.1c-0.9,0-1.2-0.8-1.6-2.2c-0.5-1.7-1.2-4.3-3.6-7.4c-1.9-2.4-5-6.2-8.4-10.2
			c-5.3-6.4-11.4-13.6-13.6-17c-1.2-1.9-3.2-4.6-5.4-7.4c-4.2-5.5-8.5-11.2-7.8-12.8c1.1-2.3,5-5.7,5.3-5.9l0,0
			c0.3,0.9,12,25.9,21.3,38.9c7.6,10.7,18.6,19.4,23.2,23.1c1.2,0.9,2,1.6,2.4,2c1.2,1.2,1.1,3.6,0.9,5.6c-0.1,0.9-0.1,1.7,0,2.3
			c0.1,1.1,0.9,2.9,1.8,5c0.7,1.5,1.3,3,1.9,4.5c0.7,2,2.5,4.8,4.2,7.3c1.4,2.1,2.6,3.9,2.9,4.9c0.6,2.2,1.7,4.1,1.8,4.1
			L444.8,370.4z M475.5,367.8c0-0.1,2.6-7,0.2-8.9c-2.4-1.9-4.4-2-4.4-2c0-0.1-1.3-5.9,2-8.5c0.1,0,7.5,4,7.5,9.4
			C480.7,363.1,475.5,367.7,475.5,367.8L475.5,367.8z"/>
		<path id="path5593_2_" class="st2" d="M466.6,361.9c-0.4,0-0.7-0.1-1-0.2c-1.5-0.9-1.5-5.8-1.1-9.8c0.5-4.1,2.5-7.6,4.6-7.9
			c0.1,0,0.2,0,0.3,0c1.9,0,2.2,2.4,2.2,2.4c0,0-1.5,2.9-2,6.5c-0.4,3.7,0.9,5.6,0.9,5.7l-0.2,1.1
			C470,360.6,468.1,361.9,466.6,361.9L466.6,361.9z M456.4,357.4c-1.1,0-2-1.9-2-3.6c0-1.4-0.4-3.7-1.4-3.7c-0.2,0-0.5,0.1-0.8,0.4
			c-0.7,0.7-4.1,4.1-5.2,4.1c-0.1,0-0.2-0.1-0.3-0.2c-0.1-0.2-0.3-0.7-0.5-1.3c-0.6-1.5-1.4-3.7-2.3-4.8c-0.8-0.9-3.1-1.1-4.9-1.1
			c-0.9,0-1.6,0.1-1.6,0.1h0c0,0-2-2.2-1.8-4.4c0.1-0.8,0.3-1.6,0.4-2.4c0.3-1.3,0.5-2.4,0.2-3l-0.4-1.1c0,0.1,4.4,6.1,8.3,8.1
			c3.5,1.8,17,2.6,19.3,2.6c0.2,0,0.3,0,0.4,0l0,0l0,0c-0.1,0.2-0.9,2.9-1.3,5.4c-0.4,2.6-0.7,4.1-0.7,4.1c0,0-1.1-0.2-2.2-0.2
			c-1.2,0-2.1,0.2-2.6,0.6C456.8,357.3,456.6,357.4,456.4,357.4L456.4,357.4z M392.8,347.8c0,0-2,0-2.4-4.4
			c-0.4-4.3,6.9-12.1,7-12.2l1.1,1.7c1.1,1.7-0.2,5.4-0.2,5.5C393.1,341.2,392.8,347.7,392.8,347.8L392.8,347.8L392.8,347.8z
			 M464.3,342.1L464.3,342.1c0-0.1,0.9-5.3-0.4-6.9c-0.2-0.3-0.5-0.4-0.8-0.5c-0.1,0-0.3,0-0.4,0c-2.2,0-3.3,1.1-3.3,1.1
			c0-0.1,1.5-7.3-1.8-10.6c0,0,0.4-0.1,1-0.1c1.9,0,6.4,0.7,8.2,7C469,340.1,464.4,342,464.3,342.1L464.3,342.1z"/>
		<path id="path5595_2_" class="st2" d="M442.7,340.5L442.7,340.5L442.7,340.5c0,0-3.9-2.3-5.1-3.9c-1.2-1.5-1.9-2-1.9-2
			c0,0,3.3,0,4.6-1.2c0.2-0.2,0.4-0.3,0.5-0.5c1.1-1,1.8-1.7,4-1.7c2.4,0,4-2.4,4-2.5l0.8,1.8c0.8,1.8,2.2,4.4,2.2,4.5
			c0.1,0.1-0.1,0.3-0.5,0.5c-0.6,0.4-1.7,1.1-2.7,2.6C446.9,340.5,442.7,340.5,442.7,340.5L442.7,340.5z M456.2,338.4
			c-0.5,0-1-0.2-1.3-0.7c-1.2-1.7-5.4-10.4-5.4-10.5c0,0,2-4.2,3.8-4.2c0.2,0,0.4,0.1,0.6,0.2c1.9,1.1,3.7,3.8,4.3,6.3
			c0.6,2.6,0.3,7.6,0.3,7.7C458.4,337.5,457.3,338.4,456.2,338.4L456.2,338.4z"/>
		<path id="path5597_2_" class="st3" d="M435.3,371.3c-0.3-0.1-0.5-0.2-0.7-0.5c-0.6-0.9-0.1-3,0.3-4.7c0.2-0.7,0.3-1.4,0.4-1.9
			c0.1-0.8,0.4-1.5,0.7-2c0.3-0.5,0.5-1,0.4-1.3c-0.1-0.2-0.3-0.3-0.7-0.4c-1.7-0.4-4.2-1-4.4-5c-0.2-4.4-1.6-7.1-4.2-8.3
			c-1-0.4-1.8-0.7-2.6-1c-1.5-0.5-2.7-0.9-3.5-2.1c-0.9-1.2-1.9-1.7-3.2-1.7c-0.5,0-1.1,0.1-1.8,0.2c-0.2,0-0.4,0-0.5,0
			c-1.1,0-1.5-0.7-2-1.5c-0.4-0.6-0.8-1.2-1.5-1.6c-0.3-0.2-0.7-0.2-1.1-0.2c-1.2,0-2.6,0.8-3.8,1.4c-0.3,0.2-0.7,0.4-1,0.5
			l-0.4,0.2c-0.9,0.5-2.1,1.1-3.1,1.1c-1.2,0-1.8-0.8-1.9-2.5l0-0.5c-0.2-4.1-0.4-8.3-1.1-10c-0.1-0.3-0.1-0.7,0.1-0.9
			c0.2-0.3,0.7-0.5,1.2-0.5c0.9,0,1.9,0.6,2.1,1.9c0.1,0.5,0.1,1,0.2,1.5c0.2,2.1,0.4,4.1,2.9,4.1c1.3,0,2.2-0.2,3-0.4
			c0.7-0.2,1.3-0.3,1.9-0.3c0.6,0,1.1,0.1,1.6,0.3c0.5,0.2,1.2,0.3,1.9,0.3c1.3,0,2.9-0.4,3.3-1.3c0.2-0.6-0.1-1.3-1-2
			c-3.3-2.9-9.7-9.8-11.8-13.3c-2.1-3.3-16.2-16.8-22.6-21.6c-6.1-4.5-3.8-16-3.7-16.1c0.1,0.1,8.6,10.3,10.7,13.9
			c2.1,3.6,9.3,13.1,14.5,18.5c5,5.2,10.9,12.2,12.1,14.8l0.4,0.9c1,2.4,2,4.8,3.3,5.4c1.6,0.7,2.9,2.9,3.3,4.6
			c0.2,0.8,1.1,1,2.1,1.1c1,0.1,2.2,0.3,2.7,1.3c0.4,0.7,0.6,1.8,0.9,2.9c0.4,2,0.9,4.2,2.4,5.1c1.2,0.8,1.3,2.1,1.5,3.5
			c0.1,1.5,0.3,3,1.6,3.9c1.7,1.1,2.3,3.3,2.8,5c0.3,1,0.5,1.9,0.9,2.4l0.2,0.3c0.8,0.9,1.3,1.6,1.7,1.6c0.1,0,0.2,0,0.3-0.1
			c0,0,0.9,1.5,0,2.8c-0.7,1-2.2,2.1-3.9,2.1C435.9,371.4,435.6,371.3,435.3,371.3z"/>
	</g>
	<path id="path5600_1_" class="st4" d="M274.8,62c-5.2,0-12,1.2-14.2,2.2c-2.1,1-6.7,4.5-6.7,6.1L266.1,85
		c31.6,6.6,10.4,7.4,11,10.8c3.4,0.1,8,2.1,11.1,4.5c1.4,1.3,2.1,6.2,0.8,11.3c-0.4,1.4-1.2,2.1-2.6,2.1c-2.7,0-6.5-2.9-6.5-3
		c0,0-0.1,1.4,2,4.1c0.9,1.1,2.3,1.6,4.4,1.6c1.8,0,3.3-0.4,3.3-0.4c0,0.1-1.3,6-3.3,8.5c-0.4,0.6-1,0.8-1.7,0.8
		c-1.9,0-4-2.3-4.1-2.4c0,0-0.5,0.7,0,2.9c0.3,1.2,1.5,1.5,2.5,1.5c1,0,1.8-0.2,1.8-0.3c0,0-0.2,0.9-1.7,2.2c-1,0.9-3.2,1.1-5.5,1.1
		c-0.6,0-1.2,0-1.8,0c-0.6,0-1.2,0-1.8,0c-3.5,0-3.7-5.9-3.7-5.9c0,0-2.7,2.4-0.7,5.6c1.9,3,4.5,3.3,4.9,3.3c0,0,0,0,0,0l-0.5,0.7
		c-0.2,0.3-1,0.5-2.2,0.5c-1.2,0-3.8-0.2-7.9-1.5c-6.1-1.9-5.6-8.2-5.4-10.1c0.1-0.9,1-1.3,2.5-1.3c1.2,0,2.4,0.3,2.5,0.3
		c-0.1,0-1.7-0.6-2.8-1.6c-1.1-1-2.2-2.2-2.2-2.2l2,0.5c0.2,0.1,0.5,0.1,0.7,0.1c0.4,0,0.9-0.1,1.3-0.1c0.4-0.1,0.9-0.1,1.3-0.1
		c1.1,0,1.9,0.5,2.9,1.6c0.6,0.7,0.9,1.4,0.7,2c-0.5,1.4-2.9,1.9-3,1.9c0,0,1,0.7,3,0.7c0.5,0,0.9-0.2,1.2-0.5
		c0.7-0.8,0.8-2.6,0.2-6c-0.4-2.4-2.9-2.6-5-2.6c-0.7,0-1.4,0-2.1,0.1c-0.6,0-1.2,0.1-1.7,0.1c-0.3,0-0.7,0-0.9-0.1
		c-2.4-0.3-4.1-3-4.5-3.6c0.1,0.3,0.5,1.2,1.3,4.1c1.1,3.8,0.6,9.9,0.5,11.1c-0.3-0.1-1-0.1-2.2-0.1c-1.3,0-3-0.6-5-1.3
		c-2.6-0.9-5.8-2.1-9.3-2.1c-2.3,0-4.1,0.7-5.5,2.1c-1.6,1.7-2.5,4.4-2.4,7.4c0.2,4.3,4.6,4.6,4.9,4.6c-0.1,0-5-2.3-3.2-7
		c1-2.6,4.2-3.2,6.7-3.2c2.2,0,4.1,0.4,4.2,0.4c0,0-3.2,1.9-3.7,4.5c-0.5,2.5,2.3,4.3,2.4,4.3c0,0-1.4-1.8-0.8-3.5
		c0.4-1.1,1.4-1.9,3.1-2.5c1-0.3,2-0.4,2.8-0.4c2.8,0,4.2,1.6,5.3,2.8c0.3,0.3,0.5,0.5,0.8,0.8c1.5,1.3,6.1,1.7,6.4,1.7
		c-0.2,0-3.5,0.3-7.6,2.4c-1,0.5-1.6,1.2-1.6,2.1c-0.2,2.2,2.9,4.8,3.8,5.6c0.3,0.2,0.5,0.3,0.8,0.3c1.1,0,2-1.7,2-1.7l-0.1,0
		c-0.6,0-2.5-0.1-3.2-1.1c-0.3-0.5-0.3-1.2,0.1-2.1c1.2-2.8,6.9-2.8,11.9-2.9c1,0,2,0,2.9,0c3.7-0.1,4.9-1,5.2-1.6
		c-0.2,0.5-0.6,1.5-0.7,2.8c-0.2,1.7,1.7,3.1,1.7,3.1c0,0,0-2.1,1.3-4.5c1.3-2.4,7.7-4.6,7.7-4.6c0,0,0.4,1.4-0.1,3.6
		c-0.3,1.3-1.9,1.7-3.7,2c-1.1,0.2-2.3,0.5-3.1,1c-1.8,1.4-0.7,4.4-0.7,4.5c0,0,0-0.4,1.5-2.5c0.5-0.7,1.1-1.1,1.9-1.1
		c1.1,0,2.1,0.7,2.1,0.7c0,0,0.3,1.3-2.7,6.7c-0.8,1.5-1.8,2.3-2.8,2.3c-1.9,0-3.4-2.8-3.4-2.8l-0.3,2.5c-0.1,0.4,0,0.8,0.3,1.1
		c0.6,0.6,1.8,0.8,2.8,0.8c0.9,0,1.8-0.2,1.8-0.2c0,0.1-1.1,1.4-6.2,2.8c-0.5,0.1-1,0.2-1.6,0.2c-0.8,0-1.4-0.3-1.8-0.8
		c-0.8-1.1-0.2-3.2-0.2-3.2c0,0-2.2,2.1-1,4.5c0.4,0.8,1.3,1.3,2.6,1.3c1.5,0,3-0.6,3.1-0.6l-1.5,1.4c-1.6,1.5-3.7,2.9-9.6,3.4
		c-0.8,0.1-1.6,0.1-2.3,0.1c-4.4,0-6.5-1.3-8.8-3.8c-2.4-2.5-5-2.8-8.7-2.8h-1.3c-2.4,0-4.9,1.7-7.4,3.4c-2.2,1.5-4.3,2.9-6.2,3.2
		c-0.3,0-0.5,0.1-0.8,0.1c-3.5,0-5.9-4.1-6.6-6.9c-0.5-1.9,0.6-2.7,2-3.7c0.5-0.4,1.1-0.8,1.7-1.4c1.5-1.4,2.4-4.6,1.8-6.7
		c-0.3-1.2-1.1-2-2.2-2.2c-2.7-0.7-4.8-2.9-6-6.8c-0.5-1.5-1.7-2.5-3.1-2.5c-0.9,0-1.8,0.5-2.5,1.3c-0.6,0.7-1.4,1.1-2.5,1.1
		c-1.5,0-3.3-0.9-4.7-1.7c-0.7-0.4-1.2-1.1-1.3-2.2c-0.3-2.1,0.4-4.7,1.7-6.1c0.6-0.7,1.3-1.5,2-2.4c1.4-1.9,3-3.9,4.8-4.9
		c0.5-0.3,1-0.4,1.5-0.4c1.9,0,3.3,2.3,4.4,4.2c0.6,1,2,1.6,4,1.6c2.4,0,5-0.9,6.3-2.1c2.4-2.3,3.3-12.9,2.2-18.6
		c-0.7-3.5-6.7-7.7-11.6-11.2c-3.3-2.3-6.1-4.4-6.6-5.6c-1.2-3,2.2-4.7,2.2-4.8c0,0-1.1-0.6-2.2-0.6c-0.9,0-1.6,0.3-2.1,0.9
		c-1.7,1.9,0,5.1,0,5.1c0,0-2-0.2-3.8-2.7c-1.3-1.8-2.7-2.2-4.7-2.7c-1-0.3-1.9-0.6-2.9-0.9c-3.6-1.3-3.5-5.1-3.6-5.1
		c0,0-2,1.1-1.2,3.3c0.8,2.1,2.8,2.5,3,2.5h-1.8c-1.8,0-3.7,0-6.5-1.7c-3-1.8-4.5-3.3-5-7c-0.1-0.8,0.1-1.6,0.6-2.2
		c1-1.1,2.9-1.6,4.4-1.6c0.8,0,1.5,0.1,1.7,0.4c0.5,0.5-0.2,1.5-0.7,2.2c-0.3,0.4-0.6,0.8-0.5,0.9c0,0.1,0.1,0.1,0.3,0.1
		c0,0,0.1,0,0.1,0c0.6-0.1,1-0.5,1.3-0.9c0.4-0.5,0.8-0.9,1.5-0.9c0.3,0,0.5,0.1,0.8,0.2c0.3,0.1,0.7,0.2,1.1,0.2c1,0,2.2-0.5,3.6-1
		c1.3-0.5,2.7-1.1,4.3-1.4c0.6-0.1,1.2-0.2,1.7-0.2c1.3,0,2.2,0.3,2.7,1c0.6,0.8,0.7,1.9,0.3,3.4c-0.2,0.9-0.8,1.4-1.6,1.4
		c-1.6,0-3.7-1.8-3.8-1.8c0,0-0.3,0.7,0.1,1.5c0.5,0.8,1.5,1.3,3.2,1.5c0.2,0,0.5,0,0.7,0c1.6,0,2.7-0.7,3.2-2
		c0.6-1.5-0.1-3.4-1.7-4.7c-1.4-1.2-2.8-1.8-4.2-1.8c-1.6,0-3.1,0.7-4.4,1.4c-0.9,0.5-1.6,0.8-2.4,0.8c-1.3,0-2.5-0.8-4.2-2
		l-0.2-0.1c-0.7-0.5-1.6-0.8-2.5-0.8c-2.8,0-5.9,2-7.6,4.9c-2.3,4.1,6.6,11,6.7,11.1l-4.7-1.2c-1.7-0.4-3.6-0.5-5.4-0.5
		c-3.2,0-6.1,0-7.2-2.4c-1.7-3.7-5.8-9.8-5.9-9.9c0,0.1-3.2,7-4.7,9.2c-0.6,0.9-0.7,2.4-0.2,4c0.8,2.4,2.6,4.3,4.9,5.2
		c4.5,1.7,13.5,4.7,13.6,4.7c-0.1,0-9.1,0.5-12.6,1.1c-1.6,0.2-4.6,0.4-7.5,0.4c-4.3,0-7.6-0.3-8.8-0.9c-0.9-0.4-1.7-0.9-2.6-1.3
		c-1.7-0.9-3.3-1.7-4.8-1.9c-2.3-0.3-5.5-6.4-5.5-6.5c0,0,0,1.4,2.5,5.1c2.5,3.7,6.8,5.6,12.4,7.3c1.1,0.3,2.7,0.5,4.7,0.5
		c7.2,0,18-2,18.1-2.1c0,0-1.7,1-4.5,2.8c-2.7,1.6-13.6,5.9-23,8c-0.8,0.2-1.6,0.3-2.4,0.3c-7.3,0-10.3-8-10.3-8.1
		c0,0-3.1,2.4-4.4,7c-1.5,5.2,3.7,9.6,8.4,12.3c1.6,1,3.3,1.4,4.9,1.4c1.2,0,2.3-0.3,3.4-0.8l-1.9,1.2c0,0,1.4,0.1,3.5,0.1
		c1.9,0,4.9-0.1,8.1-0.7c6.1-1,21.3-8.1,21.5-8.2c-0.2,0.1-18.6,11.5-30.9,16.9c-4.1,1.8-7.5,2.7-10,2.7c-1.9,0-2.9-0.5-3.5-0.8
		c-0.3-0.1-0.5-0.2-0.6-0.2c-0.1,0-0.2,0-0.3,0.1c-0.1,0.2-0.2,0.3-0.1,0.5c0.2,0.8,2.1,1.7,2.1,1.7l-4.9,0.2c-0.1,0-0.3,0-0.4,0
		c-4.7,0-9.1-2.5-9.2-2.5c0,0,1.8,2.9,7.3,4.1c1.2,0.3,2.4,0.4,3.7,0.4c5.2,0,11.8-2,21.4-6.5c11.8-5.6,25.4-14,26.2-14.5
		c-0.4,0.3-4.3,2.9-8.6,5.9c-2.3,1.6-6.3,4.8-10.5,8.2c-4,3.2-8.2,6.5-10.8,8.4c-6.6,4.8-15.8,11.3-19.2,11.3c-2.4,0-3.2,0.3-4.8,1
		c-0.8,0.3-1.7,0.7-3.1,1.2c-0.4,0.2-0.8,0.3-1.2,0.3c-3.3,0-4.3-5.3-4.3-5.4c0,0-0.5,0.7-0.7,3.3c-0.2,2.5,3.2,4.4,3.2,4.4h-1.8
		c-1.7,0-4.5-2.9-4.6-2.9c0,0-0.8,1.3,0.5,6.2c1.3,4.8,8.2,9.1,12.7,9.1h0.3c4.3-0.2,10.7-7,10.7-7c0,0,0,0.2-0.2,1.9
		c-0.2,1.7-6.3,4.7-6.4,4.8c0,0,1.2,0.3,3.4,0.3c0.8,0,1.7,0,2.5-0.1c3.9-0.4,6-1.1,12.8-5.6c6.8-4.6,23.7-19.7,23.9-19.8
		c0,0,0,0.2-0.3,2c-0.2,1.2-3.3,4.4-6.5,7.8c-1.9,2-4,4.1-5.3,5.7c-3.5,4.3-17.1,16.1-21,18.5c-2.1,1.3-5,1.8-7.2,2.2
		c-1.8,0.3-3.4,0.6-4.1,1.2c-0.3,0.3-0.4,0.6-0.4,0.8c0.2,0.4,1.3,0.5,1.9,0.5c0.2,0,0.3,0,0.3,0c-0.3,0.2-3.7,2.8-6.9,3.4
		c-3.3,0.7-8.4,0.8-8.4,0.9c0,0,2.3,1.4,5.7,1.4c2.2,0,4.4-0.6,6.6-1.8c6.9-3.7,23-13.3,26.4-17.4c3.3-4.1,21.2-22.2,21.4-22.4
		c0,0-0.7,1.9-2.7,3.9c-2,2-16.7,22.9-19,27.5c-2.3,4.6-18.5,21.7-26.5,26.5c-1.8,1.1-3.5,1.6-5,1.6c-4.2,0-5.8-4.1-5.9-4.2
		c0,0.1-4,6.6-1.5,13.2c1.7,4.4,7.3,7.1,14.8,7.1c2.5,0,5.1-0.3,7.5-0.9c2.7-0.7,4.6-2,5.8-3.9c1.9-3.1,1-6.8,0.9-6.9
		c0,0,1,1.4,1,3.4c0,2-0.5,3.6-0.5,3.6l5.2-3.4c3.5-2.3,8.6-9.9,14-18.1c2.7-4,5.4-8.1,8-11.7c3-4,4.7-6.3,5.1-6.3
		c0.2,0.2-0.7,2.2-2,5.3c-0.7,1.6-1.5,3.4-2.4,5.5c-4.7,11.1-23,37.8-23.2,38.1l-5.9,8.7c-4.9,7.3-9.7,8.7-12.6,9.6
		c-0.6,0.2-1.1,0.3-1.5,0.5c-1.6,0.7-1.8,2.2-1.9,3.5c-0.1,0.7-0.1,1.3-0.4,1.6c-0.8,0.8-8.8,5.2-8.9,5.3c0,0,0.1,0.3,0.7,0.3
		c1,0,4-0.8,12.3-6c10.4-6.5,22.1-21.7,37.1-47.7c11.3-19.6,13.8-22.9,13.8-22.9l-0.2,2.1c-0.2,2-8.4,21.4-15.8,37.6
		c-7,15.3-29.7,52.3-36.1,57.6c-1.7,1.4-3.2,2.1-4.6,2.1c-2.8,0-4-2.9-4-2.9c0,0-2,1.9,0.4,7.2c2.3,5.2,8.5,7,12.1,7
		c0.2,0,0.3,0,0.5,0c3.9-0.2,10.1-2.2,15.8-7.3c5.5-5,3.6-10.1,3.4-10.6c0.2,0.3,1.2,2.3,1.5,4.1c0.3,1.9-0.5,4.9-0.5,5
		c0,0,3.5-4.4,4.7-5.6c0.7-0.7,1.7-2.5,2.6-4.4c0.6-1.2,1.3-2.4,1.9-3.4c1.3-2,2.4-3.5,4.3-6l1.2-1.7c2.7-3.5,2.5-20.6,2.5-20.8
		c0,0,0.7,0.7,1.5,3.6c0.8,2.9,0.7,8.5,0.7,8.6c0.1-0.1,6.4-6.9,8.9-10.9c1.2-2,2.6-6.5,4-11.4c1.5-5.2,3.1-10.6,4.5-12.5
		c2.6-3.7,4.8-5.9,4.9-6c-0.1,0.3-10.5,28.8-14.6,38.6c-3.2,7.5-9.7,20.2-13.6,27.8c-0.9,1.8-1.8,3.6-2.8,5.5
		c-1.6,3.3-9.2,10.9-13.7,15.4c-2.1,2.1-3.7,3.7-3.7,3.9c0,0.1,0,0.4,0,0.6c0,1.1-0.1,3-2,5.2c-2.3,2.7-10.3,8.2-10.4,8.2h1.2
		c1.2,0,10.9-7.5,14.5-11.5c2.2-2.4,13.6-15.6,23-33c8.6-16,23.9-56.1,24-56.5c0,0,0.4,1.1,0.4,4.9c0,3.9-18.3,51.1-18.5,51.6l2.5,0
		c0,0-0.8,2.1-2.9,7.2c-1.8,4.6-13.8,29.7-22.5,41.2c-3.2,4.2-6.2,6.3-8.9,6.3c-1.6,0-2.7-0.8-3.4-1.3c2.3,2.6,8.2,8.8,12,10
		c0.8,0.3,1.8,0.4,2.9,0.4c4.7,0,10-2.5,12.3-4.4c2.9-2.3,7-8.5,8.3-12c0.6-1.6,1-1.9,1.3-1.9c0.3,0,0.5,0.5,0.5,0.5l0.7,6
		c0.1-0.1,7.1-6.1,11.9-11.1c4-4.2,9-20.1,11.7-28.6c0.6-1.9,1.1-3.4,1.4-4.3c1.8-5,4.1-13.4,4.9-19c0.8-5.6-4.3-13.4-4.4-13.5
		c0,0,2.2,0,4.9,4.2c1.3,2.1,2.1,3.2,2.4,3.2c0,0,0-0.1,0-0.1l0.9-7.7c0.8-7.6,5.8-31.4,5.8-31.6c0,0,1.5,2.3,1.3,6.3
		c-0.2,4.3-2.7,23.5-5.2,38.1c-2.5,14.7-9.8,35.5-9.9,35.7c0-0.1,4.2-6.1,7.5-17.8c3.3-11.7,11.4-64.2,11.4-64.7
		c0,0,1.3,1.3,1.2,7.5c-0.2,6.2-2.5,20.7-2.5,20.8l1.7-1.4c0,0-1.8,4.7-1.8,12.8c0,8-1.4,13.6-2.5,17.1c-1,3.2-4,5.8-4,5.8l3-1.6
		c0,0-0.2,2.6-0.8,5c-0.7,2.4-5.3,4.1-5.4,4.1c0,0,2.9,0,7.5-0.7c4.7-0.7,11.4-9.8,15.3-15.2c2.2-3.1,2.7-6.4,3.1-9.6
		c0.3-2.3,0.6-4.7,1.6-6.9c2.3-5.2,3.9-31,3.8-31.3c0,0.1,1.7,5.7,1.8,11.2c0.1,3.7-0.9,14-1.6,20.8c-0.3,3.5-0.6,6.2-0.6,6.9
		c0,1.9-4.6,16.4-4.7,16.6l1.3-1.4c0.9-0.9,1.7-4.1,2.9-9.1c0.4-1.6,0.8-3.4,1.3-5.3c2-7.8,4-35.4,4-35.7c0.1,0,6.2,4.4,7.5,5.8
		l0.3,0.3c1.5,1.5,5.1,5.1,5.1,8.9c0,4-3.6,14.8-6.1,16.9c-2.4,2.1-5.7,6.4-6.6,9.1c-0.7,2.4-6.1,13.6-10.6,15.6
		c-0.8,0.3-1.5,0.5-2.2,0.5c-2.9,0-4.6-2.7-4.6-2.7c0,0-0.7,4.4,1,5.3c0.5,0.3,1.3,0.4,2.4,0.4c1.9,0,4-0.4,4.1-0.4
		c-0.1,0.1-5.4,3.5-7.7,5.3c-2.3,1.9-1.7,5.1-1.7,5.1c0,0,0.9-1.6,3.4-4.3c2.5-2.7,9-5.1,9.1-5.1c0,0,0,0.4-0.3,3.3
		c-0.3,2.9-4,4.6-4,4.6c0,0,0.4-0.1,1.1-0.1c0.9,0,2.2,0.2,3.6,0.9c1.8,1,1.1,4.3,0.4,7.5c-0.3,1.4-0.6,2.7-0.7,3.9
		c-0.3,3.9-7,5.3-7.1,5.3c0,0,1.7,1.6,3.6,1.6c0.2,0,0.3,0,0.5,0c2-0.3,5-4.6,5-4.6c0,0,0.7,1.4,0.4,7c-0.3,5.5-4.5,9.9-8.1,10.4
		c-0.2,0-0.3,0-0.4,0c-0.6,0-1-0.2-1.3-0.6c-1-1.3-0.2-4.2-0.3-4.2c0,0-1.4,1.6-1.4,4.1c0,1,0.4,1.7,1.1,2.1
		c0.6,0.4,1.5,0.5,2.6,0.5c0.5,0,1.1,0,1.7-0.1c2.8-0.3,8.7-7.4,8.7-7.5v2c0,1.1,0.5,2.5,1.4,3.5c0.7,0.9,2,2,4,2c0.2,0,0.3,0,0.5,0
		c3.8-0.3,4.5-3.5,4.5-3.6c0,0-1.9,2.4-4.6,2.4c-0.5,0-0.9-0.1-1.4-0.2c-3.5-1-0.4-12-0.4-12.1c0,0,1.7,3.3,3.2,5
		c0.4,0.5,0.9,0.7,1.5,0.7c1.2,0,2.3-1,2.3-1.1c0,0-4.4-3.1-3.2-8.4c1.2-5.2,9.5-14.6,9.5-14.7c0,0,0,1.6-1,4.1
		c-1.1,2.7-0.4,6.1,1.5,7.5c0.9,0.7,2.1,1.1,3.2,1.1c0.5,0,0.8-0.1,0.8-0.1c0,0-4.2-2.9-4-5.3c0.2-2.3,5.2-10.8,9.9-17.9
		c4.3-6.6,10.4-11.7,10.4-11.8c0,0,0,0.3-0.1,2c-0.2,1.7,0.7,3.4,0.7,3.4c0-0.1,0.1-6.5,4.9-7.3c0.6-0.1,1.1-0.1,1.6-0.1
		c1.8,0,1.9,0.9,2.1,2.1c0.1,0.7,0.3,1.6,0.8,2.4c1.6,2.3,2.7,7.6,2.5,10.6c-0.2,2.9-4.5,3.9-4.5,3.9c0,0,0.5,1,3,1.4
		c0.1,0,0.3,0,0.4,0c2.3,0,4.5-2.6,4.5-2.6c0,0,0.8,1.1,0.8,3.8c0,2.8-3.6,7.7-7.7,8c-0.1,0-0.1,0-0.2,0c-1.9,0-2.5-2.2-3.2-4.6
		c-0.7-2.6-1.5-5.4-4-5.7c-0.4,0-0.7,0-1.1,0c-5,0-12.8,3.1-14.7,10c-0.7,2.4-0.3,4.5,1.1,6.3c2.2,2.8,6.1,4.1,8.9,4.1
		c0.3,0,0.6,0,0.9,0c1.3-0.1,2.2-0.6,2.8-1.5c1.1-1.6,0.6-4,0.5-4l-0.7,2.1c-0.3,0.9-1.2,1.3-2.5,1.3c-1.6,0-3.7-0.8-5.6-2
		c-0.9-0.6-1.4-1.4-1.5-2.2c-0.1-1.9,1.9-3.7,1.9-3.7c0,0,1.7,1.4,3.7,2.9c0.5,0.4,1.1,0.6,1.7,0.6c1.5,0,2.9-1.1,2.8-1.1h-2
		c-1,0-1.5-0.9-1.5-1.7c0-1,0.7-1.9,2.4-1.9c1.6,0,2.1,0.8,2.9,2c0.8,1.2,1.8,2.7,4.3,3.8c0.8,0.4,1.7,0.6,2.6,0.6
		c3.7,0,6.6-3.3,6.6-3.3c0,0,0.2,0.4-0.3,3.8c-0.5,3.2-2.9,7.2-5.9,9.7c-1.2,1-2.7,1.6-4,1.6c-1.6,0-2.6-0.8-2.7-2.1
		c0-0.4,0.1-0.7,0.3-1c0.7-0.8,2.5-0.9,3.8-0.9c0.8,0,1.5,0,1.7,0c-0.1-0.1-2.9-2.2-5.4-2.2c-0.8,0-1.4,0.2-2,0.7
		c-1.2,0.9-1.8,2.3-1.7,3.9c0.1,2.1,1.3,4,3.4,5.4c0.9,0.6,1.9,0.8,3.1,0.8c3.4,0,6.9-2.4,7-2.4c0,0-0.5,2.6-2.9,4.1
		c-1.7,1.1-4.5,1.7-7.8,1.7c-1.1,0-2.2-0.1-3.4-0.2c-0.8-0.1-1.6-0.1-2.4-0.1c-2.5,0-3.2,0.8-4.6,2.7c-1,1.3-2.2,1.6-3,1.6
		c-1.1,0-1.9-0.5-2.4-0.9c-1-1,1.5-4.6,1.5-4.6h-0.1c-0.4,0-1.5,0.1-2.9,1.3c-1.7,1.5-1,4.1-1.1,4.1c-0.4,0-1.4-0.1-2.7-1.4
		c-0.5-0.4-1.2-0.7-2.2-0.7c-2.2,0-5,1.2-5.8,3c-1,2.5,2,4.3,2,4.3c0,0-1-1.6,0.5-3.9c0.5-0.8,0.9-1.2,1.1-1.2
		c0.2,0,0.4,0.3,0.7,0.7c0.2,0.4,0.6,0.8,1.1,1.3c1.5,1.4,6.3,3.8,6.4,3.8c0,0-0.6,1.4-3,2.2c-2.6,0.9-6.5,5.6-7,9.2
		c-0.2,1.5,0.4,3.3,1.8,4.9c2.1,2.3,5.2,3.7,8.4,3.7c0.3,0,0.6,0,0.9,0c2.3-0.2,3.9-0.9,4.7-2.1c1-1.4,0.5-3.1,0.5-3.1
		c-0.5,0.7-1,1.5-1.5,2.2c-0.6,1-1.6,1.4-3.8,1.4c-0.4,0-0.9,0-1.5-0.1c-3.3-0.2-3.4-2.3-3.4-2.4c0.9-0.2,1.9-0.3,2.9-0.3
		c1.5,0,1.9-2.2,1.8-2.2c0,0-0.5,0.7-2.5,0.7c-0.5,0-0.8-0.2-1-0.5c-0.5-0.8,0.1-2.7,1.8-5.7c0.8-1.4,3-2.1,6.5-2.1
		c3.1,0,6.1,0.6,6.1,0.6l-0.3,3.6c-0.1,1.4-0.7,2.1-1.6,2.1c-0.8,0-1.6-0.6-1.6-0.6c0,0,0.2,0.2,3,2.1c0.6,0.4,1.2,0.6,1.7,0.6
		c1.4,0,1.8-1.7,1.8-1.8l0.1,2.7c0.2,2.7-3.5,3.1-3.5,3.1l1.2,0.9c0.6,0.5,1.7,0.8,2.8,0.8c1,0,1.8-0.3,2.3-0.8
		c1.1-1.1,1.7-3,1.8-6.3c0.2-3.1,1.2-4.9,3.4-6.3c2.2-1.4,10.2-8.6,10.2-8.7c0,0,0.2,0.2,0.5,2.7c0.1,0.6,0.1,1.1,0,1.7
		c1.1-0.6,3.2-0.9,3.2-0.9l-0.7,2.1c-0.1,0.4-0.3,0.8-0.4,1.2c-0.4,1.6-0.8,3-2.7,3.6c-0.2,0-0.3,0.1-0.5,0.1
		c-2.1,0-3.5-3.6-3.5-3.7c0,0-1.5,1.1-1.5,4.1c0,1.1,0.5,1.9,1.5,2.3c0.8,0.4,1.8,0.4,2.3,0.4c0.2,0,0.3,0,0.4,0l-1,0.8
		c-0.2,0.2-0.7,0.5-1.4,0.8c-2.3,1.2-6.7,3.5-8,7.2c-0.9,2.5-0.7,5,0.5,6.7c0.8,1.2,2,1.9,3.2,2c0.1,0,0.2,0,0.3,0
		c2.8,0,6.3-2.7,6.3-2.8c0,0-2,0.7-3.7,0.7c-1.4,0-2.1-0.4-2.1-1.3c0-2.5,3.2-2.6,3.2-2.6c0,0-2.2-0.7-2.6-1.9
		c-0.1-0.4-0.1-0.8,0.1-1.2c0.7-1.1,2.7-1.3,4.2-1.3c1.1,0,2,0.1,2,0.1v1.3c0,1.4,1.8,3.9,1.8,3.9c0,0,0-0.5,0.9-2.5
		c0.3-0.7,0.6-1.1,1-1.1c0.5,0,0.8,0.6,0.8,0.6v1.3c0,1.3-1.2,3-4.4,6.7c-2.7,3.2-9.6,7.4-13.1,7.4c-0.4,0-0.8-0.1-1.2-0.3
		c-0.8-0.4-1.4-0.5-1.9-0.5c-0.3,0-0.6,0.1-0.9,0.2c-0.4,0.1-0.8,0.2-1.3,0.2c-0.4,0-0.8-0.1-1.4-0.2c-0.6-0.1-1.1-0.5-1.3-1
		c-0.7-1.6,1.1-4.6,1.1-4.7c0,0-2.5,0.7-2.5,3.3c0,1.7-1,2.9-2.4,2.9c-0.8,0-1.6-0.4-2.5-1.1c-1-0.8-1.4-2.1-1.3-3.6
		c0.2-2.3,1.8-4.5,4-5.6c0.5-0.3,1-0.4,1.6-0.4c2.8,0,4.8,4,4.9,4c0-0.1-0.9-7.9-6.2-9.2c-0.6-0.2-1.3-0.2-1.9-0.3
		c-4.8,0-8,4.7-9.2,6.7c-1.8,3.2,2.3,12.2,2.3,12.3c-2.7,3.4-3.9,7.2-4.2,13c0,0-0.7,0-1.6,0c-2.1,0-5.7-0.2-7-1.2
		c-0.5-0.4-1.5-0.6-2.8-0.6c-3.2,0-7.8,1.3-8.6,2.9c-0.6,1.2-1.9,1.4-2.9,1.4c-0.9,0-1.7-0.2-1.8-0.2c0,0,0.5,0.7,1.3,1.6
		c0.2,0.2,0.5,0.3,0.9,0.3c0.9,0,2-0.6,2-0.7c0,0,0.2,0.2,0.3,2.6c0,0.4-0.1,0.8-0.4,1.1c-0.6,0.6-1.8,1.1-3,1.1
		c-1.2,0-2.5-0.4-2.9-1.5c-0.3-0.7-0.2-1.3,0-1.8c0.5-0.8,1.4-1,1.5-1.1h-0.4c-0.6,0-1.8,0.1-2.6,0.7c-0.4,0.3-0.6,0.9-0.5,1.6
		c0.1,1.3,1.2,3.2,3.6,4.2c0.7,0.3,1.6,0.5,2.6,0.5c3.3,0,7-1.6,7-1.7c0,0,0.1,0.3,0.8,3.7c0.2,1.2,0,2.3-0.7,3.1
		c-1,1.2-2.5,1.7-3.7,1.7c-0.6,0-1.1-0.2-1.5-0.4c-0.3-0.2-0.5-0.5-0.5-0.8c0-1.3,2.3-3.1,2.4-3.1c0,0-0.3,0-0.9,0
		c-1.2,0-3.4,0.2-4.7,1.2c-0.9,0.7-1.2,2.4-0.8,4.1c0.5,2.4,2.2,4.1,4.5,4.6c0.4,0.1,0.9,0.2,1.4,0.2c4.7,0,8.8-5.4,9.6-6.5
		c0.3-0.4,0.7-0.6,1.2-0.6c0.7,0,1.5,0.4,2.4,0.9c0.9,0.5,1.9,0.9,2.8,0.9c2.2,0,2.7-3.8,2.7-3.8c0,0-2,1.6-3.7,1.6
		c-0.4,0-0.7-0.1-1.1-0.3c-0.5-0.3-0.8-0.6-0.8-0.9c0-0.6,1-1.1,2-1.6l0.1-0.1c1.3-0.7,2-6.5,2-6.7c0,0,0.1,0.2,1.3,0.5
		c0.3,0.1,0.7,0.1,1.3,0.1c2.3,0,6.5-0.4,6.6-0.5c0,0-0.8,1.7,0.7,4.3c0.8,1.4,2.2,1.7,3.2,1.7c1,0,1.8-0.3,1.8-0.3
		c0,0-3.3-1.9-2.2-4.3c0.7-1.4,8.2-4.8,14.9-7.7c4.5-2,8.7-3.9,10.3-4.9c3.8-2.5,12-17,12.1-17.1c0,0.1-1.2,10.5-1.8,13.3
		c-0.7,2.9-3.4,7.5-6.5,8.2c-0.3,0.1-0.7,0.1-0.9,0.1c-2.3,0-2.7-2.3-2.8-2.3c0,0-1.7,2.4-0.7,4.6c0.5,1.2,1.7,1.5,2.5,1.5
		c0.8,0,1.5-0.2,1.5-0.3c0,0.1-0.7,2.1-2.8,3.2c-0.6,0.3-1.1,0.7-1.7,1.1c-1.2,0.9-2.3,1.7-4,1.7c-0.4,0-0.8-0.1-1.2-0.1
		c-0.6-0.1-1.2-0.2-1.7-0.2c-1.5,0-2.3,0.6-3.4,1.3c-0.3,0.2-0.7,0.5-1.1,0.7c-0.3,0.2-0.7,0.3-1,0.3c-1.7,0-3-2.5-3-2.5
		c0,0-0.3,1.9,0.5,3.1c0.7,0.9,1.6,1.1,2,1.1c-0.1,0-0.3,0-0.7,0c-0.4,0-1.1,0-2-0.1c-2.7-0.2-4.5-2.9-4.5-2.9c0,0,0.2,3,1.3,6.3
		c1.1,3.2,4.9,3.4,5.5,3.4c-0.3,0.1-4.8,1-8.8,1.3c-4.1,0.3-8,4.3-9.8,8c-0.5,1.1-0.5,2.3,0,3.7c1,2.5,3.5,4.8,5.4,5.5
		c0.4,0.2,0.9,0.3,1.3,0.3c1.4,0,2.9-0.7,4-1.8c0.8-0.8,1.1-1.7,1.1-2.5c-0.1-1.5-1.9-1.8-3-1.8c-0.5,0-0.9,0.1-0.9,0.1l1.7,1.7
		c0.3,0.3,0.4,0.7,0.3,1.1c-0.3,0.8-1.6,1.4-2.8,1.4c-0.7,0-2-0.2-2.8-1.7c-0.6-1.1-0.5-2.3,0.1-3.4c1.1-1.8,3.7-3.3,5.9-3.3
		c0.2,0,0.3,0,0.5,0c0.6,0.1,1.2,0.1,1.9,0.1c3.2,0,6.8-0.6,7-0.6c-0.1,0-1.8,0.7-2.5,2.3c-0.6,1.4-0.5,3.2,0.5,5.2
		c1.5,3.4,4,4.2,5.9,4.2c1.4,0,2.4-0.4,2.4-0.4c0,0-1.6-0.4-2.3-1.6c-0.4-0.7-0.4-1.6-0.1-2.6c0.5-1.4,1.4-2.2,2.6-2.2
		c1,0,2.1,0.7,2.6,1.5c0.3,0.5,0.7,0.8,1.3,0.8c0.8,0,1.5-0.4,1.5-0.5c0,0-1.2-0.7-1.2-2.7c0-1.2,1.6-1.9,3.4-2.8
		c1.3-0.6,2.8-1.3,4-2.3c2.8-2.4,5.9-13.9,5.9-14c0,0,1.2,1.2,2,2.2c0.5,0.7,0,2.6-0.7,4.7c-0.3,1.1-0.7,2.2-0.8,3.2
		c-0.2,0.9-0.2,1.7-0.2,2.5c0,1.7,0,3.4-1.3,6c-1.2,2.4-3.5,2.9-5.2,2.9c-0.9,0-1.6-0.1-1.7-0.1c0,0,0.2,1.4,1.3,2.8
		c0.4,0.5,1.1,0.8,2,0.8c0.9,0,1.7-0.3,1.7-0.3c0,0-0.2,1.7-4,2.4c-0.2,0-0.5,0.1-0.7,0.1c-3.3,0-4.4-4.6-4.4-4.7l-0.3,1.9
		c-0.3,1.8,3,6.6,5.7,7.7c0.2,0.1,0.5,0.1,0.9,0.1c1.4,0,3.9-1,6.2-2.1c-0.2,0.6-0.3,1.2-0.3,2.1c0,3.5-4.9,3.7-6.3,3.7h-0.2
		c-0.1,0-0.2,0-0.2,0l2.4,1.3c0.6,0.3,1.3,0.5,2.1,0.5c2,0,4.1-1,4.1-1l2,2.4c2,2.4,1.5,6.3,1.5,6.3l1.4-1.6
		c1.3-1.5,2.7-8.3,2.7-8.4c0,0,1.7,1.6,3.3,1.7c0.1,0,0.1,0,0.2,0c1.7,0,4.2-2.6,4.2-2.6c0,0-0.8,0.5-2.2,1.2
		c-0.2,0.1-0.4,0.2-0.7,0.2c-1.1,0-2.2-1.5-2.2-4.2c0-0.3,0-0.7-0.1-1c1.8,0.8,3.6,1.5,4.7,1.5c0.3,0,0.6-0.1,0.9-0.1
		c2.7-1,6.1-5.9,5.7-7.7l-0.3-1.9c0,0-1.1,4.7-4.4,4.7c-0.2,0-0.5,0-0.7-0.1c-3.8-0.7-4-2.4-4-2.4c0,0,0.8,0.3,1.7,0.3
		c0.9,0,1.6-0.2,2-0.8c1.2-1.4,1.3-2.7,1.3-2.8c-0.1,0-0.7,0.1-1.7,0.1c-1.7,0-4-0.5-5.2-2.9c-1.3-2.6-1.3-4.3-1.3-6
		c0-0.8,0-1.6-0.2-2.5c-0.2-0.9-0.5-2.1-0.8-3.2c-0.6-2.1-1.2-4-0.7-4.7c0.8-1,2-2.2,2-2.2c0,0.1,3,11.7,5.9,14c1.2,1,2.7,1.7,4,2.3
		c1.8,0.9,3.4,1.6,3.4,2.8c0,2-1.1,2.7-1.2,2.7c0,0,0.8,0.5,1.5,0.5c0.6,0,1.1-0.3,1.3-0.8c0.5-0.9,1.6-1.5,2.6-1.5
		c1.2,0,2.1,0.8,2.6,2.2c0.3,1,0.3,1.9-0.1,2.6c-0.7,1.3-2.3,1.6-2.3,1.6c0,0,1,0.4,2.4,0.4c1.8,0,4.3-0.7,5.9-4.2
		c0.9-2.1,1.1-3.8,0.5-5.2c-0.7-1.7-2.4-2.3-2.5-2.3c0.2,0.1,3.9,0.6,7,0.6c0.7,0,1.3,0,1.9-0.1c0.2,0,0.3,0,0.5,0
		c2.2,0,4.8,1.4,5.9,3.3c0.7,1.1,0.7,2.3,0.1,3.4c-0.8,1.5-2.1,1.7-2.8,1.7c-1.2,0-2.5-0.6-2.8-1.4c-0.2-0.4-0.1-0.8,0.3-1.1
		l1.7-1.7c0,0-0.4-0.1-0.9-0.1c-1.1,0-2.9,0.2-3,1.8c-0.1,0.8,0.3,1.7,1.1,2.5c1.1,1.2,2.6,1.8,4,1.8c0.5,0,0.9-0.1,1.3-0.3
		c1.9-0.8,4.4-3,5.4-5.5c0.5-1.4,0.5-2.6,0-3.7c-1.8-3.7-5.7-7.7-9.8-8c-4.1-0.3-8.6-1.3-8.8-1.3c0.5,0,4.4-0.2,5.5-3.4
		c1.2-3.4,1.3-6.3,1.3-6.3c0,0-1.9,2.7-4.5,2.9c-0.7,0-1.3,0.1-2,0.1c-0.5,0-0.6,0-0.7,0c0.4,0,1.4-0.1,2-1.1
		c0.8-1.2,0.5-3.1,0.5-3.1c0,0-1.4,2.5-3,2.5c-0.3,0-0.7-0.1-1-0.3c-0.4-0.3-0.8-0.5-1.1-0.7c-1.1-0.7-1.9-1.3-3.4-1.3
		c-0.5,0-1.1,0-1.7,0.2c-0.4,0.1-0.8,0.1-1.2,0.1c-1.7,0-2.8-0.9-4-1.7c-0.5-0.4-1.1-0.8-1.7-1.1c-2.1-1.2-2.8-3.2-2.8-3.2
		c0,0,0.7,0.3,1.5,0.3c0.8,0,2-0.3,2.5-1.5c1-2.2-0.7-4.6-0.7-4.6c0,0-0.4,2.3-2.8,2.3c-0.3,0-0.6,0-0.9-0.1
		c-3.1-0.7-5.8-5.3-6.5-8.2c-0.7-2.9-1.8-13.2-1.8-13.3c0.1,0.2,8.2,14.6,12.1,17.1c1.6,1,5.8,2.9,10.3,4.9c6.7,3,14.2,6.3,14.9,7.7
		c1.2,2.4-2.1,4.3-2.2,4.3c0,0,0.8,0.3,1.8,0.3c1,0,2.4-0.3,3.2-1.7c1.5-2.5,0.7-4.3,0.7-4.3c0,0,4.2,0.5,6.6,0.5
		c0.6,0,1.1,0,1.3-0.1c1.3-0.3,1.3-0.5,1.3-0.5c0,0.2,0.7,6,2,6.7l0.1,0.1c0.9,0.5,1.9,1,2,1.6c0,0.3-0.2,0.6-0.8,0.9
		c-0.3,0.2-0.7,0.3-1.1,0.3c-1.7,0-3.6-1.6-3.7-1.6c0,0,0.5,3.8,2.7,3.8c0.9,0,1.9-0.5,2.8-0.9c0.9-0.4,1.7-0.9,2.4-0.9
		c0.5,0,0.9,0.2,1.2,0.6c0.8,1.1,4.9,6.5,9.6,6.5c0.5,0,0.9-0.1,1.4-0.2c2.3-0.6,4-2.3,4.5-4.6c0.4-1.7,0.1-3.4-0.8-4.1
		c-1.3-1.1-3.5-1.2-4.7-1.2c-0.5,0-0.9,0-0.9,0c0,0,2.4,1.8,2.4,3.1c0,0.3-0.2,0.6-0.5,0.8c-0.4,0.2-0.9,0.4-1.5,0.4
		c-1.1,0-2.7-0.5-3.7-1.7c-0.7-0.9-0.9-2-0.7-3.1c0.7-3.5,0.8-3.7,0.8-3.7c0,0,3.7,1.7,7,1.7c1,0,1.9-0.2,2.6-0.5
		c2.4-1,3.4-2.9,3.6-4.2c0.1-0.7-0.1-1.3-0.5-1.6c-0.8-0.6-2-0.7-2.6-0.7h-0.4c0,0,1,0.2,1.5,1.1c0.3,0.5,0.3,1.1,0,1.8
		c-0.4,1.1-1.7,1.5-2.9,1.5c-1.2,0-2.5-0.4-3-1.1c-0.3-0.3-0.4-0.7-0.4-1.1c0.2-2.3,0.3-2.6,0.3-2.6c0,0,1.1,0.7,2,0.7
		c0.4,0,0.7-0.1,0.9-0.3c0.5-0.5,0.9-1,1.3-1.6c-0.1,0-0.9,0.2-1.8,0.2c-1,0-2.3-0.2-2.9-1.4c-0.8-1.6-5.4-2.9-8.6-2.9
		c-1.3,0-2.3,0.2-2.8,0.6c-1.3,1.1-4.9,1.2-7,1.2c-0.9,0-1.6,0-1.6,0c-0.2-5.8-1.4-9.6-4.2-13c0-0.1,4.2-9.1,2.3-12.3
		c-1.2-2-4.4-6.7-9.2-6.7c-0.6,0-1.3,0.1-1.9,0.3c-5.3,1.4-6.2,9.2-6.2,9.2c0,0,2-4,4.9-4c0.5,0,1,0.1,1.6,0.4
		c2.1,1.1,3.7,3.3,4,5.6c0.2,1.5-0.3,2.8-1.3,3.6c-0.8,0.7-1.7,1.1-2.5,1.1c-1.4,0-2.4-1.2-2.4-2.9c0-2.5-2.5-3.3-2.5-3.3
		c0,0,1.8,3.1,1.1,4.7c-0.2,0.5-0.7,0.8-1.3,1c-0.5,0.1-1,0.2-1.4,0.2c-0.6,0-1-0.1-1.3-0.2c-0.3-0.1-0.6-0.2-0.9-0.2
		c-0.5,0-1.1,0.2-1.9,0.5c-0.4,0.2-0.8,0.3-1.2,0.3c-3.5,0-10.4-4.2-13.1-7.4c-3.1-3.7-4.4-5.3-4.4-6.7v-1.3c0,0,0.4-0.6,0.8-0.6
		c0.4,0,0.7,0.4,1,1.1c0.8,2,0.9,2.5,0.9,2.5c0,0,1.8-2.6,1.8-3.9v-1.3c0,0,0.9-0.1,2-0.1c1.5,0,3.5,0.2,4.2,1.3
		c0.2,0.4,0.3,0.8,0.1,1.2c-0.4,1.2-2.6,1.9-2.6,1.9c0,0,3.2,0,3.2,2.6c0,0.9-0.7,1.3-2.1,1.3c-1.6,0-3.6-0.6-3.7-0.7
		c0,0,3.5,2.8,6.3,2.8c0.1,0,0.2,0,0.3,0c1.2-0.1,2.4-0.8,3.2-2c1.2-1.8,1.3-4.3,0.5-6.7c-1.3-3.7-5.6-6-8-7.2
		c-0.7-0.3-1.2-0.6-1.4-0.8l-1-0.8c0,0,0.2,0,0.4,0c0.5,0,1.5-0.1,2.3-0.4c1-0.5,1.5-1.2,1.5-2.3c0-3-1.5-4.1-1.5-4.1
		c0,0-1.5,3.7-3.5,3.7c-0.2,0-0.3,0-0.5-0.1c-1.9-0.5-2.3-2-2.7-3.6c-0.1-0.4-0.2-0.8-0.4-1.2l-0.7-2.1c0,0,2.1,0.2,3.2,0.9
		c-0.1-0.6-0.1-1.1,0-1.7c0.3-2.5,0.5-2.7,0.5-2.7c0.1,0.1,8.1,7.3,10.2,8.7c2.2,1.4,3.2,3.3,3.4,6.3c0.2,3.3,0.7,5.2,1.8,6.3
		c0.5,0.5,1.3,0.8,2.3,0.8c1,0,2.1-0.3,2.8-0.8l1.2-0.9c0,0-3.7-0.4-3.5-3.1l0.1-2.7c0,0.1,0.4,1.8,1.8,1.8c0.5,0,1.1-0.2,1.7-0.6
		c2.8-1.9,3-2.1,3-2.1c0,0-0.8,0.6-1.6,0.6c-0.9,0-1.4-0.7-1.6-2.1l-0.3-3.6c0.1,0,3.1-0.6,6.1-0.6c3.5,0,5.7,0.7,6.5,2.1
		c1.7,3,2.3,4.9,1.8,5.7c-0.2,0.3-0.5,0.5-1,0.5c-2,0-2.5-0.7-2.5-0.7c0,0,0.3,2.2,1.8,2.2c1.5,0,2.9,0.3,2.9,0.3
		c0,0-0.1,2.2-3.4,2.4c-0.5,0-1,0.1-1.5,0.1c-2.2,0-3.2-0.4-3.8-1.4c-0.4-0.8-0.9-1.5-1.5-2.2c0,0-0.5,1.7,0.5,3.1
		c0.8,1.2,2.4,1.9,4.7,2.1c0.3,0,0.6,0,0.9,0c3.2,0,6.4-1.4,8.4-3.7c1.4-1.6,2-3.4,1.8-4.9c-0.5-3.6-4.4-8.3-7-9.2
		c-2.5-0.8-3-2.2-3-2.2c0,0,4.9-2.4,6.4-3.8c0.5-0.4,0.8-0.9,1.1-1.3c0.3-0.4,0.4-0.7,0.7-0.7c0.3,0,0.6,0.4,1.1,1.2
		c1.5,2.4,0.5,3.9,0.5,3.9c0,0,3-1.7,2-4.3c-0.7-1.8-3.6-3-5.8-3c-1,0-1.7,0.2-2.2,0.7c-1.4,1.2-2.3,1.4-2.7,1.4
		c-0.1,0,0.5-2.6-1.1-4.1c-1.4-1.2-2.5-1.3-2.9-1.3h-0.1c0,0.1,2.5,3.6,1.5,4.6c-0.4,0.5-1.3,0.9-2.4,0.9c-0.8,0-2-0.3-3-1.6
		c-1.5-1.9-2.1-2.7-4.6-2.7c-0.6,0-1.4,0-2.4,0.1c-1.2,0.1-2.3,0.2-3.4,0.2c-3.4,0-6.1-0.6-7.8-1.7c-2.3-1.5-2.9-4.1-2.9-4.1
		c0,0,3.5,2.4,7,2.4c1.2,0,2.2-0.3,3.1-0.8c2.1-1.3,3.3-3.3,3.4-5.4c0.1-1.6-0.6-3-1.7-3.9c-0.6-0.4-1.2-0.7-2-0.7
		c-2.5,0-5.3,2.1-5.4,2.2c0.1,0,0.8,0,1.7,0c1.3,0,3.1,0.2,3.8,0.9c0.3,0.3,0.4,0.6,0.3,1c-0.1,1.3-1.1,2.1-2.7,2.1
		c-1.3,0-2.8-0.6-4-1.6c-3-2.5-5.4-6.5-5.9-9.7c-0.5-3.4-0.3-3.8-0.3-3.8c0,0,2.9,3.3,6.6,3.3c0.9,0,1.8-0.2,2.6-0.6
		c2.5-1.1,3.5-2.6,4.3-3.8c0.8-1.2,1.4-2,2.9-2c1.6,0,2.4,0.9,2.4,1.9c0,0.8-0.5,1.7-1.5,1.7h-2c0,0,1.3,1.1,2.8,1.1
		c0.6,0,1.2-0.2,1.7-0.6c2-1.5,3.7-2.9,3.7-2.9c0,0,2,1.8,1.9,3.7c-0.1,0.9-0.6,1.6-1.5,2.2c-1.9,1.3-4,2-5.6,2
		c-1.3,0-2.2-0.5-2.5-1.3l-0.7-2.1c0,0-0.6,2.4,0.5,4c0.6,0.8,1.5,1.3,2.8,1.5c0.3,0,0.6,0,0.9,0c2.8,0,6.8-1.3,8.9-4.1
		c1.4-1.8,1.8-4,1.1-6.3c-1.9-6.9-9.7-10-14.7-10c-0.4,0-0.7,0-1.1,0c-2.5,0.3-3.3,3-4,5.7c-0.7,2.4-1.3,4.6-3.2,4.6
		c-0.1,0-0.1,0-0.2,0c-4.1-0.3-7.7-5.2-7.7-8c0-2.7,0.8-3.8,0.8-3.8c0,0,2.1,2.6,4.5,2.6c0.1,0,0.3,0,0.4,0c2.5-0.3,3-1.4,3-1.4
		c-0.1,0-4.4-1-4.5-3.9c-0.2-3,0.9-8.3,2.5-10.6c0.6-0.8,0.7-1.6,0.8-2.4c0.2-1.2,0.4-2.1,2.1-2.1c0.4,0,0.9,0,1.6,0.1
		c4.8,0.8,4.9,7.3,4.9,7.3c0,0,0.9-1.7,0.7-3.4c-0.2-1.7-0.1-2-0.1-2c0,0.1,6.1,5.2,10.4,11.8c4.7,7.1,9.7,15.6,9.9,17.9
		c0.2,2.4-4,5.2-4,5.3c0,0,0.3,0.1,0.8,0.1c0.8,0,2-0.2,3.2-1.1c1.9-1.5,2.6-4.8,1.5-7.5c-1-2.5-1-4.1-1-4.1
		c0.1,0.1,8.4,9.4,9.5,14.7c1.2,5.2-3.1,8.3-3.2,8.4c0,0,1.1,1.1,2.3,1.1c0.6,0,1-0.2,1.5-0.7c1.5-1.7,3.2-4.9,3.2-5
		c0,0.1,3.1,11.1-0.4,12.1c-0.5,0.1-0.9,0.2-1.4,0.2c-2.7,0-4.6-2.4-4.6-2.4c0,0,0.7,3.3,4.5,3.6c0.2,0,0.3,0,0.5,0c2,0,3.3-1.1,4-2
		c0.8-1,1.4-2.4,1.4-3.5v-2c0,0,5.9,7.1,8.7,7.5c0.6,0.1,1.2,0.1,1.7,0.1c1.1,0,2-0.2,2.6-0.5c0.7-0.4,1.1-1.2,1.1-2.1
		c0-2.5-1.4-4.1-1.4-4.1c0,0,0.7,3-0.3,4.2c-0.3,0.4-0.8,0.6-1.3,0.6c-0.1,0-0.2,0-0.4,0c-3.5-0.5-7.8-4.9-8.1-10.4
		c-0.3-5.6,0.4-7,0.4-7c0,0,3,4.3,5,4.6c0.2,0,0.3,0,0.5,0c1.8,0,3.5-1.5,3.6-1.6c-0.1,0-6.7-1.5-7.1-5.3c-0.1-1.2-0.4-2.6-0.7-3.9
		c-0.7-3.2-1.4-6.5,0.4-7.5c1.4-0.8,2.8-0.9,3.6-0.9c0.6,0,1,0.1,1.1,0.1c0,0-3.7-1.7-4-4.6c-0.3-2.9-0.3-3.3-0.3-3.3
		c0,0,6.6,2.5,9.1,5.1c2.5,2.7,3.4,4.3,3.4,4.3c0,0,0.7-3.3-1.7-5.1c-2.3-1.8-7.6-5.2-7.7-5.3c0.1,0,2.2,0.4,4.1,0.4
		c1.1,0,1.9-0.1,2.4-0.4c1.7-0.8,1-5.2,1-5.3c0,0-1.7,2.7-4.6,2.7c-0.7,0-1.5-0.2-2.2-0.5c-4.5-1.9-9.8-13.1-10.6-15.6
		c-0.8-2.7-4.1-6.9-6.6-9.1c-2.4-2.1-6.1-12.9-6.1-16.9c0-3.8,3.6-7.4,5.1-8.9l0.3-0.3c1.3-1.4,7.5-5.8,7.5-5.8c0,0.3,2,27.9,4,35.7
		c0.5,1.9,0.9,3.7,1.3,5.3c1.2,4.9,2,8.2,2.9,9.1l1.3,1.4c0-0.2-4.7-14.7-4.7-16.6c0-0.6-0.3-3.4-0.6-6.9
		c-0.7-6.8-1.7-17.1-1.6-20.8c0.2-5.6,1.8-11.2,1.8-11.2c0,0.3,1.5,26,3.8,31.3c1,2.2,1.3,4.6,1.6,6.9c0.4,3.2,0.8,6.6,3.1,9.6
		c4,5.5,10.6,14.5,15.3,15.2c4.7,0.7,7.5,0.7,7.5,0.7c0,0-4.7-1.7-5.4-4.1c-0.7-2.4-0.8-4.9-0.8-5l3,1.6c0,0-3-2.6-4-5.8
		c-1.1-3.5-2.5-9-2.5-17.1c0-8.1-1.8-12.8-1.8-12.8l1.7,1.4c0-0.2-2.3-14.6-2.5-20.8c-0.2-6.2,1.1-7.5,1.2-7.5
		c0.1,0.5,8.1,53.1,11.4,64.7c3.3,11.7,7.5,17.7,7.5,17.8c-0.1-0.2-7.4-21.1-9.9-35.7c-2.5-14.6-5-33.8-5.2-38.1
		c-0.2-4,1.3-6.3,1.3-6.3c0,0.2,5,24,5.8,31.6l0.9,7.7c0,0,0,0.1,0,0.1c0.2,0,1-1.1,2.4-3.2c2.7-4.2,4.8-4.2,4.9-4.2
		c-0.1,0.1-5.2,7.9-4.4,13.5c0.8,5.5,3.1,14,4.9,19c0.3,0.9,0.8,2.4,1.4,4.3c2.7,8.6,7.8,24.5,11.7,28.6
		c4.8,5.1,11.9,11.1,11.9,11.1l0.7-6c0,0,0.2-0.5,0.5-0.5c0.3,0,0.7,0.3,1.3,1.9c1.2,3.4,5.3,9.6,8.3,12c2.3,1.8,7.6,4.3,12.3,4.4
		c1.1,0,2-0.1,2.9-0.4c3.8-1.2,9.6-7.4,12-10c-0.7,0.6-1.8,1.3-3.4,1.3c-2.7,0-5.7-2.1-8.9-6.3c-8.7-11.5-20.7-36.6-22.5-41.2
		c-2-5.1-2.9-7.2-2.9-7.2l2.5,0c-0.2-0.5-18.5-47.7-18.5-51.6c0-3.9,0.4-4.9,0.4-4.9c0.1,0.4,15.4,40.5,24,56.5
		c9.4,17.4,20.8,30.5,23,33c3.5,3.9,13.2,11.5,14.5,11.5h1.2c-0.1-0.1-8-5.5-10.4-8.2c-1.9-2.2-2-4.1-2-5.2c0-0.3,0-0.5,0-0.6
		c-0.1-0.2-1.6-1.7-3.7-3.9c-4.5-4.5-12.1-12.2-13.7-15.4c-0.9-1.8-1.8-3.7-2.8-5.5c-3.9-7.6-10.4-20.3-13.6-27.8
		c-4.1-9.8-14.5-38.3-14.6-38.6c0,0.1,2.2,2.3,4.9,6c1.4,2,3,7.3,4.5,12.5c1.4,4.8,2.8,9.4,4,11.4c2.5,4.1,8.9,10.8,8.9,10.9
		c0-0.1-0.1-5.7,0.7-8.6c0.8-2.9,1.5-3.5,1.5-3.6c0,0.2-0.2,17.3,2.5,20.8l1.2,1.7c1.9,2.5,3.1,4,4.3,6c0.6,0.9,1.3,2.2,1.9,3.4
		c1,1.9,1.9,3.6,2.6,4.4c1.2,1.2,4.7,5.6,4.7,5.6c0,0-0.8-3.1-0.5-5c0.3-1.7,1.3-3.7,1.5-4.1c-0.2,0.5-2.2,5.6,3.4,10.6
		c5.7,5.1,11.9,7.1,15.8,7.3c0.2,0,0.3,0,0.5,0c3.6,0,9.9-1.9,12.1-7c2.3-5.2,0.4-7.2,0.4-7.2c0,0-1.2,2.9-4,2.9
		c-1.4,0-2.9-0.7-4.6-2.1c-6.4-5.3-29.2-42.3-36.1-57.6c-7.3-16.1-15.6-35.5-15.8-37.6l-0.2-2.1c0,0,2.5,3.3,13.8,22.9
		c15,26,26.8,41.1,37.1,47.7c8.3,5.3,11.3,6,12.3,6c0.6,0,0.6-0.2,0.7-0.3c-0.1-0.1-8.1-4.5-8.9-5.3c-0.3-0.3-0.4-0.9-0.4-1.6
		c-0.1-1.3-0.3-2.8-1.9-3.5c-0.5-0.2-1-0.4-1.5-0.5c-2.9-0.9-7.7-2.3-12.6-9.6l-5.9-8.7c-0.2-0.3-18.5-26.9-23.2-38.1
		c-0.9-2.1-1.7-4-2.4-5.5c-1.4-3.2-2.2-5.1-2-5.3c0.4,0,2.1,2.2,5.1,6.3c2.6,3.6,5.4,7.7,8,11.7c5.4,8.1,10.5,15.8,14,18.1l5.2,3.4
		c0,0-0.5-1.6-0.5-3.6c0-2,1-3.4,1-3.4c0,0.1-0.9,3.7,0.9,6.9c1.1,1.9,3.1,3.2,5.8,3.9c2.4,0.6,5,0.9,7.5,0.9
		c7.5,0,13.2-2.7,14.8-7.1c2.5-6.6-1.5-13.1-1.5-13.2c0,0-1.7,4.2-5.9,4.2c-1.5,0-3.2-0.6-5-1.6c-8-4.7-24.3-21.8-26.5-26.5
		c-2.3-4.6-17-25.5-19-27.5c-2-2-2.7-3.9-2.7-3.9c0.2,0.2,18,18.4,21.4,22.4c3.4,4.1,19.5,13.7,26.4,17.4c2.1,1.2,4.4,1.8,6.6,1.8
		c3.4,0,5.7-1.4,5.7-1.4c-0.1,0-5.1-0.2-8.4-0.9c-3.2-0.7-6.6-3.2-6.9-3.4c0,0,0.2,0,0.3,0c0.6,0,1.7,0,1.9-0.5
		c0.1-0.2,0-0.5-0.4-0.8c-0.7-0.6-2.2-0.9-4.1-1.2c-2.3-0.4-5.1-0.9-7.2-2.2c-3.9-2.4-17.5-14.2-21-18.5c-1.3-1.6-3.4-3.7-5.3-5.7
		c-3.2-3.4-6.3-6.6-6.5-7.8c-0.3-1.8-0.3-2-0.3-2c0.2,0.2,17,15.3,23.9,19.8c6.8,4.5,8.8,5.3,12.8,5.6c0.9,0.1,1.7,0.1,2.5,0.1
		c2.2,0,3.4-0.3,3.4-0.3c-0.1-0.1-6.2-3.1-6.4-4.8c-0.1-0.6-0.1-1.3-0.2-1.9c0,0.1,6.4,6.9,10.7,7h0.3c4.5,0,11.4-4.3,12.7-9.1
		c1.3-4.9,0.5-6.2,0.5-6.2c0,0-2.9,2.9-4.6,2.9h-1.8c0,0,3.4-1.9,3.2-4.4c-0.2-2.5-0.7-3.3-0.7-3.3c0,0.1-1,5.4-4.3,5.4
		c-0.4,0-0.8-0.1-1.2-0.3c-1-0.4-2.1-0.8-3.1-1.2c-1.7-0.7-2.4-1-4.8-1c-3.3,0-12.6-6.4-19.2-11.3c-2.6-1.9-6.8-5.2-10.8-8.4
		c-4.2-3.4-8.2-6.5-10.5-8.2c-4.3-3-8.1-5.7-8.6-5.9c0.8,0.5,14.4,8.9,26.2,14.5c9.5,4.5,16.1,6.5,21.4,6.5c1.3,0,2.5-0.1,3.7-0.4
		c5.5-1.2,7.2-4.1,7.3-4.1c-0.1,0-4.5,2.5-9.2,2.5c-0.1,0-0.3,0-0.4,0l-4.9-0.2c0.1,0,1.9-0.8,2.1-1.7c0-0.2,0-0.4-0.1-0.5
		c-0.1-0.1-0.2-0.1-0.3-0.1c-0.2,0-0.3,0.1-0.6,0.2c-0.6,0.3-1.6,0.8-3.5,0.8c-2.5,0-5.9-0.9-10-2.7c-12.3-5.4-30.7-16.7-30.9-16.9
		c0.2,0.1,15.4,7.2,21.5,8.2c3.2,0.5,6.2,0.7,8.1,0.7c2.1,0,3.5-0.1,3.5-0.1l-1.9-1.2c1.1,0.5,2.2,0.8,3.4,0.8
		c1.6,0,3.3-0.5,4.9-1.4c4.7-2.7,9.9-7.1,8.4-12.3c-1.3-4.6-4.4-7-4.4-7c0,0.1-3,8.1-10.3,8.1c-0.8,0-1.6-0.1-2.4-0.3
		c-9.5-2.1-20.3-6.4-23-8c-1.5-0.9-3-1.8-4.5-2.8c0.1,0,10.9,2.1,18.1,2.1c2.1,0,3.7-0.2,4.7-0.5c5.7-1.7,10-3.6,12.4-7.3
		c2.5-3.7,2.5-5.1,2.5-5.1c-0.1,0.1-3.2,6.2-5.5,6.5c-1.6,0.2-3.2,1-4.8,1.9c-0.8,0.4-1.7,0.9-2.6,1.3c-1.3,0.6-4.5,0.9-8.8,0.9
		c-2.9,0-5.8-0.1-7.5-0.4c-3.5-0.5-12.5-1-12.6-1.1c0.1,0,9.1-3.1,13.6-4.7c2.3-0.9,4.2-2.8,4.9-5.2c0.5-1.6,0.4-3.1-0.2-4
		c-1.5-2.2-4.7-9.1-4.7-9.2c-0.1,0.1-4.2,6.2-5.9,9.9c-1.1,2.4-4,2.4-7.2,2.4c-1.8,0-3.7,0-5.4,0.5l-4.7,1.2c0.1-0.1,9.1-7,6.7-11.1
		c-1.6-2.8-4.8-4.9-7.6-4.9c-1,0-1.9,0.3-2.5,0.8l-0.2,0.1c-1.7,1.2-2.8,2-4.2,2c-0.7,0-1.5-0.3-2.4-0.8c-1.2-0.7-2.7-1.4-4.4-1.4
		c-1.4,0-2.8,0.6-4.2,1.8c-1.6,1.3-2.2,3.2-1.7,4.7c0.5,1.2,1.6,2,3.2,2c0.2,0,0.5,0,0.7,0c1.7-0.2,2.8-0.7,3.2-1.5
		c0.4-0.7,0.1-1.4,0.1-1.5c0,0-2.2,1.8-3.8,1.8c-0.8,0-1.4-0.5-1.6-1.4c-0.4-1.5-0.3-2.7,0.3-3.4c0.5-0.7,1.4-1,2.7-1
		c0.5,0,1.1,0.1,1.7,0.2c1.6,0.3,3,0.9,4.3,1.4c1.4,0.5,2.5,1,3.6,1c0.4,0,0.7-0.1,1.1-0.2c0.3-0.1,0.6-0.2,0.8-0.2
		c0.7,0,1.1,0.5,1.5,0.9c0.4,0.4,0.7,0.9,1.3,0.9c0.1,0,0.1,0,0.1,0c0.1,0,0.2,0,0.3-0.1c0.1-0.2-0.2-0.5-0.5-0.9
		c-0.6-0.7-1.3-1.7-0.7-2.2c0.3-0.3,0.9-0.4,1.7-0.4c1.4,0,3.4,0.5,4.4,1.6c0.5,0.6,0.7,1.3,0.6,2.2c-0.5,3.7-2.1,5.2-5,7
		c-2.9,1.7-4.7,1.7-6.5,1.7h-1.8c0.2,0,2.2-0.4,3-2.5c0.8-2.2-1.2-3.3-1.2-3.3c0,0,0.1,3.8-3.6,5.1c-1,0.3-1.9,0.7-2.9,0.9
		c-2,0.5-3.4,0.9-4.7,2.7c-1.8,2.5-3.8,2.7-3.8,2.7c0,0,1.7-3.2,0-5.1c-0.6-0.6-1.3-0.9-2.1-0.9c-1.2,0-2.2,0.6-2.2,0.6
		c0,0,3.4,1.8,2.2,4.8c-0.5,1.2-3.3,3.3-6.6,5.6c-4.8,3.4-10.9,7.7-11.6,11.2c-1.2,5.7-0.2,16.4,2.2,18.6c1.3,1.2,3.9,2.1,6.3,2.1
		c2,0,3.3-0.6,4-1.6c1.1-1.9,2.5-4.2,4.4-4.2c0.5,0,1,0.1,1.5,0.4c1.8,1,3.3,3,4.8,4.9c0.7,0.9,1.3,1.7,2,2.4c1.3,1.4,2,4.1,1.7,6.1
		c-0.2,1.1-0.7,1.8-1.3,2.2c-1.5,0.8-3.2,1.7-4.7,1.7c-1,0-1.8-0.4-2.5-1.1c-0.7-0.8-1.6-1.3-2.5-1.3c-1.4,0-2.6,1-3.1,2.5
		c-1.3,3.9-3.3,6.2-6,6.8c-1.1,0.3-1.9,1-2.2,2.2c-0.6,2.1,0.3,5.2,1.8,6.7c0.6,0.6,1.2,1,1.7,1.4c1.4,1.1,2.5,1.9,2,3.7
		c-0.7,2.8-3.1,6.9-6.6,6.9c-0.3,0-0.5,0-0.8-0.1c-1.9-0.3-4-1.7-6.2-3.2c-2.5-1.7-5.1-3.4-7.4-3.4h-1.3c-3.8,0-6.4,0.2-8.7,2.8
		c-2.3,2.5-4.4,3.8-8.8,3.8c-0.7,0-1.5,0-2.3-0.1c-5.9-0.5-8-2-9.6-3.4l-1.5-1.4c0.1,0.1,1.6,0.6,3.1,0.6c1.3,0,2.2-0.4,2.6-1.3
		c1.2-2.4-1-4.4-1-4.5c0,0,0.6,2.1-0.2,3.2c-0.4,0.5-1,0.8-1.8,0.8c-0.5,0-1-0.1-1.6-0.2c-5.1-1.3-6.2-2.7-6.2-2.8
		c0,0,0.9,0.2,1.8,0.2c1,0,2.2-0.2,2.8-0.8c0.2-0.3,0.3-0.7,0.3-1.1l-0.3-2.5c0,0-1.6,2.8-3.4,2.8c-1,0-1.9-0.8-2.8-2.3
		c-3-5.4-2.7-6.7-2.7-6.7c0,0,1-0.7,2.1-0.7c0.8,0,1.4,0.4,1.9,1.1c1.5,2.2,1.5,2.5,1.5,2.5c0,0,1.2-3.1-0.7-4.5
		c-0.7-0.6-1.9-0.8-3.1-1c-1.7-0.4-3.4-0.7-3.7-2c-0.5-2.2-0.1-3.6-0.1-3.6c0,0,6.4,2.2,7.7,4.6c1.3,2.4,1.3,4.4,1.3,4.5
		c0,0,1.9-1.4,1.7-3.1c-0.1-1.2-0.5-2.2-0.7-2.8c0.3,0.5,1.5,1.4,5.2,1.6c0.9,0,1.9,0,2.9,0c5,0,10.6,0,11.9,2.9
		c0.4,0.9,0.4,1.6,0.1,2.1c-0.7,1.1-2.6,1.1-3.2,1.1l-0.1,0c0,0,0.9,1.7,2,1.7c0.3,0,0.6-0.1,0.8-0.3c1-0.8,4-3.4,3.8-5.6
		c-0.1-0.9-0.6-1.6-1.6-2.1c-4-2.1-7.3-2.4-7.6-2.4c0.3,0,4.9-0.4,6.4-1.7c0.2-0.2,0.5-0.5,0.8-0.8c1.1-1.2,2.6-2.8,5.3-2.8
		c0.9,0,1.8,0.1,2.8,0.4c1.7,0.5,2.8,1.4,3.1,2.5c0.6,1.7-0.8,3.5-0.8,3.5c0,0,2.9-1.7,2.4-4.3c-0.5-2.5-3.6-4.4-3.7-4.5
		c0.1,0,2-0.4,4.2-0.4c2.5,0,5.7,0.5,6.7,3.2c1.8,4.7-3.1,7-3.2,7c0.3,0,4.7-0.3,4.9-4.6c0.1-3-0.8-5.7-2.4-7.4
		c-1.4-1.4-3.2-2.1-5.5-2.1c-3.5,0-6.7,1.2-9.3,2.1c-1.9,0.7-3.6,1.3-5,1.3c-1.2,0-1.9,0.1-2.2,0.1c-0.1-1.2-0.5-7.2,0.5-11.1
		c0.8-2.9,1.1-3.9,1.3-4.1c-0.3,0.5-2.1,3.3-4.5,3.6c-0.3,0-0.6,0.1-0.9,0.1c-0.5,0-1.1,0-1.7-0.1c-0.7,0-1.4-0.1-2.1-0.1
		c-2.1,0-4.6,0.3-5,2.6c-0.6,3.4-0.5,5.2,0.2,6c0.3,0.3,0.7,0.5,1.2,0.5c2,0,3-0.7,3-0.7c0,0-2.5-0.6-3-1.9c-0.2-0.6,0-1.3,0.7-2
		c1-1.1,1.8-1.6,2.9-1.6c0.4,0,0.9,0.1,1.3,0.1c0.4,0.1,0.8,0.1,1.3,0.1c0.3,0,0.5,0,0.7-0.1l2-0.5c0,0-1.1,1.2-2.2,2.2
		c-1.1,1-2.8,1.5-2.8,1.6c0.1,0,1.3-0.3,2.5-0.3c1.5,0,2.4,0.4,2.5,1.3c0.3,1.9,0.7,8.1-5.4,10.1c-4.1,1.3-6.7,1.5-7.9,1.5
		c-1.1,0-2-0.2-2.2-0.5l-0.5-0.7h0c0.3,0,3-0.2,4.9-3.3c2-3.2-0.7-5.6-0.7-5.6c0,0.1-0.2,5.9-3.7,5.9c-0.6,0-1.2,0-1.8,0
		c-0.6,0-1.2,0-1.8,0c-2.2,0-4.4-0.1-5.5-1.1c-1.5-1.3-1.7-2.2-1.7-2.2c0,0,0.9,0.3,1.8,0.3c1,0,2.2-0.3,2.5-1.5
		c0.5-2.2,0-2.9,0-2.9c0,0-2.2,2.4-4.1,2.4c-0.7,0-1.2-0.3-1.7-0.8c-2-2.5-3.3-8.5-3.3-8.5c0,0,1.6,0.4,3.3,0.4
		c2.1,0,3.5-0.6,4.4-1.6c2.2-2.7,2-4.1,2-4.1c-0.1,0-3.8,3-6.5,3c-1.3,0-2.2-0.7-2.6-2.1c-1.3-5.1-0.6-10,0.8-11.3
		c3-2.4,7.7-4.3,11.1-4.5c0.6-3.4-20.5-4.2,11-10.8l12.2-14.7c0-1.6-4.6-5.1-6.7-6.1c-2.2-1-9-2.2-14.2-2.2c-0.3,0-0.7,0-1,0
		c-3,0.1-6.6,2.6-10.1,4.9c-3,2-5.8,3.9-8.2,4.5c-2.2,0.5-4.3,0.8-6.1,0.8c-2.6,0-4.3-0.5-5-1.6c-1.2-1.9-1-4.9-1-4.9
		c0,0-1.3,3.8-0.8,5.6c0.5,1.9,3.4,3.8,5,4c1.7,0.2,5.2,0.5,5.2,0.5c-0.1,0-4.9,3.7-6.7,5.9c-0.5,0.6-1.1,1.4-1.6,2.2
		c-1.4,2-2.8,4.1-4.5,4.3c-0.5,0.1-1.1,0.1-1.7,0.1c-1.5,0-2.7-0.3-2.7-0.3c0,0,2,2.1,3.5,2.4c0.3,0.1,0.6,0.1,0.9,0.1
		c1.2,0,2.4-0.4,2.4-0.4c-0.1,0.1-3.9,8.7-4.9,13.3c-1.1,5.1-2.1,7.8-3.4,9.1c-1.3,1.3-2.7,2.2-2.7,2.2c0,0,1.5,0.7,2.6,0.7
		c0.4,0,0.7-0.1,0.9-0.2c1.2-0.7,1.3-0.8,1.3-0.8c0,0.1-1.8,10.6-1.8,12.8c0,2.2-3.5,5.4-3.6,5.5h0.2c0.8,0,3.5,0.2,3.5,1.9
		c-0.9,5.3-2.8,9.8-5.2,14.3c-2.5-4.5-4.4-9-5.2-14.3c0-1.7,2.7-1.9,3.5-1.9h0.2c0,0-3.6-3.3-3.6-5.5c0-2.2-1.8-12.7-1.8-12.8
		c0,0,0.2,0.2,1.3,0.8c0.2,0.1,0.5,0.2,0.9,0.2c1.2,0,2.6-0.7,2.6-0.7c0,0-1.4-0.9-2.7-2.2c-1.2-1.3-2.3-4-3.4-9.1
		c-1-4.6-4.8-13.2-4.9-13.3c0,0,1.2,0.4,2.4,0.4c0.3,0,0.6,0,0.9-0.1c1.5-0.3,3.5-2.4,3.5-2.4c0,0-1.1,0.3-2.7,0.3
		c-0.6,0-1.1,0-1.7-0.1c-1.7-0.2-3.1-2.3-4.5-4.3c-0.5-0.8-1.1-1.5-1.6-2.2c-1.8-2.2-6.7-5.9-6.7-5.9c0,0,3.5-0.3,5.2-0.5
		c1.6-0.2,4.5-2,5-4c0.5-1.9-0.8-5.6-0.8-5.6c0,0,0.1,3.1-1,4.9c-0.7,1.1-2.4,1.6-5,1.6c-1.8,0-3.9-0.3-6.1-0.8
		c-2.4-0.5-5.2-2.4-8.2-4.5c-3.5-2.4-7.1-4.8-10.1-4.9C275.5,62,275.1,62,274.8,62L274.8,62z M385.2,111.9l0.1-0.1
		C385.2,111.7,385.2,111.8,385.2,111.9L385.2,111.9z M496.2,314.6c0.3-0.3,0.6-0.6,0.8-0.9C497,313.7,496.7,314,496.2,314.6z
		 M143.8,314.6c-0.5-0.6-0.8-0.9-0.8-0.9C142.9,313.7,143.2,314.1,143.8,314.6z M254.8,111.9L254.8,111.9c0-0.1-0.1-0.1-0.1-0.1
		L254.8,111.9z"/>
	<path id="path5604_1_" class="st5" d="M373.5,77.9c-2.1,1.4-6.2-1.1-6.1-2.2c0.2-1,0.6-3.9,4.6-4.3c4-0.4,4.7,1.3,4.7,1.3
		C376.9,74.2,375.7,76.5,373.5,77.9L373.5,77.9z M265.6,77.4c2.1,1.3,6.2-1.1,6-2.1c-0.2-1-0.6-3.8-4.5-4.2
		c-3.9-0.4-4.6,1.2-4.6,1.2C262.3,73.9,263.5,76,265.6,77.4z"/>
	<path id="path5606_1_" d="M375.7,74.2c0,0.9-2,2.7-3.2,2.9c-1.2,0.2-1.5-1.1-0.7-2.5c0.8-1.5,2.3-1.3,2.3-1.3
		C374.3,73.2,375.7,73.3,375.7,74.2L375.7,74.2z M263.5,73.8c0,0.9,1.9,2.6,3.1,2.8c1.2,0.2,1.5-1,0.6-2.5c-0.8-1.4-2.2-1.2-2.2-1.2
		C264.8,72.9,263.5,72.9,263.5,73.8z"/>
	<path id="path5608_1_" class="st6" d="M314.8,311.9L314.8,311.9c0-0.1,3.7-9.1,2.3-18.3c-1.5-9.4-7.2-25.8-11.6-30.7
		c-4.3-4.9-6.1-10.4-6.1-10.4c0.1,0.1,7.3,7.8,10.5,10.1c3.2,2.4,11.9,15.6,12.2,31.3c0.2,9.4-2.4,14.1-4.6,16.3
		C316.1,311.4,315,311.9,314.8,311.9L314.8,311.9L314.8,311.9z M184.6,304.9L184.6,304.9c0-0.1-0.4-10,1.6-21.3
		c2-11.4,15-48,15.2-48.4c0,0.3,2.4,27.6-3.7,40.6c-2.8,5.9-5.6,12.5-7.8,17.8C187.2,300.1,185.1,304.9,184.6,304.9L184.6,304.9
		L184.6,304.9z M251.3,298.1c0-0.1-3-5.6,0.7-16.1c3.4-9.8,15.2-19.4,21.9-24.3c4.7-3.4,14.7-15.6,14.8-15.7
		c-0.2,0.4-17.2,33.9-23.5,37.6C259.1,283.2,252.3,289.9,251.3,298.1L251.3,298.1L251.3,298.1z M390.2,293.7
		c-0.1,0-6.1-2.2-9.4-12.3c-1.3-3.8-1.7-7.2-2.2-10.4c-0.8-5.5-1.5-10.7-5.9-18c-7-11.5-21.4-25.5-21.5-25.6
		c0.3,0.1,28,14.5,33,31.4C389.1,275.6,390.4,293.4,390.2,293.7L390.2,293.7L390.2,293.7z M331.8,280.8c-6.6-12.9-8.9-21-3.2-29.6
		c4.4-6.6,12.5-7.4,15.8-7.4c2.8,0,5.6,0.5,7.4,1.3c2.6,1.1,5.8,9.5,5.8,9.6c0,0-1.8-2.6-8.4-4.6c-1.5-0.5-3-0.7-4.5-0.7
		c-5.1,0-9.1,3-10.9,8.2C331.4,264.9,331.8,280.6,331.8,280.8L331.8,280.8z M251.6,265.1l0-0.1c0-1.9,3.2-14.8,8.7-19.5
		c1.3-1.1,2.6-2.1,3.7-3.1c3.9-3.2,7.3-6,10.7-9.9c4.3-5.1,8.4-22.7,8.4-22.9c0.1,0.1,6.7,12.1,3.4,21.2c-3,8.3-14,15.9-22,21.4
		c-0.9,0.6-1.8,1.2-2.6,1.8c-5.5,3.9-8.4,8.3-9.7,10.1C252,264.8,251.8,265.1,251.6,265.1L251.6,265.1z M324.6,240.2
		c-0.1-0.1-6.4-5.6-6.7-9.3c-0.3-3.7,4.3-8.4,4.4-8.4l0.7,0.8c1.5,1.9,4.9,6.4,5.2,9C328.4,235.5,324.6,240.1,324.6,240.2
		L324.6,240.2L324.6,240.2z M311.2,237c-1.9,0-3.9-0.1-5.8-0.3c-3.1-0.3-3.7-1.4-4.8-3.3l-0.1-0.2c-1.1-2,0-6.3,0-6.4
		c0.1,0.2,1,0.5,2.1,0.8c2.2,0.7,5.5,1.7,6.6,3.2C310.9,233.2,311.2,237,311.2,237L311.2,237L311.2,237L311.2,237z M313.6,224.5
		c0,0-4.6-5-4.9-8.7c-0.3-3.7,4-6.4,4.1-6.4h0c0.8,0,5.2,3.2,5.2,7.6C317.9,221.3,313.6,224.5,313.6,224.5L313.6,224.5L313.6,224.5z
		 M328.3,222.8c0-0.1,0-7.6,1.5-10.7c1.4-3.2,4.3-4.9,4.4-4.9l1.5,0.3c0,0.1,1.5,9.9,0.6,11.3C335.3,220.2,328.4,222.8,328.3,222.8
		L328.3,222.8L328.3,222.8z M302.2,222.5c-0.1,0-9.6-2.9-10.2-4.9c-0.6-2,1.1-7.8,1.2-7.8c0.3,0.2,1,0.4,1.8,0.6
		c2.2,0.7,5.5,1.7,6.6,3.2C303.1,215.5,302.3,222.4,302.2,222.5L302.2,222.5L302.2,222.5z M346.3,206.8c0,0-2.3-3.5-2-8.4
		c0.3-4.9,6-8.7,6.1-8.7c0.1,0,0.1-0.1,0.2,0c0.5,0,1.4,0.6,2.3,1.6c1.4,1.6,2.8,4.2,2.5,6.5C354.8,201.6,346.4,206.8,346.3,206.8
		L346.3,206.8L346.3,206.8z M324.5,205.3c-1.8,0-3.8-1.1-5.2-2.9c-1.9-2.4-2.5-5.5-1.7-8.7c2-8.1,4.9-9,4.9-9
		c6.1,6.4,7.3,11.1,7.1,14c-0.1,2.3-1,4.3-2.6,5.7C326.3,205,325.4,205.3,324.5,205.3C324.5,205.3,324.5,205.3,324.5,205.3
		L324.5,205.3z M294,204.5c-0.2,0-1-0.2-3.1-2c-2.5-2.2-5.2-6-4.6-9.3c0.6-3.2,6.6-5.8,6.7-5.8C297.3,193.7,294.2,204.4,294,204.5
		L294,204.5z M305.5,201.3c-2.9,0-6.2-2.5-6.9-7.2c-1.2-8.1,4.1-11.1,4.1-11.1h0c0.2,0,0.7,0.5,1.4,1.2c2.2,2.5,6.2,8.6,5.6,13.2
		C309.4,199.8,307.8,201.3,305.5,201.3L305.5,201.3z M278.8,198.4c-3.1-0.6-7-4.2-7-7.6c0-3.2,3.4-7.2,3.5-7.3
		c0.2,0.2,0.7,0.5,1.5,1c1.7,1.1,4.6,2.9,5.8,4.5c1.7,2.3-0.6,9.8-0.6,9.9l0,0L278.8,198.4z M340.2,198.4c-0.1-0.1-7.8-6.4-7.5-10.7
		c0.3-4.3,1.2-7.2,1.2-7.3c1,0.3,8.1,4.4,9,7.2C343.7,190.6,340.3,198.4,340.2,198.4L340.2,198.4L340.2,198.4z"/>
	<path id="path5610_1_" class="st7" d="M320.2,427c0-0.2,1.8-16.1,1.5-27.6c-0.2-5.9,1.2-15.8,1.4-25.4c0.2-9.4,0.3-18.3,0.2-23.2
		c-0.3-9.8-1.7-27.5-1.7-27.7c0.1,0.2,4.7,21.5,3.7,44.4c-0.5,12.3-1.7,22.9-1.5,31.5c0.2,7.5,1.7,13.5,1.2,17.4
		c-0.4,3.4-1.6,8-4.6,10.5C320.3,426.9,320.2,427,320.2,427L320.2,427z M352.2,405.1c-0.2-0.1-16.2-8.3-18.8-15
		c-2.7-6.8-7.4-16.6-7.4-16.7c0.1,0.1,12.5,15.4,19.2,17.4c4,1.2,7.4,1.5,9.6,1.5c1.4,0,2.2-0.1,2.2-0.1l-2.3,3.1l10.4,2.7l0,0
		c-0.7,0-12.9-0.4-18.5-3.4c-5.7-3-9-5.8-9.1-5.8c0.1,0.1,5.1,8.5,10.4,10.2c5.3,1.7,11.7,2,11.8,2.1l-6.7,2.1L352.2,405.1
		L352.2,405.1z M293,405.1c0,0,3.7-3.1,8.1-6.5c1.7-1.4,3.9-3.7,6.3-7.1l-0.3,0.3c-3.1,3.5-13.3,8.6-19.5,8.9
		c-6.3,0.3-13.7,3.4-13.8,3.4c0-0.1,3.1-4.5,10.4-6.2c7.3-1.7,9.7-4.1,9.7-4.1l-6.7-3.1h0c0.1,0,3.1,0.8,6.9,0.8
		c3.7,0,8.9-0.8,12.3-4.6c6.3-7.1,14-28.5,14.1-28.7c0,0,1,4.5,0.4,12s-3.7,17.7-3.7,17.8l1.3-17.1c0,0.2-6.4,22.6-12.1,28
		C300.8,404.4,293.1,405.1,293,405.1L293,405.1z M311.1,386c-0.1,0.2-1.5,2.5-3.4,5C310.1,388.2,311,386.2,311.1,386z M276.8,383.2
		c0-0.3-0.1-0.6-0.1-0.9c-0.2-1.3-0.5-3,2.5-5c2.9-1.9,7.2-2.1,9-2.1c0.5,0,0.8,0,0.8,0C288.8,375.4,278.2,379.2,276.8,383.2
		L276.8,383.2z M250.6,382.5c5.3-3,4.7-5.4,4.7-5.5c0.1,0,3.8,0.9,4.1,2.2c0.1,0.3-0.1,0.6-0.4,0.9
		C257,381.9,250.7,382.5,250.6,382.5L250.6,382.5z M371.1,376.3c-6.8,0-13.6-1-20.3-3c-19-5.7-23-27.4-23.2-28.3
		c0.3,1.2,4,11.2,11.4,19.1c8.5,9,31.4,9.2,34,9.2c6.3,0,12.1,1.4,12.1,1.4C385.1,374.7,379.6,376.3,371.1,376.3L371.1,376.3z
		 M287.6,374c0.1-0.1,12.1-5.5,15.1-7.9c2.9-2.3,9.7-12.8,10.1-13.3c-0.2,0.2-2.2,2.6-6,5.5c-4,3-15.7,6.1-15.8,6.2
		c0.1-0.1,13.2-7.3,18.5-12.7c5.3-5.4,10.7-18,10.8-18.1l-1.7,26.7l-0.4-13.3c0,0.1-3.4,4.6-7.7,14C306.2,370.5,287.8,374,287.6,374
		L287.6,374z M280.2,372.6c-2.4,0-4-1-4.3-2.7c-0.2-1.6,1-3.8,3.7-4.7c2.8,0.7,5.7,1,8.6,1c10,0,16.8-4.1,16.8-4.2
		c-0.1,0.1-12.9,9.9-22.5,10.3C281.7,372.5,280.9,372.6,280.2,372.6C280.2,372.6,280.2,372.6,280.2,372.6L280.2,372.6z M356.2,367.6
		c-1.4,0-2.6-0.1-3.4-0.4l-0.3-0.1c-5.1-1.7-15.6-5.3-21.3-19.1c0.1,0.1,7.5,10.6,14.5,12.6c1.3,0.4,2.6,0.6,4,0.6
		c2,0,3.6-0.4,5-0.7c0.8-0.2,1.5-0.3,1.9-0.3c0.3,0,0.6,0.1,0.7,0.2c0.2,0.2,0.2,0.5,0.2,0.9c-0.1,0.8-0.6,1.4-1.5,1.8
		c2.9-0.4,6.6-1.1,8.5-2.1c0.6-0.3,1-0.5,1.4-0.5c0.3,0,0.5,0.1,0.7,0.3c0.6,0.9-0.3,3.5-0.3,3.6l7.1,0.3
		C373.2,364.8,362.7,367.6,356.2,367.6L356.2,367.6z M350.2,363.8c0.2,0,0.8,0,1.5,0c1.2,0,2.9-0.1,4.2-0.6
		C354,363.4,352.1,363.6,350.2,363.8L350.2,363.8z M311.8,343.6c0,0-1-3.5,0.3-7.5c1.3-4.1,4.3-7.8,4.4-7.9L311.8,343.6L311.8,343.6
		z M337.4,343.6c-0.1,0-8.1-4.8-8.7-9.2c-0.7-4.4-0.7-15.3-0.7-15.4C328.6,326.7,337.3,343.4,337.4,343.6L337.4,343.6L337.4,343.6z
		 M365.4,325.1c-4.4,0-10.7-0.6-15.6-3.4c-8.3-4.7-14.7-11.2-14.8-11.3c0.2,0.1,18.5,13.3,25.3,13.3c0.1,0,0.2,0,0.3,0
		c2.5-0.1,3.9-0.6,4.3-1.5c0.3-0.9-0.6-1.9-0.6-1.9l4.6-0.3c0.6-1.4,1.8-2.4,1.8-2.4l-1.3,2.4l-0.5,0c-0.6,1.4-0.8,3.3,1.8,4.7
		C370.6,324.8,368.5,325.1,365.4,325.1L365.4,325.1z M275.2,321.4L275.2,321.4c0-0.1,0.7-0.6,2.1-1.3c1.5-1,3.1-2.1,5-3
		c0.9-0.8,2-1.2,3.3-1.5c1.3-0.5,2.6-0.7,3.7-0.8c4.9-0.3,9.6-1.7,11.5-2.4c-3.6,2.9-6.9,3.1-11.2,3.1l-2.4,0c-0.6,0-1.1,0-1.6,0.1
		l0,0c-1.1,0.4-2.2,0.9-3.3,1.5l0,0c-0.5,0.5-1,1-1.4,1.6c2.1-0.6,4.2-1,6.4-1.1c7-0.3,13.9-5,14.4-5.4c-0.3,0.1-0.6,0.2-0.9,0.4
		c0.9-0.7,1.7-1.5,2.4-2.3c5.3-5.7,5.7-10.6,5.7-10.7c0,0.1-0.1,12.4-7.4,18.5c-2.5,2.1-3.8,2.5-5,2.5c-0.7,0-1.4-0.2-2.2-0.3
		c-1.1-0.3-2.6-0.6-4.6-0.6c-2.7,0-6,0.6-10,1.7l0,0l0,0c0,0,0.2-1.2,1-2.5c-1.2,0.4-2.4,0.9-3.5,1.4l0,0l-0.3,0.2
		C276,321,275.4,321.4,275.2,321.4L275.2,321.4L275.2,321.4z M486,313.8c-2.2,1-12.9-13.2-27.2-37.8c-14.3-24.7-22.5-83.5-22.5-84.1
		c0.2-0.1,0.4-0.3,0.6-0.6c0.3-0.4,0.6-0.9,1-0.9c1.3,0,3.6,3.7,9.5,36c8.3,45.6,37.8,87.3,38.1,87.7L486,313.8z M168.9,303.8
		c0,0,2.2-2.1,8.1-14c3.6-7.3,6.5-17.7,10.3-30.8c2.3-8.3,5-17.6,8.3-27.7c8.2-25.3,11.9-28.7,11.9-28.8c0.3,0.2,0.1,0.8-1,3.6
		c-1.8,5-6,16.7-14.5,45C178.8,295.1,169,303.7,168.9,303.8L168.9,303.8z M346.9,290.5c-0.7,0-1.2-0.2-1.2-0.2
		c1.5-1.2,2.1-3.2,2.6-5c0.7-2.4,1.4-4.6,3.8-5.6c0.8-0.3,1.6-0.5,2.4-0.4c3.5,0,6.6,2.5,6.7,2.5c-0.1,0-6.1,0.4-9.1,5.1
		C350.3,289.8,348.3,290.5,346.9,290.5z M496.1,269.4c-0.2-0.2-23.7-15.9-38-57.4c-10.4-30.3-10.9-37.9-10.3-39.7l-0.1-0.3
		c0.2,0.1,0.2,0.1,0.1,0.3l0,0l0,0c2.6,6.8,24.6,65.6,34.9,77.6C493.3,262.4,496.1,269.3,496.1,269.4L496.1,269.4L496.1,269.4z
		 M509.9,266c0.8-0.3-1.7,0-7.1-1.4c-4.7-1.2-16.5-22.5-26.9-41.3c-1.5-2.7-3-5.4-4.4-8c-11.3-20.3-17.1-48.9-17.1-49.2
		C480,228.4,509.6,265.7,509.9,266l-1.2,0.6L509.9,266z M421.8,261.9c-0.1-0.2-9.4-18.6-11.1-35.2c-1.7-16.6,0.3-30.3,0.3-30.4
		C411.1,196.7,413.8,243.6,421.8,261.9L421.8,261.9z M140.3,260.7c-0.1,0-0.1,0-0.2-0.1c0.2-0.3,20.5-30.4,28.5-47.4
		c9-19.1,14.4-29.2,18.1-33.8c3.4-4.3,8.7-4.6,10.2-4.6c0.3,0,0.5,0,0.5,0c-0.1,0.1-7.6,6.5-27.8,42.8
		C149.9,253,141.4,260.7,140.3,260.7z M225.9,255c0-0.1,0-0.3,0-0.5c0-0.2,0.1-0.5,0.1-0.6c0.8-1.4,5.5-13,5.7-19.6
		c0.1-3-0.2-7.4-0.4-11.6c-0.3-5.3-0.7-10.3-0.3-12.8c0.7-4.5,3.1-9.9,3.1-9.9c0,0.1-1.4,14.1-1.2,18.1c0.3,5.2,0.5,26.1-3.8,32.6
		C226.5,254.5,226.1,255,225.9,255L225.9,255z M405.3,204.5c-0.1,0-9.5-0.1-13.5-7.2c-3.1-5.4-1.4-13.5-0.6-16.9
		c-1.4,2.8-4.1,7.8-7.5,10.2c-2.5,1.8-5.3,2.2-7.2,2.2c-2,0-3.5-0.4-3.5-0.4c0,0,1.2-2.9,3.2-4.7c1.1-0.9,5.7-3.5,9.8-5.7
		c2.6-1.4,4.9-2.7,5.8-3.2l0.1-0.2l0,0.2c0.1-0.1,0.2-0.2,0.3-0.2v0c0,0.1-0.1,0.3-0.3,0.6l0,0c0.1,1.8,0.5,8.1,3,12.4
		c3,5.1,9.3,7.8,9.4,7.9c0,0,0.7-0.4,2.3-5.5c1.7-5.1-2.3-16.6-2.4-16.7h0c0.3,0,1.1,0.6,2.1,1.6c1.5,1.5,4.9,5.8,4.7,11.3
		C410.7,197.6,405.4,204.4,405.3,204.5L405.3,204.5L405.3,204.5L405.3,204.5z M391.8,178.7c-0.1,0.3-0.2,0.8-0.4,1.4
		c0.2-0.4,0.4-0.8,0.5-1.1L391.8,178.7L391.8,178.7z M197.9,196.5c0-0.1,3.9-10.2,11.2-18.4c6.6-7.4,10.2-7.7,10.8-7.7
		c0.1,0,0.1,0,0.1,0c-5.1,2.9-7.2,7.3-9.6,12.3c-0.6,1.3-1.3,2.7-2,4.1C204.9,193.6,198,196.5,197.9,196.5L197.9,196.5L197.9,196.5z
		 M260.9,196.2c-0.1,0-8.3-1.8-9.1-8.6c-0.9-6.8,0.9-14.2,0.9-14.3C258.2,183,260.9,196.1,260.9,196.2L260.9,196.2L260.9,196.2z
		 M402.6,195.9c-0.1-0.2-0.3-0.4-0.5-0.7c-1.6-1.9-4.8-5.9-4.8-11.3c0-6.1,1.3-14.3,1.3-14.4C398.6,169.7,404.6,183.1,402.6,195.9
		L402.6,195.9L402.6,195.9z M518.1,195.4c-1.8,0-6.6-1-18.7-7.6c-16.6-9.1-31.8-41.7-31.9-42h0c0.6,0,3.2,3.2,17.2,21.5
		c14.6,19.3,34.1,27.9,34.3,28C519,195.3,518.8,195.4,518.1,195.4L518.1,195.4z M133.5,195.1c2-3.8,6-8.1,10.3-12.6
		c3.9-4.1,7.8-8.3,10.7-12.6c5.9-8.8,20.5-28.3,20.7-28.5c-0.1,0.2-8.6,18.2-15.4,27.6C152.8,178.3,133.7,194.9,133.5,195.1
		L133.5,195.1z M426.8,190.8c-0.1-0.1-6.1-5.5-8.1-7.9c-2-2.4-2-9.8-2-9.9c0,0.4,0.3,0.4,0.8,0.5c0.9,0.2,2.6,0.6,5,3.2
		C426.1,180.8,426.8,190.7,426.8,190.8L426.8,190.8L426.8,190.8z M233.1,189.6c0-0.1-3.8-5.4,0.2-10.9c4-5.5,10.2-14.4,10.2-14.5
		c0,0.1-0.3,7.1-3.3,12.3c-1.4,2.5-3,5.5-4.3,7.9C234.5,187.4,233.4,189.6,233.1,189.6L233.1,189.6z M290.5,186.7
		c0-0.1,0.4-8.2-2-10.2c-0.2-0.2-0.4-0.2-0.5-0.2c-0.8,0-1.3,2.1-1.7,4c-0.4,2-0.9,4.2-1.8,4.2c-0.2,0-0.3-0.1-0.5-0.2
		c-1.8-1.2-2.1-4.2-2.2-6c-0.1-0.7-0.1-1.2-0.2-1.4c0-0.1,2.5-7.8,3.7-9.9c0.2-0.3,0.4-0.4,0.7-0.4c1.4,0,3.8,2.7,5.8,4.8
		c0.5,0.6,1.1,1.2,1.7,1.8C295.8,175.6,290.5,186.6,290.5,186.7L290.5,186.7z M421.4,170c0.1,0,9.1,1.4,9.1,7.9
		c0,6.4-2.7,8.2-2.7,8.2l0,0L421.4,170z M354,185.9c-0.1-0.1-8.2-9.5-5.7-15.2c0,0,0.9-2.7,3.8-2.7c0.5,0,1,0.1,1.6,0.3
		c1.9,0.6,3,2.2,3.7,3.5c1.3,2.6,1.4,6,0.5,8.4C356.1,184.2,354.1,185.9,354,185.9L354,185.9L354,185.9z M267.9,179.4
		c0,0-1.8-1.5-1.9-4.3c0-3.3,2.2-6.9,6.8-10.8L267.9,179.4L267.9,179.4z M320.3,178.6c-0.1,0-0.2,0-0.3-0.1c0-0.1,2.5-5,2.9-9.4
		c0.4-4.5-0.4-8.6-0.4-8.6c0.1,0,5.8,4.1,6.2,8.2c0.2,2.1-1.8,4.7-3,6C323.7,176.8,321.3,178.6,320.3,178.6
		C320.3,178.6,320.3,178.6,320.3,178.6z M310.2,176.9c-0.1-0.1-7-10.3-6.6-14.8c0.4-4.5,4.1-5.7,4.1-5.8c0.2,0.2,0.4,0.5,0.6,0.8
		c1.1,1.3,2.9,3.3,3.9,8.7C313.4,172.3,310.2,176.9,310.2,176.9L310.2,176.9L310.2,176.9z M276.5,160.9c0.1,0,0.2,0,0.2,0
		c0.7,0,2.9,0.1,3.9,1.6c0.7,1.1,0.7,2.6,0,4.6c-2.4,6.5-9,9.4-9,9.4l0,0L276.5,160.9z M337.2,176c-2.6,0-4.7-2.3-4.9-5.6
		c-0.4-5.3,4.9-11,4.9-11.1c-1.2,4.9,1.2,11.8,1.3,11.9l3.3-8.6c0.1,0.1,4.1,6.6,0,11.1C340.4,175.2,338.8,176,337.2,176L337.2,176z
		 M317.5,174.4c0,0-1.2-5-1.2-8.6c0-3.7,3.3-4.9,3.3-4.9C321.2,165.8,317.6,174.4,317.5,174.4L317.5,174.4L317.5,174.4z
		 M211.6,173.7c-0.1-0.1-6.4-5.6-6.1-13.3c0.3-7.8,10-8.2,10.1-8.2c0,0,0.1,0,0.1,0.1c0.2,0.5,0,2.5-1.8,4c-1.3,1.1-2.1,3.7-2.5,4.8
		c0.9-1.1,3.1-2.6,4.8-2.6c0.9,0,1.5,0.4,1.8,1.1c1.3,3,3.3,4.8,3.4,4.8c0,0-0.7,1.7-4.4,3.4C213.3,169.6,211.6,173.7,211.6,173.7
		L211.6,173.7L211.6,173.7z M211.4,161.2c-0.3,0.3-0.4,0.6-0.4,0.9c0,0.2,0,0.2,0,0.2c0,0,0.2-0.4,0.3-0.9L211.4,161.2z
		 M438.9,160.1c0,0,2.7-2.1,5.8-2.1c1.5,0,2.8,0.5,4,1.4c4.3,3.4,2.7,9.5,2.7,9.6l0,0L438.9,160.1z M294.2,168.7
		c0,0-2.8-0.9-3.5-3.1c-0.4-1.4,0.1-3,1.4-4.7c4.5-5.7,2.5-10.2,2.5-10.2C299.9,158.8,294.2,168.6,294.2,168.7L294.2,168.7
		L294.2,168.7z M365.1,168.3c-0.1,0-14-4.6-14-7.8c0-3.2,2.4-6.5,2.5-6.6C365.8,158,365.1,168.2,365.1,168.3L365.1,168.3
		L365.1,168.3z M436.2,157.3c-1-5.4-8.3-20.4-8.4-20.5h0.2c3.7,0,5.6,0.4,6,1.1c0.2,0.6-0.5,1.3-1.1,1.9c-0.3,0.3-0.5,0.5-0.7,0.7
		c-0.1,0.2-0.2,0.3-0.1,0.5c0.2,0.4,1.4,0.7,3.2,0.7c1.5,0,3.2-0.2,4.6-0.4c0.1,0,0.2,0,0.3,0c1.7,0,2.8,3.2,2.8,6.2
		c0,1.9-0.5,3.8-1.8,3.8c-0.1,0-0.2,0-0.3,0c-0.1,0-0.2,0-0.3,0c-3.1,0-3.4,11.5-3.4,11.6l0,0L436.2,157.3z M327.8,161.7
		c0,0-1.2-3.3-2.5-8.6c-1.2-5.3,4.1-7.8,4.1-7.8c0.1,0,0.1,0,0.2,0c1.1,0,4,2.5,4.7,7.4C335.2,158,327.9,161.7,327.8,161.7
		L327.8,161.7L327.8,161.7z M344.8,159.4L344.8,159.4c-0.1-0.1-5.4-11.3-3.4-15.4c0.7-1.3,1.7-2.1,3-2.1c2.3,0,4.6,2.1,5,4.4
		C350.1,150,345.3,158.8,344.8,159.4L344.8,159.4L344.8,159.4z M284.8,158.2c-0.1,0-0.2,0-0.3,0l-1.7-0.1c-2.8-0.2-4.5-0.3-4.5-0.9
		c0.1-0.1,5.5-6.1,7.1-10.6c1.6-4.5,1-6,1-6c0.1,0,4.5,5.8,4.1,9.9C290.1,153.3,288.9,158.2,284.8,158.2L284.8,158.2z M319.6,157.4
		c-0.1-0.1-9.5-5.6-10-8.2c-0.5-2.6,2.4-7.4,2.4-7.5c0.2,0.2,0.9,1.1,1.9,2.3c1.9,2.3,4.4,5.5,5.5,6.6
		C321,152.3,319.7,157.4,319.6,157.4L319.6,157.4L319.6,157.4z M302.5,156.5c0-0.1-5-8.5-5.2-12.6c-0.2-4.1,3.3-8.9,3.3-8.9
		c0.7,0.5,6.4,10.9,6.2,13.8C306.6,151.6,302.6,156.4,302.5,156.5L302.5,156.5L302.5,156.5z M292.3,150.4c0,0,0.2-3.7-1.7-7
		c-0.4-0.6-0.7-1.2-1.1-1.8c-1.2-1.9-1.8-2.8-1.8-6.4c0-2.3,0.7-4.8,1.3-6.9c0.4-1.5,0.7-2.6,0.6-3.2c-0.1-0.1-0.2-0.2-0.3-0.3
		c0.2,0,0.3,0.1,0.3,0.3l0,0c1,1.2,4,5.4,4,9.3C293.7,139,292.3,150.3,292.3,150.4L292.3,150.4z M175.1,149c0,0,2.4-4.6,3.8-7.2
		c0.5-1,1-2.3,1.4-3.7c0.6-1.8,1.2-3.7,2.1-4.9c-1.9,1.4-3.1,2.3-3.5,2.6c-0.9,1-1.9,1.2-1.9,1.2c0-0.1-1.4-4.4,0.5-6.8
		c1.9-2.4,7.6-5.8,7.6-5.8c0,0,0.3-0.6,0-1c-0.2-0.3-0.6-0.5-1.3-0.5c-0.2,0-0.5,0-0.9,0.1c-3.1,0.5-10.6,7.4-10.7,7.5
		c0-0.1-0.5-4.6,1.9-7.7c2.4-3.1,8.3-9.1,8.3-9.2c0.1,0,0.2-0.1,0.2-0.2c0,0-0.2-0.1-1-0.1c-0.4,0-1,0-1.8,0.1
		c-1.7,0.1-4.6,3-8.5,6.9c-5.1,5.2-12.1,12.2-20.3,16.5c-14.1,7.4-17.6,8.4-17.6,8.5c0.2-0.2,25-14.8,32.3-22.5
		c5-5.2,9.8-9.8,13-12.8c1.6-1.5,2.8-2.6,3.6-3.4c2.4-2.4,7.8-5.8,7.8-5.8c-0.1,0.1-12,3.2-19.5,6.1c-6.5,2.5-12.5,3.3-14.4,3.3
		c-0.4,0-0.8,0-0.8-0.1c0.1-0.1,13-3.9,22.8-7.7c8.6-3.3,14.1-5.2,18.1-5.2c0.5,0,1,0,1.4,0.1l4,0.5c0,0-6.4,2.7-10.5,4.4
		c-4,1.7-8.3,7.7-8.3,7.7c0,0,1.5,1.7,5.7,3.1c4.2,1.4,7.8,1.5,7.8,1.5c0,0.1-4.5,3.6-6.9,3.9c-2.4,0.2-3.1,0.2-3.1,0.2
		c0,0,0.3,1.7,1.2,3.4c0.9,1.7,3.1,2.4,3.1,2.4c0,0-1.4,3.2-2.1,5.1c-0.7,1.9-4.2,8.9-4.3,8.9c0,0,2.8,1.1,6,1.1
		c1.1,0,2.1-0.1,3.1-0.4c4.2-1.2,8.3-5.3,8.3-5.3c0,0.1-1.4,8.3-4.7,11.6c-1.5,1.5-3.4,2.2-6,2.2c-1.3,0-2.5-0.2-3.7-0.3
		c-0.6-0.1-1.2-0.2-1.7-0.2c-0.2,0-0.3,0-0.5,0C182,146.8,175.2,149,175.1,149L175.1,149z M183.4,132.1c-0.3,0.2-0.6,0.5-0.9,0.9
		c1-0.7,2-1.4,3.1-2.1L183.4,132.1z M453.7,146c0,0-4.7-2.4-8.1-4.4c-0.5-0.3-0.9-0.5-1.3-0.5c-0.2,0-0.4,0.1-0.5,0.2
		c-0.5,0.8,0.4,3.3,0.4,3.3c-2.4-3.8-3.3-6.5-2.5-7.9c0.3-0.6,1-1,2-1c1.5,0,3.5,0.8,5.2,2C453.3,140.9,453.7,146,453.7,146
		L453.7,146L453.7,146z M514.9,145.4c-0.2,0-18-3.9-29.9-15.7c-12-11.8-22.8-15.3-22.9-15.4c12.3,0.6,17.2,6.5,23.5,13
		c0.6,0.6,1.8,1,2.4,1.7C495,136,514.7,145.3,514.9,145.4L514.9,145.4z M295.6,140.3c0-0.1,0.9-11.9-0.5-15.7
		c-0.3-0.9-0.9-1.6-1.5-2.3c-1.8-2.2-3.6-4.4,0.7-14.9c0,0,3.4,1,7.4,4.1c4,3.1,3.3,9.8,3.3,9.9c0,0.1-3.8,4.8-5.4,7.6
		c0.8-2.7,1.7-6.4,1.1-8.4c-0.9-3.6-4.2-9.8-4.3-9.9c0,0-0.4,4.6,0.3,7.7c0.3,1.1,0.9,2.1,1.5,3.1c1.1,1.8,2.2,3.6,1.1,6.1
		C297.8,131.5,295.6,140.2,295.6,140.3L295.6,140.3z M347.8,140.2c-0.1-0.1-8.4-8.9-5.7-13c0.6-0.9,1.2-1.4,1.9-1.4
		c1.7,0,2.8,3.4,2.8,3.5c0-0.1,0.7-2.6,1.4-2.6c0.4,0,0.8,1,1,3c0.6,5.7-0.6,9.9-1.2,10.6C347.9,140.2,347.9,140.3,347.8,140.2
		L347.8,140.2z M335,140.3c-0.5,0-4.4-5.2-5.7-8.2c-0.4-0.9-0.4-1.9-0.1-2.8c0.8-2.1,3.4-3.4,4.1-3.7c0.1-0.1,0.3-0.1,0.4-0.1
		c2.2,0,3.9,6.9,4,6.9L335,140.3L335,140.3z M308.4,140c0-0.1,1.6-5.8,0.7-8.5c-0.9-2.6-0.2-9.8-0.2-9.9c0,0,2.2,0.8,2.9,8.7
		c0.5,5.3-1,7.8-2,8.8C309.2,139.8,308.7,140.1,308.4,140L308.4,140z M306.8,139.5c-0.4-0.7-1-1.3-1.7-1.9c-1.4-1.2-3-2.5-2.8-5.6
		c0.2-4.5,4.9-10.3,5-10.4c0,0.1-1.2,4.7-0.5,9.4C307.5,135.9,307.5,139.3,306.8,139.5L306.8,139.5L306.8,139.5z M442.6,134.4
		c2-4-4.6-12.9-4.7-13c0,0,0.1,0,0.2,0c1.2,0,8.7,0.2,10.3,2c0.3,0.4,0.4,0.6,0.3,0.8c-0.2,0.5-1.7,0.6-3.1,0.6
		c-1.2,0-2.4,0.1-3.2,0.3c-0.2,0.1-0.4,0.2-0.4,0.2c0,0.4,1.8,1,3.8,1.8c2.4,0.9,5.5,2,7,3.1c0.4,0.3,0.5,0.6,0.4,0.9
		C452.6,133.1,443,134.4,442.6,134.4L442.6,134.4L442.6,134.4z M298.2,133.3c0,0,0.2-0.7,0.7-2.7c0.1-0.3,0.3-0.9,0.7-1.6
		C299.3,130.5,298.8,131.9,298.2,133.3L298.2,133.3z M459.8,131.7c0,0-2.7-1.1-5.7-5.5c-1.1-1.7-2.5-3.7-2.4-3.8
		c0.1,0.1,5.1,4.1,7.8,4.1c0.1,0,0.2,0,0.3,0c2.7-0.3,3.4-0.3,3.4-0.3c0,0-0.1-2.1-3.7-3.7c-3.7-1.7-7-2-7.1-2.1
		c-0.1-0.1-2-1.9-1.6-2.7c0.1-0.3,0.5-0.4,1-0.4c0.6,0,1.3,0.1,2.3,0.4l1.7,0.5c5.3,1.4,8.2,2.2,9.4,4.3c1.3,2.4,1.3,6.8,1.3,6.8
		L459.8,131.7L459.8,131.7z M339.4,129.3c-7.3-4.7-5.4-17.7-5.4-17.8l2.7,1c0.1,1.6,0.6,5.7,0.8,5.7c0,0,0.1-0.1,0.2-0.6
		c0.3-2.7,5-8.2,5-8.2c0,0.1,1.3,11-0.7,12.7C340.1,123.8,339.4,129.2,339.4,129.3L339.4,129.3L339.4,129.3z M440.4,120.4
		c-0.6,0-1.3,0-1.8,0c-0.4,0-0.8,0-1.1,0c-2.3,0-7-10.5-7.1-10.6l7.7-4.5c0,0-2,3.1-1,6.2c0.5,1.6,3.5,3.1,6.1,4.5
		c2.3,1.2,4.3,2.2,4,3.1C446.8,120.3,443.2,120.4,440.4,120.4z M472.9,115.6c0,0-3.4-4.1-9.4-6.5c-6-2.4-6.4-8.2-6.4-8.2l12.1,2.7
		l0-3.7l8.4,4.8c-0.1,0-0.1,0-0.2,0c-0.2,0-0.6,0-1.2,0c-2.2,0-7.4,0.2-8.4,1.7c-0.9,1.3,2,4.2,3.7,6.4
		C472.5,114,473,115.3,472.9,115.6L472.9,115.6z M335.7,98.5c0,0,2.3,1.6,3.8,1.6c0.4,0,0.6-0.1,0.9-0.3c1.3-1,3.7-5.8,3.7-5.8
		c0,0,0,0,0,0c0,0,0.1,0,0.1,0.1c0.2,0.2,0.4,0.9-0.1,3.4c-0.7,3.4-6.3,13.2-6.4,13.3l0,0L335.7,98.5z M308.6,108.1
		c-0.1,0-0.4-0.4-0.4-0.4h0c-0.1,0-1.5-0.1-8.3-1.9c-1.8-0.5-3.1-1.5-3.8-2.9c-1.7-3.3,0-7.9,0-8l0.2,0c0.1,0,0.1,0,0.2,0
		c1,0,2,1.9,3.2,5.8c1.2,3.9,2.4,4.8,3.2,4.8c0.5,0,0.9-0.3,1.1-0.5c-0.1,0.1-0.3,0.1-0.4,0.1c-0.4,0-0.9-0.3-1.6-1.7
		c-1.2-2.6-2.4-7.7-2.4-7.7c0,0,2,1,6.2,7.7C307.8,106.3,308.7,107.9,308.6,108.1L308.6,108.1z M490.6,107.1c-0.2,0-0.4,0-0.6,0
		c-2.7-0.1-6.9-2.3-12.3-5c-7.9-4-17.7-8.9-27.4-9.7c-1.6-0.1-3.2-0.2-4.8-0.2c-10.2,0-16,2.9-18.1,4.2c0.1-0.2,0.2-0.4,0.4-0.6
		c1.3-1.8,3.9-5.4,11.4-7.9c2-0.7,4.3-1,6.9-1c8.5,0,19,4.5,33.3,12.1c6,3.2,12.2,4,17.3,4c4,0,6.1-1.1,6.1-1.1
		C502.8,102,497.1,107.1,490.6,107.1L490.6,107.1z M144.7,105.7c-2.4,0-3.4-0.6-3.8-1c-0.4-0.4-0.3-0.9-0.3-0.9
		c0.2,0.3,1.5,0.5,3.4,0.5c1.1,0,2.7-0.1,4.3-0.6c3.2-0.9,19.5-7.5,24-9.9c4.2-2.3,12.9-4.3,13.9-4.6c-0.3,0-0.6,0-0.9,0
		c-1.5,0-4.1-0.3-4.5-2c-0.1-0.3,0-0.7,0.2-0.9c1.2-1.5,6.4-1.7,6.7-1.8h0c-0.4,0-10.4-0.5-16.4-3.4c-6.1-2.9-4.1-8.2-4-8.2
		c0,0,0,2,2.2,4.6c1.8,2.3,2.8,2.6,5.3,3.4c0.4,0.1,0.8,0.3,1.3,0.4c1.1,0.4,2.9,0.5,5.7,0.5c2.6,0,5.6-0.1,8.5-0.3
		c2.5-0.1,4.9-0.2,6.6-0.2c5.6,0,13.9,4.5,14,4.6c0,0,0,0.5-1.9,0.5c-0.8,0-1.7-0.3-2.9-0.7c-1.6-0.5-3.7-1.3-6.8-1.7
		c-0.6-0.1-1.2-0.1-1.8-0.1c-5.3,0-11.9,2.5-12,2.5l2.9,0.7c0.8,0.2,1.7,0.3,2.7,0.3c1.1,0,2.3-0.1,3.5-0.3c1-0.1,2.1-0.2,3.1-0.3
		c0.2,0,0.3,0,0.5,0c3.9,0,10.7,2.7,11.9,4.4c0.2,0.3,0.3,0.6,0.2,0.7c-0.1,0.2-0.3,0.2-0.8,0.2c-0.8,0-2.3-0.2-4.7-0.5
		c-3.1-0.4-6.1-0.8-9.2-1.1c-0.8-0.1-1.6-0.1-2.5-0.1c-7.5,0-15,3.5-22.9,7.1c-5.1,2.4-10.4,4.8-15.8,6.3
		C150.4,105.1,147.1,105.7,144.7,105.7L144.7,105.7z M427.5,103.7c-1.1-1.5-1.4-2.6-1.1-3.5c0.5-1.6,3-2.6,7.5-4
		c1.4-0.4,3.1-0.7,5-0.7c5.7,0,11.4,2,11.5,2c-0.1,0-5.7,2.4-10.8,2.4c-0.3,0-0.6,0-1,0c-0.2,0-0.3,0-0.5,0c-2.7,0-3.8,1.4-4.6,2.5
		c-0.5,0.7-0.9,1.2-1.5,1.2c-0.2,0-0.5-0.1-0.7-0.2c-0.6-0.4-1.2-0.5-1.8-0.5C428.7,102.8,428,103.1,427.5,103.7L427.5,103.7
		L427.5,103.7z M339.3,97.2c-0.2,0-0.8-0.2-2-3.1c-1.7-4.1,3.3-10.5,3.4-10.6c0,0,0,1.7-0.3,4.5c0,0.4,0,0.7,0.2,0.9
		c0.2,0.2,0.5,0.3,0.9,0.3c1.4,0,3.6-1.2,3.6-1.2l-5.7,8.9c0.1,0.1,0.1,0.2,0.1,0.3C339.4,97.2,339.4,97.2,339.3,97.2z M426.8,96.8
		c0,0,0.2-0.2,0.7-0.5C427.2,96.7,427.1,96.8,426.8,96.8L426.8,96.8z M298,92.6c-1.1,0-2.9-0.5-5-2.6c-3-3.1-7.9-8.2-7.9-8.2
		c0.1,0,6.2,0.5,9.3,4.4c3.1,3.8,4.7,6.3,4.8,6.3C299.2,92.4,298.8,92.6,298,92.6z M438.2,86.9c3.2-7.9,14.1-7.9,19.4-7.9l1.5,0
		c6,0,17.7-6.4,17.8-6.5l-1,2.4c-1,2.3-8.8,6.1-18.5,6.8C448.1,82.5,438.4,86.9,438.2,86.9L438.2,86.9L438.2,86.9z"/>
	<g id="g_3_" transform="translate(0,-6.5005741)">
		<path id="path5612_3_" class="st8" d="M237.3,88.8c0,0-6.8,0.2-7.1,4.3c-0.3,4.1,2.6,9.1,6.1,10.6c3.4,1.5,8.7,1.9,15,0.2
			c6.2-1.7,15.7-6.2,20.1-6c4.4,0.2,10.6,0.4,11.6,0.3l1-0.1c0,0-0.8-1.5-7.7-1.8c-6.9-0.3-11.7-1.2-15.6,0.7c-3.9,1.9-8.7,4.3-15,4
			c-6.3-0.3-9.1,0.2-11.5-2.8C231.8,95.4,232.8,90.8,237.3,88.8L237.3,88.8z"/>
		<path id="path5614_3_" class="st8" d="M254.5,76.8c0,0-0.9,3.9-2.4,4.8c-1.5,0.9-3.3,2.9-3.3,6.7c0,3.9,1.8,9.9,1.8,9.9
			s3.1-6,8.1-5.9c5,0.1,9.5,1.9,12.8,2.1c3.3,0.1,11.6,2,12.7,3c1.1,1,1.2,1.5,1.2,1.5S279.8,99,278,99c-1.8-0.1-4.3,0.1-6.2,1.6
			c-2,1.5-6.1,3.9-7.8,4.1c-1.7,0.2-3.8,0.1-3.8,0.1s1.8,2.6,5.8,2.5c4-0.1,6-1.7,7.3-3c1.3-1.3,2.3-2.4,4.1-2.2
			c1.8,0.1,7.9-2.1,9.4-1.9c1.5,0.2,0.2-3.3-2-4.4c-2.1-1.1-2.7-2-5.8-3.3c-3.1-1.3-4.8-2-8.9-2.7c-4.1-0.7-4.9-0.2-6.5-2.1
			c-1.5-1.9-0.8-2.8-1.8-4.4c-1-1.6-2.7-3.1-3.5-4.1C257.5,78,254.6,76.8,254.5,76.8z"/>
		<path id="path5616_3_" class="st9" d="M260.5,84.9c1.7,2.2,1.3,3.9-1.5,3.9c-2.8,0-5.4,3.9-6.2,3.9s-1.2-4.6,1-7.1
			s4.4-2.8,4.4-2.8C258.6,82.8,258.7,82.7,260.5,84.9z"/>
	</g>
	<g id="g_2_" transform="translate(0,-6.5005741)">
		<path id="path5612_2_" class="st8" d="M402.7,88.8c4.5,2,5.5,6.6,3.1,9.6c-2.4,3-5.2,2.5-11.5,2.8c-6.3,0.3-11.1-2.2-15-4
			c-3.9-1.9-8.7-1-15.6-0.7c-6.9,0.3-7.7,1.8-7.7,1.8l1,0.1c1,0.1,7.2-0.1,11.6-0.3c4.4-0.2,13.8,4.3,20.1,6
			c6.2,1.7,11.5,1.3,15-0.2c3.4-1.5,6.4-6.5,6.1-10.6C409.5,89,402.7,88.8,402.7,88.8L402.7,88.8z"/>
		<path id="path5614_2_" class="st8" d="M381.7,79.1c-0.8,1-2.5,2.5-3.5,4.1c-1,1.6-0.2,2.5-1.8,4.4c-1.5,1.9-2.4,1.3-6.5,2.1
			c-4.1,0.7-5.7,1.5-8.9,2.7c-3.2,1.3-3.7,2.2-5.8,3.3c-2.1,1.1-3.4,4.6-2,4.4c1.5-0.2,7.5,2.1,9.4,1.9c1.8-0.1,2.8,0.9,4.1,2.2
			c1.3,1.3,3.3,2.9,7.3,3c4,0.1,5.8-2.5,5.8-2.5s-2.1,0.1-3.8-0.1c-1.7-0.2-5.9-2.7-7.8-4.1c-2-1.5-4.5-1.6-6.2-1.6
			c-1.8,0.1-7.4-0.1-7.4-0.1s0.1-0.5,1.2-1.5c1.1-1,9.4-2.8,12.7-3c3.3-0.1,7.8-1.9,12.8-2.1c5-0.1,8.1,5.9,8.1,5.9s1.8-6,1.8-9.9
			c0-3.9-1.8-5.8-3.3-6.7c-1.5-0.9-2.4-4.8-2.4-4.8C385.4,76.8,382.5,78,381.7,79.1z"/>
		<path id="path5616_2_" class="st9" d="M381.8,82.8c0,0,2.2,0.3,4.4,2.8s1.9,7.1,1,7.1c-0.9,0-3.5-3.9-6.2-3.9
			c-2.8,0-3.2-1.7-1.5-3.9C381.3,82.7,381.4,82.8,381.8,82.8z"/>
	</g>
</g>
</svg>
