<?xml version="1.0" encoding="utf-8"?>
<!-- Generator: Adobe Illustrator 24.2.3, SVG Export Plug-In . SVG Version: 6.00 Build 0)  -->
<svg version="1.1" id="flag-icons-ad" xmlns="http://www.w3.org/2000/svg" xmlns:xlink="http://www.w3.org/1999/xlink" x="0px"
	 y="0px" viewBox="0 0 640 480" style="enable-background:new 0 0 640 480;" xml:space="preserve">
<style type="text/css">
	.st0{fill:#FFFFFF;}
</style>
<path id="path5578" d="M0,0h640v480H0V0z"/>
<g>
	<path id="path3065" class="st0" d="M256.8,174.6c3-9,0-25,1-34.9c1-6,5-12,8-18c2-6,5-14,12-16c-2,6-3,6-5,11l-3,11c-2,5-5,7-6,12
		c-2,7-1,24-1,31.9c0,2,0,5-2,7c-3,4-12,1-11,11c0,1,0,3,1,4c4,9,20,12,28,16c8,5,6,10,14,15c8,6,29,6,38.9,5c3-1,8-1,11-3
		c8-3,9-11,17-16c6-3,19-5,25-14c1-1,2-3,2-4c3-11-10-7-13-14c-2-5,1-21,2-26l3,3v9l1,10c11-2,10-15,11-24c2-24,2-38.9-15-57.9
		c-10-10-23-18-36.9-20h-9l-7-1l-8,1c-13,1-22,1-32.9,7c-8,4-13,9-19,16c-15,16-18,35.9-15,56.9
		C248.8,160.6,250.8,169.6,256.8,174.6z M289.7,144.6c14-1,24,9,19,23c-4,9-13,16-23,18c-9,1-13-5-13-13
		C272.8,159.6,274.8,148.6,289.7,144.6z M345.6,144.6c12,0,18,10,19,21c0,3,1,6,1,8c-1,7-8,12-15,13c-11,0-24-17-23-27
		C329.7,150.6,337.7,146.6,345.6,144.6z M327.7,205.5l-11-2l-9,3c-1-7,2-17,5-24c1-2,3-6,5-7c4-1,5,4,5,6
		C324.7,189.6,327.7,197.6,327.7,205.5z"/>
	<path id="path3067" class="st0" d="M366.6,221.5c-3,1-7,1-10,3c-10,7-5,24-14,34.9c-4,5-13,7-20,7c-13,0-29-1-34.9-14
		c-5-9,2-18-9-29c-2-1-5-4-7-4c-3,0-2,4-2,6l1,20c0,15,4,15,11,24c4,6,7,12,14,15c9,3,19,3,28,2c7,0,11,1,18-3c7-4,19-20,21-28l1-14
		C365.6,231.5,366.6,233.5,366.6,221.5L366.6,221.5z"/>
	<path id="path3069" class="st0" d="M549.3,117.7c-15,21-31.2,38.7-48.9,59.9l-24,27c-20,19-69.9,55.9-92.9,70.9
		c-13,9-27,16-40.9,22l-18.2,8.8c3,3,8.6,4.6,13.6,7c3,0,13.6-5.8,16.6-7.8l31.9-18c6-4,12-9,19-10c-3,7-10,11-17,15l-19,11
		c0,0-19.9,11.4-22.6,13.2c5.5,2.2,13.7,4.6,18.9,6.7c5,0,11.8-5,15.8-7c11-6,25-15,35.9-23l18-12c14-11,28-23,40.9-35.9
		c10-9,20-18,28-29c11-13,18-28,26-42.9c9-14,12-23,17-37.9C548.3,130.7,551.3,122.7,549.3,117.7L549.3,117.7z"/>
	<path id="path3071" class="st0" d="M91,112.7c-3,11,1,24,5,33.9c9,24,24,44.9,38.9,64.9c9,13,24,29,34.9,39.9l12,10l26,23
		c21,16,59.9,39.9,83.9,50.9l31.9,14l13,5c15,6,30,10,45.9,13c9,2,19,5,28,5c-3-11-9-10-18-13l-32.9-13
		c-45.9-19-96.8-37.9-132.8-73.9c7,0,12,6,17,10c7,5,16,11,24,16c22,13,71.9,35.9,96.8,44.9c10,4,27,11,36.9,11c8,1,19-4,25-8
		c-4-4-8-3-14-4l-31-9c-27-7-52.9-17-77.9-30l-14-6l-19-12l-23-15l-24-19l-40.9-31.9L145,180.6l-19-22l-20-22L91,112.7L91,112.7z"/>
	<path id="path3073" class="st0" d="M411.5,359.3c2,4,6,10,6,15c0,11-13,21-23,20c-4-1-13-6-16,0c-1,2-1,4,0,5c0,4,5,6,9,8
		c11,3,23-1,31.9-7c7-4,12-11,14-19l2-13c1-4,5-5,10-12c6-8,12-22,20-28c3-2,6-3,10-4c-2-3-4-5-6-8c-2-1-4-3-6-3c-3-1-7-1-10,1
		c-14,7-11,20-19,30C428.5,352.3,421.5,356.3,411.5,359.3L411.5,359.3z"/>
	<path id="path3075" class="st0" d="M443.5,372.3c7,3,13,2,20,2l15,1c7,0,9-4,12-10c1-2,2-6,0-8c-2-2-6-2-9-2l-17,1c-3,0-8,0-11,1
		C448.5,360.3,444.5,367.3,443.5,372.3L443.5,372.3z"/>
	<path id="path3077" class="st0" d="M497.4,386.3c-5-2-8-4-11-8c-1,1-2,1-3,2C482.4,385.3,495.4,397.2,497.4,386.3z"/>
	<path id="path3079" class="st0" d="M490.4,352.3l8,5c-2,4-7,12-6,17c1,10,15,10,21,4c7-8,7-20-3-26
		C504.4,349.3,497.4,350.3,490.4,352.3z"/>
	<path id="path3081" class="st0" d="M132,380.3l1,1c8-2,13-5,14-13C141,369.3,135,375.3,132,380.3z"/>
	<path id="path3083" class="st0" d="M139,343.3c-3-2-6-3-10-3c-3,0-6,0-9,1c-10,4-11,20-3,27c4,4,14,6,18,1c4-4,3-9,1-14
		c-1-3-3-7-1-9C136,344.3,138,344.3,139,343.3z"/>
	<path id="path3085" class="st0" d="M138,347.3c1,3,6,15,8,17c3,2,6,2,9,2l18-1h13c0-3,0-6-1-8c-3-8-14-12-22-12l-9,1
		C148,346.3,143,345.3,138,347.3z"/>
	<path id="path3087" class="st0" d="M156.9,315.4c19,5,19,21,27,31.9c3,4,11,10,12,14c1,3,0,4,1,11c2,9,8,18,16,23c9,6,17,10,28,7
		c6-2,12-6,9-13c-3-7-14,0-21-2c-7-3-15-13-15-21l4-14c-11-4-24-13-29-24c-3-7-3-17-8-22C171.9,299.4,159.9,305.4,156.9,315.4
		L156.9,315.4z"/>
	<path id="path3089" class="st0" d="M204.9,338.3c3,4,5,5,9,7c14,8,23,2,36.9-1l29-9c-3.8-2.6-12.4-7.9-16-10l-19,5L204.9,338.3z"/>
	<path id="path3091" class="st0" d="M218.8,367.3c26,0,49.9-8,74.9-14c0,0,11-5.2,14.7-5.2c-3.5-2.5-17.6-7.6-19.8-9.6
		c-3,0.9-14.8,4.8-18.8,5.8l-25,7l-12,3C225.8,357.3,220.8,358.3,218.8,367.3z"/>
	<path id="path3093" class="st0" d="M295.7,252.5c0,2.5,0.2,5.5,1.2,7s4.7,1.6,5.7,1c0.8-0.8-0.7-4.7-1.6-5.9
		C300.2,253.5,298.7,253,295.7,252.5z"/>
	<path id="path3095" class="st0" d="M303.7,253.5l1,5c0,1,1,3,2,4c4,2,6-8,3-9C307.7,252.5,305.7,253.5,303.7,253.5z"/>
	<path id="path3097" class="st0" d="M315.7,254.5c-3,2-3.1,5.7-2,7.6c1.1,1.9,3.5,1.9,5,1.4c1-0.5,2.5-3,2.6-5.2
		C321.4,256,320.2,254,315.7,254.5z"/>
	<path id="path3099" class="st0" d="M304.7,241.5c2.7,1.4,7.2-0.1,7.2-0.1l-0.2-5.9c-1-4-4-5-6-3
		C304.7,234.5,304.7,239.5,304.7,241.5z"/>
	<path id="path3101" class="st0" d="M319.7,231.5c-1,0-4.1-0.5-5.1,0.5c-2,2-2.9,8.5,0.1,10.5c1.9,0.5,5,0.9,6-3.1v-2.9
		C320.7,236.5,320.6,233.2,319.7,231.5z"/>
	<path id="path3103" class="st0" d="M329.7,263.5c0.9,0.4,2-1,3-2c7-7-7.6-12.6-5-2C327.7,259.5,328.6,263.3,329.7,263.5z"/>
	<path id="path3105" class="st0" d="M301.5,230.5c-1-0.3-2.7,0-3.7,0c-7.8,3.5,2,17,5,8c0-1,0-2,0-3
		C302.7,235.5,302.2,230.9,301.5,230.5z"/>
	<path id="path3107" class="st0" d="M323.7,231.5c0,0-1.7,10.1-1,11c1.3,0.7,5.3,0.5,6.8-0.5c0-3,0.2-6.5-0.4-8.3
		C328.5,231.8,327.2,232,323.7,231.5L323.7,231.5z"/>
	<path id="path3109" class="st0" d="M333.2,230.3l-0.6,5.2c0,3,0.6,8.8,4.6,5.8c0.5-0.5,1.8-6.4,1.3-9.1
		C337.6,230.7,335.7,230.6,333.2,230.3z"/>
</g>
</svg>
